<svg width="190" height="97" viewBox="0 0 190 97" fill="none" xmlns="http://www.w3.org/2000/svg"><path fill-rule="evenodd" clip-rule="evenodd" d="M49.5115 48.4413C49.5102 52.4484 48.444 56.3819 46.4243 59.8312C46.4243 59.8312 38.6714 62.5901 27.2369 62.5901C15.8025 62.5901 8.05349 59.8312 8.05349 59.8312C6.3256 56.853 5.30037 53.5129 5.05731 50.07C4.81425 46.6271 5.35991 43.1739 6.65195 39.9783C7.94399 36.7827 9.94768 33.9306 12.5076 31.6432C15.0676 29.3557 18.1149 27.6945 21.4134 26.7883C24.7118 25.8821 28.1726 25.7553 31.5274 26.4177C34.8822 27.0802 38.0408 28.514 40.7582 30.6081C43.4756 32.7022 45.6787 35.4001 47.1968 38.4928C48.7148 41.5854 49.5068 44.9896 49.5115 48.4413Z" fill="#313131"/><path fill-rule="evenodd" clip-rule="evenodd" d="M37.2254 50.966C37.2254 50.8013 37.1609 50.6433 37.0459 50.5265C36.931 50.4097 36.7749 50.3436 36.6118 50.3425H35.4001V35.0792C35.3991 34.9146 35.3336 34.757 35.2179 34.6409C35.1022 34.5248 34.9457 34.4597 34.7826 34.4597H22.615C22.3405 34.4518 22.0664 34.4833 21.8007 34.5532C21.5794 34.6083 21.3809 34.7323 21.2334 34.9078C21.0785 35.1292 21.0023 35.397 21.0173 35.6676V37.312C21.0173 37.8615 21.0173 38.4577 20.9903 39.1045C20.9633 39.7514 20.9363 42.9661 20.8707 43.6363C20.8051 44.3066 20.7202 44.9768 20.6044 45.6353C20.4918 46.2718 20.3306 46.8984 20.122 47.5096C19.9275 48.0795 19.6685 48.6247 19.3502 49.1346C19.1265 49.5017 18.8524 49.835 18.5359 50.1243C18.3885 50.2568 18.2062 50.3435 18.0111 50.3737C17.8424 50.3999 17.6808 50.4609 17.5364 50.5529C17.432 50.6511 17.3522 50.773 17.3039 50.9086C17.2556 51.0442 17.24 51.1894 17.2586 51.3323V56.8188C17.2585 56.9007 17.2745 56.9817 17.3056 57.0573C17.3368 57.1329 17.3824 57.2015 17.4399 57.2591C17.5006 57.3214 17.5735 57.3702 17.6539 57.4024C17.7343 57.4346 17.8205 57.4495 17.9069 57.4462H21.519C21.6826 57.4455 21.8392 57.3797 21.9551 57.263C22.0121 57.2052 22.0571 57.1365 22.0876 57.0609C22.1181 56.9853 22.1334 56.9043 22.1326 56.8227V54.3288H32.3591V56.8539C32.3591 56.9357 32.375 57.0168 32.4062 57.0924C32.4373 57.1679 32.483 57.2365 32.5405 57.2942C32.6562 57.3949 32.8046 57.449 32.9573 57.4462H36.6041C36.685 57.4462 36.7651 57.43 36.8398 57.3986C36.9145 57.3673 36.9823 57.3213 37.0394 57.2633C37.0964 57.2054 37.1415 57.1366 37.1721 57.061C37.2027 56.9854 37.2182 56.9044 37.2177 56.8227V50.966H37.2254ZM30.5531 50.3425H23.6955C24.0819 49.7694 24.3823 49.1418 24.587 48.4799C24.8233 47.7525 25.0078 47.0089 25.1388 46.2549C25.2739 45.4951 25.3665 44.7508 25.4244 44.0182C25.4823 43.2857 25.5054 40.0982 25.5054 39.5565V38.4616H30.5685L30.5531 50.3425Z" fill="#fff"/><path fill-rule="evenodd" clip-rule="evenodd" d="M9.08301 61.4092C11.1374 64.3442 13.8593 66.7385 17.0201 68.391C20.1809 70.0435 23.6883 70.906 27.2477 70.906C30.807 70.906 34.3144 70.0435 37.4752 68.391C40.636 66.7385 43.358 64.3442 45.4123 61.4092C45.4123 61.4092 36.413 64.5265 27.2438 64.5265C18.0747 64.5265 9.08301 61.4092 9.08301 61.4092Z" fill="#313131"/><path fill-rule="evenodd" clip-rule="evenodd" d="M27.2515 64.5231C36.4207 64.5231 45.4201 61.4058 45.4201 61.4058C45.4201 61.4058 37.7868 67.6405 27.1165 67.6405C20.599 67.5668 14.2774 65.3813 9.08301 61.4058C9.08301 61.4058 18.0785 64.5231 27.2515 64.5231Z" fill="#313131"/><path fill-rule="evenodd" clip-rule="evenodd" d="M82.0693 55.4235H73.1934C73.6927 54.6844 74.0827 53.8758 74.3511 53.0232C74.6546 52.0837 74.8932 51.1241 75.0651 50.1513C75.2349 49.1694 75.3635 48.2095 75.451 47.2717C75.5243 46.3326 75.559 42.206 75.559 41.5163V40.0979H82.0924V55.4235H82.0693ZM165.039 34.9777H169.165C169.294 34.9772 169.421 35.0024 169.54 35.052C169.66 35.1015 169.768 35.1744 169.859 35.2664C169.95 35.3584 170.022 35.4677 170.071 35.5881C170.12 35.7084 170.145 35.8373 170.145 35.9674V48.8265L183.598 34.9192C183.691 34.8249 183.801 34.7495 183.922 34.6971C184.044 34.6454 184.175 34.6189 184.308 34.6192H184.439C184.698 34.6212 184.946 34.7262 185.13 34.9113C185.313 35.0965 185.417 35.3471 185.419 35.6089V60.1736C185.419 60.4361 185.316 60.6878 185.132 60.8734C184.948 61.0591 184.699 61.1633 184.439 61.1633H180.294C180.034 61.1633 179.785 61.0591 179.601 60.8734C179.417 60.6878 179.314 60.4361 179.314 60.1736V47.3146L165.834 61.253C165.744 61.3485 165.635 61.4241 165.514 61.4751C165.392 61.5259 165.261 61.5524 165.128 61.553H165.032C164.903 61.5535 164.775 61.5283 164.656 61.4787C164.537 61.4292 164.429 61.3563 164.337 61.2643C164.246 61.1723 164.174 61.0629 164.125 60.9426C164.076 60.8223 164.051 60.6934 164.051 60.5632V35.9713C164.051 35.8417 164.076 35.7133 164.125 35.5935C164.174 35.4737 164.246 35.3651 164.337 35.2738C164.428 35.1813 164.536 35.1079 164.655 35.0577C164.775 35.0076 164.903 34.9817 165.032 34.9816L165.039 34.9777ZM94.9277 34.9777H99.0531C99.1819 34.9772 99.3096 35.0024 99.4288 35.052C99.5479 35.1015 99.6562 35.1744 99.7473 35.2664C99.8385 35.3584 99.9106 35.4677 99.9597 35.5881C100.009 35.7084 100.034 35.8373 100.033 35.9674V48.8265L113.486 34.9192C113.578 34.824 113.688 34.7485 113.81 34.6971C113.932 34.645 114.064 34.6184 114.196 34.6192H114.331C114.591 34.6192 114.84 34.7235 115.024 34.9091C115.208 35.0947 115.311 35.3464 115.311 35.6089V60.1736C115.312 60.3037 115.287 60.4326 115.238 60.553C115.189 60.6733 115.117 60.7826 115.025 60.8746C114.934 60.9666 114.826 61.0395 114.707 61.089C114.588 61.1386 114.46 61.1639 114.331 61.1633H110.19C110.062 61.1633 109.935 61.1377 109.816 61.0879C109.697 61.0381 109.589 60.9652 109.499 60.8732C109.408 60.7812 109.336 60.6721 109.287 60.552C109.238 60.432 109.214 60.3034 109.214 60.1736V47.3146L95.7304 61.253C95.6406 61.3493 95.5314 61.4251 95.4101 61.4751C95.2878 61.5264 95.1567 61.5529 95.0242 61.553H94.9239C94.795 61.5535 94.6673 61.5283 94.5482 61.4787C94.429 61.4292 94.3207 61.3563 94.2296 61.2643C94.1385 61.1723 94.0663 61.0629 94.0172 60.9426C93.9682 60.8223 93.9432 60.6934 93.9437 60.5632V35.9713C93.9437 35.7088 94.0469 35.4571 94.2308 35.2715C94.4146 35.0859 94.6639 34.9816 94.9239 34.9816L94.9277 34.9777ZM160.196 54.1415C160.052 54.0512 159.887 54.0014 159.718 53.9973C159.549 53.9907 159.382 54.0282 159.232 54.1065C157.167 55.1701 154.881 55.7193 152.563 55.708C148.198 55.708 145.03 52.4971 145.03 48.0705C145.03 43.5698 148.168 40.4291 152.66 40.4291C154.894 40.4449 157.092 41.0064 159.066 42.0657C159.216 42.1477 159.385 42.1868 159.556 42.1787C159.725 42.1736 159.89 42.1239 160.034 42.0346C160.178 41.9454 160.298 41.8207 160.382 41.6722C160.463 41.5218 160.504 41.3526 160.501 41.1812V37.2494C160.505 37.0728 160.459 36.8988 160.37 36.7468C160.281 36.5956 160.155 36.4706 160.003 36.3844C157.693 35.1496 155.115 34.5161 152.501 34.5412C144.714 34.5412 138.844 40.3551 138.844 48.0666C138.844 55.7781 144.671 61.592 152.397 61.592C156.877 61.592 159.845 59.9671 160.169 59.7761C160.321 59.6899 160.447 59.5649 160.536 59.4137C160.621 59.2601 160.666 59.0871 160.667 58.9111V54.9949C160.667 54.8246 160.625 54.657 160.544 54.5078C160.462 54.3576 160.342 54.2325 160.196 54.1454V54.1415ZM131.952 45.9858L140.345 59.6241C140.441 59.7744 140.494 59.948 140.499 60.1264C140.505 60.3048 140.462 60.4814 140.376 60.6373C140.293 60.7982 140.167 60.933 140.013 61.027C139.86 61.1147 139.687 61.1604 139.512 61.1594H134.738C134.568 61.1608 134.401 61.1172 134.252 61.0332C134.104 60.9491 133.98 60.8274 133.893 60.6801L127.718 50.3656L124.967 53.4245V60.1736C124.967 60.3034 124.942 60.432 124.894 60.552C124.845 60.6721 124.773 60.7812 124.682 60.8732C124.591 60.9652 124.484 61.0381 124.365 61.0879C124.246 61.1377 124.119 61.1633 123.99 61.1633H119.803C119.543 61.1633 119.294 61.0591 119.11 60.8734C118.926 60.6878 118.823 60.4361 118.823 60.1736V35.9713C118.825 35.7095 118.929 35.4589 119.112 35.2737C119.296 35.0885 119.544 34.9836 119.803 34.9816H124.002C124.131 34.982 124.258 35.008 124.376 35.0582C124.495 35.1083 124.602 35.1816 124.693 35.2738C124.784 35.3651 124.856 35.4737 124.905 35.5935C124.954 35.7133 124.979 35.8417 124.978 35.9713V45.4558L133.596 35.3245C133.687 35.2143 133.802 35.1264 133.931 35.0673C134.06 35.0086 134.199 34.9781 134.34 34.9777H139.357C139.547 34.9759 139.733 35.0298 139.892 35.1329C140.052 35.236 140.179 35.3838 140.256 35.5583C140.334 35.733 140.36 35.9261 140.334 36.1155C140.304 36.3053 140.221 36.4824 140.094 36.626L131.929 45.978L131.952 45.9858ZM89.8878 55.4235H88.321V35.7258C88.3202 35.5141 88.2371 35.3112 88.0894 35.1608C88.016 35.0852 87.928 35.0256 87.8309 34.9855C87.7354 34.9454 87.6333 34.9242 87.5299 34.9231H73.0892C72.6531 34.9231 72.2402 34.9231 71.8505 34.9231C71.494 34.9103 71.1377 34.9511 70.7931 35.0439C70.5063 35.1146 70.2486 35.274 70.056 35.4998C69.8544 35.7937 69.759 36.1487 69.7859 36.5052V38.6211C69.7859 39.3342 69.7859 40.1057 69.755 40.9318C69.7241 41.7579 69.6817 45.9078 69.6045 46.7768C69.5273 47.6458 69.4077 48.5069 69.2572 49.3564C69.1115 50.1787 68.9051 50.9889 68.6397 51.7801C68.3912 52.5123 68.0624 53.2142 67.6595 53.8727C67.3631 54.36 66.9977 54.8011 66.5751 55.1819C66.403 55.3306 66.1931 55.4278 65.9692 55.4625C65.7399 55.4914 65.5198 55.5712 65.3248 55.6963C65.0894 55.8561 64.9697 56.199 64.9697 56.7211V63.7975C64.9717 64.0098 65.0561 64.2128 65.2048 64.3629C65.3534 64.513 65.5545 64.5982 65.7647 64.6002H70.4187C70.524 64.6034 70.6288 64.5849 70.7267 64.5457C70.8246 64.5065 70.9135 64.4475 70.988 64.3723C71.0625 64.2971 71.1209 64.2073 71.1597 64.1085C71.1985 64.0096 71.2169 63.9038 71.2137 63.7975V60.5399H84.3925V63.7975C84.3913 63.9026 84.4113 64.0068 84.4511 64.1039C84.4908 64.201 84.5497 64.289 84.624 64.3625C84.6972 64.4374 84.7843 64.4969 84.8803 64.5377C84.9763 64.5785 85.0794 64.5997 85.1836 64.6002H89.8839C90.0941 64.5982 90.2952 64.513 90.4438 64.3629C90.5925 64.2128 90.6769 64.0098 90.6789 63.7975V56.2223C90.6784 56.1172 90.6574 56.0131 90.617 55.9161C90.5766 55.8192 90.5176 55.7312 90.4435 55.6573C90.3706 55.5823 90.2835 55.5229 90.1874 55.4827C90.0912 55.4425 89.988 55.4224 89.8839 55.4235H89.8878Z" fill="#313131"/></svg>