<svg width="190" height="97" viewBox="0 0 190 97" fill="none" xmlns="http://www.w3.org/2000/svg"><g clip-path="url(#clip0_116:917)" fill-rule="evenodd" clip-rule="evenodd"><path d="M48.3543 48.7284C48.353 52.7356 47.2868 56.669 45.267 60.1183C45.267 60.1183 37.5142 62.8772 26.0797 62.8772C14.6453 62.8772 6.89626 60.1183 6.89626 60.1183C5.16837 57.1401 4.14314 53.8 3.90008 50.3571C3.65703 46.9142 4.20268 43.461 5.49472 40.2654C6.78676 37.0698 8.79046 34.2177 11.3504 31.9303C13.9103 29.6428 16.9577 27.9816 20.2561 27.0754C23.5546 26.1692 27.0154 26.0424 30.3702 26.7048C33.725 27.3673 36.8836 28.8011 39.601 30.8952C42.3184 32.9893 44.5215 35.6873 46.0395 38.7799C47.5575 41.8725 48.3496 45.2767 48.3543 48.7284Z" fill="#FF6A00"/><path d="M36.0706 51.2521C36.0706 51.0874 36.0061 50.9295 35.8912 50.8126C35.7762 50.6958 35.6201 50.6297 35.457 50.6287H34.2453V35.3654C34.2443 35.2007 34.1788 35.0431 34.0631 34.927C33.9474 34.811 33.7909 34.7458 33.6278 34.7458H21.4602C21.1857 34.7379 20.9116 34.7694 20.6459 34.8393C20.4246 34.8944 20.2261 35.0185 20.0786 35.1939C19.9237 35.4153 19.8475 35.6831 19.8625 35.9538V37.5982C19.8625 38.1476 19.8625 38.7438 19.8355 39.3906C19.8085 40.0375 19.7815 43.2522 19.7159 43.9225C19.6503 44.5927 19.5654 45.2629 19.4496 45.9215C19.337 46.5579 19.1758 47.1845 18.9672 47.7958C18.7727 48.3656 18.5138 48.9109 18.1954 49.4207C17.9717 49.7879 17.6976 50.1211 17.3811 50.4104C17.2337 50.543 17.0514 50.6296 16.8563 50.6598C16.6876 50.686 16.526 50.747 16.3816 50.8391C16.2772 50.9372 16.1974 51.0592 16.1491 51.1947C16.1008 51.3303 16.0852 51.4756 16.1038 51.6184V57.1049C16.1037 57.1868 16.1197 57.2678 16.1508 57.3434C16.182 57.419 16.2276 57.4876 16.2852 57.5453C16.3458 57.6075 16.4187 57.6564 16.4991 57.6886C16.5795 57.7208 16.6657 57.7357 16.7521 57.7323H20.3642C20.5278 57.7316 20.6845 57.6658 20.8003 57.5492C20.8573 57.4913 20.9023 57.4226 20.9328 57.347C20.9633 57.2714 20.9786 57.1904 20.9778 57.1088V54.615H31.2043V57.14C31.2043 57.2219 31.2203 57.3029 31.2514 57.3785C31.2825 57.4541 31.3282 57.5227 31.3857 57.5803C31.5014 57.681 31.6498 57.7351 31.8025 57.7323H35.4493C35.5302 57.7323 35.6103 57.7161 35.685 57.6848C35.7597 57.6534 35.8275 57.6074 35.8846 57.5494C35.9416 57.4915 35.9867 57.4227 36.0173 57.3471C36.0479 57.2715 36.0634 57.1905 36.0629 57.1088V51.2521H36.0706ZM29.3983 50.6287H22.5407C22.9272 50.0555 23.2276 49.4279 23.4322 48.766C23.6685 48.0386 23.853 47.2951 23.984 46.541C24.1191 45.7812 24.2117 45.0369 24.2696 44.3044C24.3275 43.5718 24.3506 40.3843 24.3506 39.8427V38.7477H29.4137L29.3983 50.6287Z" fill="#fff"/><path d="M7.92358 61.6953C9.97796 64.6303 12.6999 67.0246 15.8607 68.6771C19.0215 70.3297 22.5289 71.1921 26.0882 71.1921C29.6476 71.1921 33.155 70.3297 36.3158 68.6771C39.4766 67.0246 42.1985 64.6303 44.2529 61.6953C44.2529 61.6953 35.2535 64.8127 26.0844 64.8127C16.9152 64.8127 7.92358 61.6953 7.92358 61.6953Z" fill="#74AF0D"/><path d="M26.0921 64.8102C35.2613 64.8102 44.2606 61.6929 44.2606 61.6929C44.2606 61.6929 36.6274 67.9276 25.957 67.9276C19.4396 67.8539 13.1179 65.6684 7.92358 61.6929C7.92358 61.6929 16.9191 64.8102 26.0921 64.8102Z" fill="#94CC00"/><path d="M80.9128 55.7106H72.0369C72.5362 54.9715 72.9262 54.1629 73.1946 53.3103C73.4982 52.3708 73.7367 51.4112 73.9086 50.4384C74.0784 49.4565 74.207 48.4966 74.2945 47.5588C74.3678 46.6197 74.4025 42.4931 74.4025 41.8034V40.385H80.9359V55.7106H80.9128ZM163.883 35.2648H168.008C168.137 35.2643 168.265 35.2895 168.384 35.3391C168.503 35.3886 168.611 35.4615 168.703 35.5535C168.794 35.6455 168.866 35.7549 168.915 35.8752C168.964 35.9955 168.989 36.1244 168.988 36.2545V49.1136L182.441 35.2063C182.534 35.112 182.644 35.0366 182.765 34.9842C182.888 34.9325 183.019 34.906 183.151 34.9063H183.282C183.542 34.9083 183.79 35.0133 183.973 35.1984C184.157 35.3836 184.261 35.6342 184.263 35.896V60.4607C184.263 60.7232 184.159 60.9749 183.976 61.1606C183.792 61.3462 183.542 61.4504 183.282 61.4504H179.138C178.878 61.4504 178.629 61.3462 178.445 61.1606C178.261 60.9749 178.158 60.7232 178.158 60.4607V47.6017L164.678 61.5401C164.587 61.6356 164.478 61.7112 164.358 61.7622C164.235 61.813 164.104 61.8395 163.972 61.8401H163.875C163.746 61.8406 163.619 61.8154 163.499 61.7658C163.38 61.7163 163.272 61.6434 163.181 61.5514C163.09 61.4594 163.018 61.35 162.969 61.2297C162.919 61.1094 162.894 60.9805 162.895 60.8504V36.2584C162.894 36.1288 162.919 36.0004 162.968 35.8806C163.017 35.7609 163.089 35.6522 163.181 35.5609C163.272 35.4684 163.38 35.395 163.499 35.3448C163.618 35.2947 163.746 35.2688 163.875 35.2687L163.883 35.2648ZM93.7712 35.2648H97.8966C98.0254 35.2643 98.1531 35.2895 98.2723 35.3391C98.3914 35.3886 98.4997 35.4615 98.5908 35.5535C98.682 35.6455 98.7541 35.7549 98.8032 35.8752C98.8523 35.9955 98.8773 36.1244 98.8768 36.2545V49.1136L112.33 35.2063C112.422 35.1111 112.532 35.0356 112.654 34.9842C112.776 34.9321 112.907 34.9056 113.04 34.9063H113.175C113.435 34.9063 113.684 35.0106 113.868 35.1962C114.052 35.3818 114.155 35.6335 114.155 35.896V60.4607C114.155 60.5908 114.13 60.7197 114.081 60.8401C114.032 60.9604 113.96 61.0697 113.869 61.1617C113.778 61.2537 113.67 61.3266 113.55 61.3761C113.431 61.4257 113.304 61.451 113.175 61.4504H109.034C108.905 61.4504 108.778 61.4248 108.659 61.375C108.541 61.3252 108.433 61.2523 108.342 61.1603C108.251 61.0684 108.18 60.9592 108.131 60.8392C108.082 60.7191 108.057 60.5905 108.058 60.4607V47.6017L94.5739 61.5401C94.4841 61.6364 94.3749 61.7122 94.2536 61.7622C94.1313 61.8135 94.0002 61.84 93.8677 61.8401H93.7674C93.6385 61.8406 93.5108 61.8154 93.3917 61.7658C93.2725 61.7163 93.1642 61.6434 93.0731 61.5514C92.982 61.4594 92.9098 61.35 92.8607 61.2297C92.8117 61.1094 92.7867 60.9805 92.7872 60.8504V36.2584C92.7872 35.9959 92.8904 35.7442 93.0743 35.5586C93.2581 35.373 93.5074 35.2687 93.7674 35.2687L93.7712 35.2648ZM159.04 54.4286C158.896 54.3383 158.731 54.2885 158.561 54.2845C158.393 54.2778 158.225 54.3154 158.075 54.3936C156.011 55.4572 153.724 56.0064 151.407 55.9951C147.042 55.9951 143.874 52.7842 143.874 48.3576C143.874 43.857 147.011 40.7162 151.503 40.7162C153.738 40.732 155.936 41.2936 157.909 42.3528C158.059 42.4348 158.229 42.4739 158.399 42.4658C158.568 42.4607 158.733 42.411 158.878 42.3217C159.022 42.2325 159.141 42.1078 159.225 41.9593C159.306 41.8089 159.348 41.6397 159.345 41.4683V37.5366C159.348 37.3599 159.303 37.1859 159.213 37.0339C159.125 36.8827 158.998 36.7577 158.847 36.6715C156.537 35.4367 153.958 34.8032 151.345 34.8284C143.557 34.8284 137.688 40.6422 137.688 48.3537C137.688 56.0652 143.515 61.8791 151.241 61.8791C155.721 61.8791 158.689 60.2542 159.013 60.0632C159.164 59.977 159.291 59.852 159.379 59.7008C159.465 59.5472 159.51 59.3742 159.511 59.1982V55.282C159.511 55.1117 159.468 54.9441 159.387 54.7949C159.306 54.6448 159.186 54.5196 159.04 54.4325V54.4286ZM130.795 46.2729L139.189 59.9113C139.284 60.0615 139.338 60.2351 139.343 60.4135C139.348 60.5919 139.306 60.7685 139.22 60.9244C139.136 61.0853 139.011 61.2201 138.857 61.3141C138.704 61.4018 138.531 61.4475 138.355 61.4465H133.581C133.411 61.4479 133.244 61.4043 133.096 61.3203C132.948 61.2362 132.824 61.1145 132.736 60.9673L126.562 50.6528L123.81 53.7116V60.4607C123.811 60.5905 123.786 60.7191 123.737 60.8392C123.688 60.9592 123.616 61.0684 123.526 61.1603C123.435 61.2523 123.327 61.3252 123.208 61.375C123.09 61.4248 122.962 61.4504 122.834 61.4504H118.647C118.387 61.4504 118.138 61.3462 117.954 61.1606C117.77 60.9749 117.667 60.7232 117.667 60.4607V36.2584C117.669 35.9966 117.773 35.746 117.956 35.5608C118.139 35.3757 118.387 35.2707 118.647 35.2687H122.845C122.974 35.2691 123.101 35.2951 123.22 35.3453C123.338 35.3954 123.446 35.4687 123.536 35.5609C123.627 35.6522 123.7 35.7609 123.749 35.8806C123.798 36.0004 123.823 36.1288 123.822 36.2584V45.7429L132.439 35.6116C132.53 35.5015 132.645 35.4135 132.775 35.3544C132.903 35.2957 133.043 35.2652 133.184 35.2648H138.201C138.39 35.263 138.576 35.3169 138.736 35.42C138.896 35.5231 139.022 35.6709 139.1 35.8454C139.177 36.0201 139.204 36.2132 139.177 36.4026C139.147 36.5924 139.064 36.7695 138.938 36.9131L130.772 46.2651L130.795 46.2729ZM88.7313 55.7106H87.1645V36.013C87.1637 35.8012 87.0806 35.5983 86.9329 35.4479C86.8595 35.3723 86.7715 35.3127 86.6744 35.2726C86.5789 35.2325 86.4768 35.2113 86.3734 35.2102H71.9327C71.4966 35.2102 71.0837 35.2102 70.694 35.2102C70.3375 35.1975 69.9812 35.2382 69.6366 35.331C69.3498 35.4017 69.0921 35.5611 68.8995 35.7869C68.6979 36.0809 68.6026 36.4358 68.6294 36.7923V38.9082C68.6294 39.6213 68.6294 40.3928 68.5985 41.2189C68.5676 42.045 68.5252 46.195 68.448 47.0639C68.3708 47.9329 68.2512 48.794 68.1007 49.6435C67.955 50.4658 67.7486 51.276 67.4832 52.0672C67.2347 52.7995 66.9059 53.5013 66.503 54.1598C66.2066 54.6471 65.8412 55.0882 65.4186 55.469C65.2465 55.6177 65.0366 55.7149 64.8127 55.7496C64.5834 55.7785 64.3633 55.8583 64.1683 55.9834C63.9329 56.1432 63.8132 56.4861 63.8132 57.0082V64.0846C63.8152 64.2969 63.8996 64.4999 64.0483 64.65C64.1969 64.8001 64.398 64.8853 64.6082 64.8873H69.2622C69.3675 64.8905 69.4723 64.872 69.5702 64.8328C69.6681 64.7936 69.757 64.7346 69.8315 64.6594C69.906 64.5842 69.9644 64.4944 70.0032 64.3956C70.0421 64.2967 70.0604 64.1909 70.0572 64.0846V60.827H83.236V64.0846C83.2348 64.1897 83.2548 64.2939 83.2946 64.391C83.3344 64.4881 83.3932 64.5761 83.4675 64.6496C83.5407 64.7245 83.6278 64.784 83.7238 64.8248C83.8198 64.8656 83.9229 64.8868 84.0271 64.8873H88.7274C88.9376 64.8853 89.1387 64.8001 89.2873 64.65C89.436 64.4999 89.5204 64.2969 89.5224 64.0846V56.5095C89.5219 56.4043 89.5009 56.3002 89.4605 56.2032C89.4201 56.1063 89.3611 56.0183 89.287 55.9444C89.2141 55.8694 89.127 55.81 89.0309 55.7698C88.9347 55.7296 88.8315 55.7095 88.7274 55.7106H88.7313Z" fill="#FF6A00"/></g><defs><clipPath id="clip0_116:917"><path fill="#fff" transform="translate(3.84)" d="M0 0H182.323V97H0z"/></clipPath></defs></svg>