<svg width="80" height="80" viewBox="0 0 80 80" fill="none" xmlns="http://www.w3.org/2000/svg"><circle cx="40" cy="40" r="40" fill="#4E6297"/><path d="M58 27.6373C58 24.6425 55.3575 22 52.3627 22H29.6373C26.6425 22 24 24.6425 24 27.6373V50.3627C24 53.3575 26.6425 56 29.6373 56H41.0881V43.1399H36.8601V37.5026H41.0881V35.2124C41.0881 31.3368 43.9067 27.9896 47.4301 27.9896H52.0104V33.6269H47.4301C46.9016 33.6269 46.373 34.1554 46.373 35.2124V37.5026H52.0104V43.1399H46.373V56H52.3627C55.3575 56 58 53.3575 58 50.3627V27.6373Z" fill="#fff"/></svg>