<svg width="80" height="80" viewBox="0 0 80 80" fill="none" xmlns="http://www.w3.org/2000/svg"><circle cx="40" cy="40" r="40" fill="url(#paint_linear)"/><path d="M53.1615 24H28.8385C26.0923 24 24 26.0923 24 28.8385V53.1615C24 55.9077 26.0923 58 28.8385 58H53.1615C55.9077 58 58 55.9077 58 53.1615V28.8385C58 26.0923 55.9077 24 53.1615 24ZM41 51.2C46.6231 51.2 51.2 46.7538 51.2 41.3923C51.2 40.4769 51.0692 39.4308 50.8077 38.6462H53.6846V52.5077C53.6846 53.1615 53.1615 53.8154 52.3769 53.8154H29.6231C28.9692 53.8154 28.3154 53.2923 28.3154 52.5077V38.5154H31.3231C31.0615 39.4308 30.9308 40.3462 30.9308 41.2615C30.8 46.7538 35.3769 51.2 41 51.2ZM41 47.2769C37.3385 47.2769 34.4615 44.4 34.4615 40.8692C34.4615 37.3385 37.3385 34.4615 41 34.4615C44.6615 34.4615 47.5385 37.3385 47.5385 40.8692C47.5385 44.5308 44.6615 47.2769 41 47.2769ZM53.5539 33.2846C53.5539 34.0692 52.9 34.7231 52.1154 34.7231H48.4538C47.6692 34.7231 47.0154 34.0692 47.0154 33.2846V29.7538C47.0154 28.9692 47.6692 28.3154 48.4538 28.3154H52.1154C52.9 28.3154 53.5539 28.9692 53.5539 29.7538V33.2846Z" fill="#fff"/><defs><linearGradient id="paint_linear" x1="17" y1="71" x2="70" y2="16" gradientUnits="userSpaceOnUse"><stop stop-color="#EEA054"/><stop offset=".503" stop-color="#D64763"/><stop offset="1" stop-color="#B62A99"/></linearGradient></defs></svg>