<svg width="181" height="26" viewBox="0 0 181 26" fill="none" xmlns="http://www.w3.org/2000/svg"><path d="M12.0486 0.286133C14.646 0.286133 16.6478 0.917626 18.0537 2.18061C19.4835 3.4436 20.1984 5.17127 20.1984 7.36362C20.1984 9.98492 19.4001 11.9866 17.8035 13.3688C16.2307 14.7271 14.0265 15.4062 11.1907 15.4062H4.36343L3.72002 23.8778C3.67236 24.4259 3.46981 24.8667 3.11236 25.2003C2.75491 25.5101 2.30214 25.665 1.75405 25.665C1.20596 25.665 0.765111 25.4982 0.431492 25.1646C0.121703 24.831 -0.0212766 24.3782 0.00255318 23.8063L1.75405 2.03763C1.77788 1.46572 1.95661 1.03678 2.29023 0.750817C2.62385 0.441027 3.07661 0.286133 3.64853 0.286133H12.0486ZM10.9405 12.4394C14.7533 12.4394 16.6597 10.807 16.6597 7.54235C16.6597 4.68276 14.9916 3.25296 11.6554 3.25296H5.32854L4.61365 12.4394H10.9405Z" fill="#fff"/><path d="M33.123 7.68533C33.5758 7.63767 33.9332 7.73299 34.1953 7.97129C34.4813 8.20959 34.6243 8.55512 34.6243 9.00789C34.6243 10.1041 34.0285 10.6998 32.837 10.7951L31.8719 10.9024C30.2277 11.0692 29.0004 11.5458 28.1902 12.3322C27.4038 13.1186 26.951 14.2743 26.8319 15.7994L26.1527 23.9493C26.1051 24.545 25.9025 24.9859 25.5451 25.2718C25.1876 25.5339 24.7468 25.665 24.2225 25.665C23.6983 25.665 23.2693 25.522 22.9357 25.2361C22.6259 24.9501 22.4948 24.5212 22.5425 23.9493L23.7221 9.32959C23.7459 8.80533 23.9485 8.40023 24.3297 8.11427C24.711 7.82831 25.1519 7.68533 25.6523 7.68533C26.1289 7.68533 26.5102 7.82831 26.7961 8.11427C27.0821 8.3764 27.2132 8.76959 27.1893 9.29385L27.0821 10.7594C28.2736 8.92448 30.1562 7.91171 32.7298 7.72107L33.123 7.68533Z" fill="#fff"/><path d="M43.2547 25.7365C41.5628 25.7365 40.0853 25.391 38.8224 24.6999C37.5594 24.0088 36.5823 23.0199 35.8913 21.7331C35.2002 20.4463 34.8547 18.9569 34.8547 17.265C34.8547 15.3109 35.2121 13.6071 35.927 12.1534C36.6657 10.6998 37.6904 9.57981 39.0011 8.79342C40.3356 8.00703 41.8726 7.61384 43.6122 7.61384C45.3279 7.61384 46.8173 7.97129 48.0803 8.68619C49.3433 9.37725 50.3203 10.3662 51.0114 11.653C51.7024 12.916 52.048 14.4054 52.048 16.1211C52.048 18.0752 51.6786 19.779 50.9399 21.2326C50.225 22.6624 49.2003 23.7705 47.8658 24.5569C46.5552 25.3433 45.0181 25.7365 43.2547 25.7365ZM43.2905 22.8769C44.9347 22.8769 46.1977 22.2573 47.0794 21.0182C47.9611 19.779 48.402 18.1109 48.402 16.0139C48.402 14.2266 47.985 12.8683 47.1509 11.939C46.3407 10.9858 45.173 10.5092 43.6479 10.5092C41.9798 10.5092 40.7049 11.1288 39.8232 12.3679C38.9415 13.6071 38.5006 15.2752 38.5006 17.3722C38.5006 19.1833 38.9058 20.5535 39.716 21.4829C40.55 22.4122 41.7415 22.8769 43.2905 22.8769Z" fill="#fff"/><path d="M76.5494 7.61384C78.3605 7.61384 79.7307 8.12618 80.6601 9.15087C81.6133 10.1517 82.0899 11.6292 82.0899 13.5832C82.0899 14.0837 82.078 14.4649 82.0541 14.7271L81.3392 23.9493C81.2916 24.545 81.089 24.9859 80.7316 25.2718C80.3741 25.5339 79.9333 25.665 79.409 25.665C78.8847 25.665 78.4558 25.522 78.1222 25.2361C77.8124 24.9501 77.6813 24.5212 77.729 23.9493L78.4439 14.8701C78.4677 14.6794 78.4796 14.4054 78.4796 14.0479C78.4796 11.7126 77.455 10.5449 75.4056 10.5449C74.0711 10.5449 73.0107 10.9858 72.2243 11.8675C71.4617 12.7254 71.009 14.0003 70.866 15.6922L70.2226 23.9493C70.1749 24.545 69.9724 24.9859 69.6149 25.2718C69.2575 25.5339 68.8166 25.665 68.2923 25.665C67.7681 25.665 67.3391 25.522 67.0055 25.2361C66.6957 24.9501 66.5647 24.5212 66.6123 23.9493L67.3272 14.9058C67.3511 14.7152 67.363 14.4292 67.363 14.0479C67.363 12.8564 67.1008 11.9747 66.5766 11.4028C66.0762 10.8309 65.3017 10.5449 64.2532 10.5449C62.9187 10.5449 61.8702 10.9858 61.1076 11.8675C60.3451 12.7254 59.8923 14.0003 59.7493 15.6922L59.0702 23.9493C59.0225 24.545 58.8199 24.9859 58.4625 25.2718C58.105 25.5339 57.6642 25.665 57.1399 25.665C56.6157 25.665 56.1867 25.522 55.8531 25.2361C55.5433 24.9501 55.4123 24.5212 55.4599 23.9493L56.6395 9.32959C56.6633 8.80533 56.8659 8.40023 57.2472 8.11427C57.6523 7.82831 58.105 7.68533 58.6055 7.68533C59.1059 7.68533 59.4991 7.82831 59.7851 8.11427C60.071 8.3764 60.2021 8.76959 60.1782 9.29385L60.1068 10.4377C61.2983 8.55512 63.0974 7.61384 65.5042 7.61384C66.8149 7.61384 67.8991 7.88788 68.757 8.43597C69.6149 8.98406 70.2345 9.78236 70.6158 10.8309C71.2353 9.80619 72.0575 9.0198 73.0822 8.47172C74.1069 7.8998 75.2626 7.61384 76.5494 7.61384Z" fill="#fff"/><path d="M94.254 25.7365C92.5621 25.7365 91.0847 25.391 89.8217 24.6999C88.5587 24.0088 87.5817 23.0199 86.8906 21.7331C86.1995 20.4463 85.854 18.9569 85.854 17.265C85.854 15.3109 86.2114 13.6071 86.9263 12.1534C87.6651 10.6998 88.6897 9.57981 90.0004 8.79342C91.3349 8.00703 92.8719 7.61384 94.6115 7.61384C96.3272 7.61384 97.8166 7.97129 99.0796 8.68619C100.343 9.37725 101.32 10.3662 102.011 11.653C102.702 12.916 103.047 14.4054 103.047 16.1211C103.047 18.0752 102.678 19.779 101.939 21.2326C101.224 22.6624 100.2 23.7705 98.8651 24.5569C97.5545 25.3433 96.0175 25.7365 94.254 25.7365ZM94.2898 22.8769C95.9341 22.8769 97.197 22.2573 98.0787 21.0182C98.9605 19.779 99.4013 18.1109 99.4013 16.0139C99.4013 14.2266 98.9843 12.8683 98.1502 11.939C97.34 10.9858 96.1724 10.5092 94.6472 10.5092C92.9791 10.5092 91.7042 11.1288 90.8225 12.3679C89.9408 13.6071 89.5 15.2752 89.5 17.3722C89.5 19.1833 89.9051 20.5535 90.7153 21.4829C91.5493 22.4122 92.7408 22.8769 94.2898 22.8769Z" fill="#fff"/><path d="M117.968 25.7721C115.728 25.7721 113.774 25.2955 112.105 24.3423C110.437 23.3891 109.151 22.0189 108.245 20.2316C107.339 18.4205 106.887 16.2997 106.887 13.869C106.887 11.0809 107.387 8.63835 108.388 6.54132C109.413 4.44428 110.866 2.83576 112.749 1.71576C114.631 0.571919 116.824 0 119.326 0C121.066 0 122.65 0.238299 124.08 0.714899C125.534 1.1915 126.725 1.84682 127.655 2.68087C128.179 3.06215 128.441 3.55066 128.441 4.14641C128.441 4.55152 128.298 4.90897 128.012 5.21876C127.75 5.52855 127.428 5.68344 127.047 5.68344C126.713 5.68344 126.38 5.56429 126.046 5.32599C124.235 3.8247 122.019 3.07406 119.397 3.07406C116.633 3.07406 114.488 4.03917 112.963 5.9694C111.438 7.87579 110.676 10.5209 110.676 13.9048C110.676 16.7405 111.331 18.921 112.642 20.4461C113.976 21.9474 115.871 22.698 118.325 22.698C119.493 22.698 120.625 22.5074 121.721 22.1261C122.841 21.721 123.866 21.161 124.795 20.4461C125.129 20.2078 125.462 20.0886 125.796 20.0886C126.177 20.0886 126.475 20.2316 126.689 20.5176C126.928 20.7797 127.047 21.1133 127.047 21.5184C127.047 22.0903 126.809 22.5669 126.332 22.9482C125.331 23.8299 124.116 24.521 122.686 25.0214C121.256 25.5219 119.683 25.7721 117.968 25.7721Z" fill="#ED5736"/><path d="M132.328 25.6648C131.804 25.6648 131.375 25.5219 131.042 25.2359C130.732 24.9499 130.601 24.521 130.648 23.9491L132.436 1.78724C132.46 1.21533 132.662 0.786388 133.043 0.500429C133.425 0.21447 133.865 0.0714904 134.366 0.0714904C134.866 0.0714904 135.271 0.21447 135.581 0.500429C135.915 0.786388 136.07 1.21533 136.046 1.78724L134.259 23.9491C134.211 24.5448 134.008 24.9857 133.651 25.2716C133.294 25.5338 132.853 25.6648 132.328 25.6648Z" fill="#ED5736"/><path d="M140.985 25.6648C140.461 25.6648 140.032 25.5219 139.699 25.2359C139.389 24.9499 139.258 24.521 139.305 23.9491L140.485 9.36516C140.509 8.81708 140.711 8.40005 141.093 8.11409C141.474 7.82813 141.915 7.68515 142.415 7.68515C142.939 7.68515 143.356 7.82813 143.666 8.11409C143.976 8.40005 144.119 8.81708 144.095 9.36516L142.916 23.9491C142.868 24.5448 142.665 24.9857 142.308 25.2716C141.951 25.5338 141.51 25.6648 140.985 25.6648ZM142.88 4.18215C142.189 4.18215 141.641 3.99151 141.236 3.61023C140.831 3.22896 140.628 2.72853 140.628 2.10895C140.628 1.48937 140.831 1.00086 141.236 0.643408C141.641 0.26213 142.189 0.0714904 142.88 0.0714904C143.547 0.0714904 144.083 0.26213 144.488 0.643408C144.917 1.00086 145.132 1.48937 145.132 2.10895C145.132 2.72853 144.929 3.22896 144.524 3.61023C144.119 3.99151 143.571 4.18215 142.88 4.18215Z" fill="#ED5736"/><path d="M155.933 25.7363C154.242 25.7363 152.764 25.3908 151.501 24.6997C150.238 24.0087 149.261 23.0316 148.57 21.7686C147.879 20.4818 147.533 18.9925 147.533 17.3005C147.533 15.3465 147.903 13.6426 148.642 12.189C149.38 10.7354 150.441 9.61538 151.823 8.82899C153.205 8.01877 154.825 7.61367 156.684 7.61367C157.828 7.61367 158.9 7.76856 159.901 8.07835C160.926 8.38814 161.76 8.79325 162.403 9.29367C162.856 9.60346 163.082 10.0443 163.082 10.6162C163.082 11.0213 162.951 11.3788 162.689 11.6886C162.451 11.9984 162.153 12.1533 161.796 12.1533C161.581 12.1533 161.355 12.0818 161.116 11.9388C159.711 10.9856 158.269 10.509 156.791 10.509C155.028 10.509 153.67 11.1048 152.716 12.2962C151.763 13.4877 151.287 15.1558 151.287 17.3005C151.287 19.0401 151.716 20.3984 152.573 21.3755C153.431 22.3525 154.659 22.841 156.255 22.841C157.042 22.841 157.756 22.7338 158.4 22.5193C159.067 22.281 159.722 21.9235 160.366 21.4469C160.652 21.304 160.902 21.2325 161.116 21.2325C161.45 21.2325 161.724 21.3635 161.939 21.6257C162.153 21.8878 162.26 22.1976 162.26 22.555C162.26 23.1269 162.046 23.5559 161.617 23.8418C160.95 24.4376 160.104 24.9023 159.079 25.2359C158.078 25.5695 157.03 25.7363 155.933 25.7363Z" fill="#ED5736"/><path d="M179.825 22.9482C180.111 23.2342 180.254 23.5797 180.254 23.9848C180.254 24.4138 180.064 24.807 179.682 25.1644C179.325 25.5219 178.92 25.7006 178.467 25.7006C178.038 25.7006 177.657 25.5219 177.323 25.1644L169.424 17.3363L168.887 23.9848C168.84 24.5329 168.637 24.9499 168.28 25.2359C167.922 25.5219 167.493 25.6648 166.993 25.6648C166.469 25.6648 166.04 25.5099 165.706 25.2002C165.372 24.8904 165.229 24.4614 165.277 23.9133L167.029 1.78724C167.052 1.23916 167.255 0.822133 167.636 0.536174C168.018 0.250215 168.458 0.107235 168.959 0.107235C169.483 0.107235 169.9 0.26213 170.21 0.571919C170.52 0.857877 170.663 1.28682 170.639 1.85874L169.531 15.835L177.967 8.29282C178.3 7.9592 178.681 7.79239 179.11 7.79239C179.539 7.79239 179.909 7.9592 180.219 8.29282C180.552 8.60261 180.719 8.96006 180.719 9.36516C180.719 9.7941 180.54 10.1754 180.183 10.509L173.391 16.4784L179.825 22.9482Z" fill="#ED5736"/></svg>