<svg width="190" height="96" viewBox="0 0 190 96" fill="none" xmlns="http://www.w3.org/2000/svg"><path fill-rule="evenodd" clip-rule="evenodd" d="M176.349 41.211C169.848 42.5025 172.12 47.7921 178.991 47.3607C185.126 46.9755 186.223 42.5162 180.484 41.2917C178.897 40.9529 177.76 40.9307 176.349 41.211ZM162.291 43.0297C162.226 43.3045 161.827 45.1268 161.402 47.0796C160.978 49.0324 160.577 50.8691 160.511 51.1612L160.391 51.6922L159.687 51.0187C151.724 43.4054 134.684 55.4165 139.281 65.402C141.631 70.5056 151.301 71.7672 156.642 67.6668C157.164 67.2667 157.364 67.1937 157.271 67.438C157.196 67.6353 157.068 68.1532 156.986 68.589L156.839 69.3815H161.26C163.691 69.3815 165.733 69.2958 165.798 69.1913C165.895 69.0331 171.66 42.9046 171.66 42.6223C171.66 42.1707 162.398 42.5735 162.291 43.0297ZM90.9651 48.8742C90.662 48.9274 89.8186 49.0748 89.0911 49.2019C76.4716 51.4041 72.7605 66.9405 84.2406 69.5075C97.482 72.4684 108.233 66.699 108.253 56.6217C108.265 50.6925 100.479 47.2032 90.9651 48.8742ZM52.7696 49.3C51.1879 49.7003 49.9056 50.3441 48.6535 51.3664L47.6812 52.1602L47.8265 51.2843C47.9063 50.8023 48.0331 50.1836 48.1078 49.9089L48.2439 49.4096H43.6985C41.1983 49.4096 39.1529 49.4571 39.1529 49.515C39.1529 49.573 38.2104 53.9246 37.0584 59.1852C35.9064 64.446 34.9639 68.8921 34.9639 69.0659C34.9639 69.4234 43.8736 69.5508 44.0912 69.1962C44.1538 69.0943 44.7491 66.5541 45.4143 63.5512C46.9442 56.6454 47.3624 55.8421 49.6049 55.5037C52.7026 55.0361 52.8188 55.6022 51.169 63.1285C50.502 66.1709 49.9563 68.8247 49.9563 69.0255C49.9563 69.3544 50.3977 69.3846 54.3961 69.3306L58.8358 69.2705L60.0798 63.6054C61.6912 56.2666 62.1355 55.5348 64.9883 55.519C67.4505 55.5055 67.4748 55.7613 65.7485 63.5521C65.0661 66.6316 64.5078 69.203 64.5078 69.2663C64.5078 69.6378 73.7421 69.3677 73.8499 68.9931C74.0285 68.3735 76.6292 56.3967 76.87 55.0863C77.9909 48.9833 68.4242 46.5144 62.8256 51.4618C62.3192 51.9094 61.9757 52.0823 61.9208 51.9168C61.1138 49.48 56.8619 48.2641 52.7696 49.3ZM126.918 49.2072C125.168 49.553 123.271 50.2866 122.07 51.083L120.893 51.8633L121.021 51.2171C121.091 50.8618 121.214 50.3097 121.294 49.9904L121.439 49.4096H116.913H112.386L112.234 50.1308C112.15 50.5274 111.2 54.8926 110.122 59.8309C109.044 64.7693 108.162 68.9385 108.162 69.0956C108.162 69.4429 117.092 69.5186 117.304 69.1731C117.374 69.0586 117.913 66.7822 118.502 64.1147C120.049 57.1048 121.278 55.4012 124.791 55.4012C127.81 55.4012 128.05 56.6144 126.46 63.8337C125.855 66.5799 125.36 68.9516 125.36 69.1041C125.36 69.4562 134.294 69.5102 134.509 69.1593C134.897 68.528 137.486 55.8432 137.486 54.5748C137.486 50.2666 133.026 48.0014 126.918 49.2072ZM172.762 49.5075C172.762 49.5612 171.82 53.9111 170.668 59.1736C169.516 64.4362 168.573 68.8859 168.573 69.0617C168.573 69.4301 177.483 69.5505 177.707 69.1851C177.833 68.9805 182.022 49.9837 182.022 49.6184C182.022 49.4946 180.137 49.4096 177.392 49.4096C174.846 49.4096 172.762 49.4536 172.762 49.5075ZM96.7782 55.069C100.442 56.819 97.9648 63.2508 93.3128 64.0663C88.4872 64.912 86.1984 62.2255 88.0861 57.9307C89.37 55.0095 93.6814 53.59 96.7782 55.069ZM157.24 55.5374C160.179 56.941 158.705 62.5817 155.124 63.6347C150.132 65.1026 146.89 62.1232 149.07 58.0716C150.506 55.4012 154.416 54.1887 157.24 55.5374Z" fill="#000"/><path fill-rule="evenodd" clip-rule="evenodd" d="M22.2893 26.0046C6.14358 40.19 5.60404 40.7057 4.5457 42.966C1.69948 49.0445 7.88115 57.455 15.5599 57.9515C16.0323 57.9821 40.0002 39.3098 42.1104 37.2671C42.3419 37.043 42.0219 34.7981 40.3293 24.7663C39.1945 18.0411 38.2659 12.4722 38.2659 12.3912C38.2659 12.003 36.9323 13.1395 22.2893 26.0046ZM4.15362 53.0523C4.15362 53.5748 6.57279 65.0826 7.41955 68.5891C9.95163 79.0725 15.2492 82.5699 30.1409 83.59C32.1687 83.7287 32.2654 83.7158 32.1503 83.3196C32.084 83.0907 31.0863 78.1097 29.9334 72.251C28.0044 62.4486 27.801 61.5918 27.3841 61.5105C27.1349 61.462 25.7167 61.2626 24.2324 61.0673C14.8644 59.8343 8.54849 57.478 5.2871 53.9994C4.66358 53.3345 4.15362 52.9084 4.15362 53.0523Z" fill="#EC6722"/></svg>