<svg width="190" height="97" viewBox="0 0 190 97" fill="none" xmlns="http://www.w3.org/2000/svg"><path fill-rule="evenodd" clip-rule="evenodd" d="M176.512 41.1822C170.01 42.4872 172.283 47.8319 179.153 47.3961C185.288 47.0068 186.385 42.5011 180.646 41.2638C179.059 40.9215 177.922 40.899 176.512 41.1822ZM162.453 43.0199C162.388 43.2975 161.989 45.1388 161.564 47.112C161.141 49.0851 160.739 50.941 160.674 51.2361L160.553 51.7726L159.849 51.0921C151.886 43.3995 134.846 55.5357 139.443 65.6252C141.793 70.7821 151.463 72.0568 156.805 67.9136C157.326 67.5093 157.526 67.4356 157.433 67.6824C157.358 67.8818 157.23 68.4051 157.149 68.8455L157.001 69.6462H161.422C163.853 69.6462 165.896 69.5596 165.96 69.454C166.057 69.2941 171.822 42.8935 171.822 42.6083C171.822 42.152 162.56 42.5589 162.453 43.0199ZM91.1272 48.9252C90.8241 48.9791 89.9808 49.1279 89.2532 49.2564C76.6337 51.4816 72.9226 67.1797 84.4027 69.7735C97.6441 72.7653 108.395 66.9358 108.415 56.7535C108.427 50.7625 100.641 47.2369 91.1272 48.9252ZM52.9317 49.3555C51.35 49.76 50.0677 50.4105 48.8156 51.4435L47.8433 52.2455L47.9886 51.3605C48.0684 50.8735 48.1952 50.2484 48.27 49.9708L48.406 49.4663H43.8606C41.3604 49.4663 39.315 49.5143 39.315 49.5728C39.315 49.6313 38.3725 54.0283 37.2205 59.3437C36.0685 64.6593 35.126 69.1517 35.126 69.3273C35.126 69.6885 44.0357 69.8172 44.2533 69.4589C44.3159 69.356 44.9112 66.7894 45.5764 63.7552C47.1063 56.7774 47.5245 55.9658 49.767 55.6238C52.8647 55.1514 52.9809 55.7234 51.3311 63.3281C50.6641 66.4021 50.1184 69.0836 50.1184 69.2865C50.1184 69.6188 50.5598 69.6493 54.5582 69.5948L58.9979 69.534L60.2419 63.8099C61.8533 56.3947 62.2976 55.6552 65.1504 55.6393C67.6127 55.6256 67.6369 55.8842 65.9106 63.7561C65.2282 66.8676 64.6699 69.4659 64.6699 69.5298C64.6699 69.9051 73.9042 69.6322 74.012 69.2538C74.1906 68.6277 76.7914 56.5261 77.0321 55.2021C78.153 49.0356 68.5863 46.5409 62.9877 51.5399C62.4813 51.9921 62.1378 52.1668 62.0829 51.9995C61.2759 49.5374 57.024 48.3089 52.9317 49.3555ZM127.08 49.2618C125.33 49.6111 123.433 50.3524 122.232 51.1571L121.055 51.9455L121.183 51.2926C121.253 50.9336 121.377 50.3757 121.456 50.0531L121.601 49.4663H117.075H112.549L112.396 50.195C112.312 50.5957 111.362 55.0063 110.284 59.9961C109.206 64.9859 108.324 69.1986 108.324 69.3574C108.324 69.7083 117.254 69.7847 117.466 69.4356C117.536 69.3199 118.076 67.0199 118.664 64.3245C120.211 57.2416 121.44 55.5202 124.954 55.5202C127.972 55.5202 128.212 56.7461 126.622 64.0406C126.017 66.8154 125.522 69.2118 125.522 69.3659C125.522 69.7217 134.456 69.7762 134.672 69.4217C135.059 68.7838 137.648 55.9669 137.648 54.6852C137.648 50.3322 133.188 48.0434 127.08 49.2618ZM172.924 49.5652C172.924 49.6194 171.982 54.0146 170.83 59.332C169.678 64.6494 168.735 69.1455 168.735 69.323C168.735 69.6953 177.645 69.817 177.869 69.4477C177.995 69.241 182.184 50.0463 182.184 49.6773C182.184 49.5522 180.299 49.4663 177.554 49.4663C175.008 49.4663 172.924 49.5107 172.924 49.5652ZM96.9403 55.1846C100.604 56.9528 98.127 63.4516 93.4749 64.2756C88.6493 65.1301 86.3605 62.4157 88.2482 58.0761C89.5321 55.1245 93.8435 53.6902 96.9403 55.1846ZM157.403 55.6579C160.341 57.0761 158.867 62.7756 155.286 63.8395C150.295 65.3227 147.052 62.3123 149.232 58.2185C150.668 55.5202 154.578 54.2951 157.403 55.6579Z" fill="#313131"/><path fill-rule="evenodd" clip-rule="evenodd" d="M22.4504 25.8165C6.30471 40.1497 5.76518 40.6707 4.70683 42.9545C1.86062 49.0963 8.04228 57.5945 15.721 58.0962C16.1934 58.1271 40.1614 39.2603 42.2716 37.1963C42.503 36.9699 42.1831 34.7015 40.4904 24.5653C39.3556 17.77 38.427 12.1431 38.427 12.0612C38.427 11.6691 37.0934 12.8173 22.4504 25.8165ZM4.31476 53.1459C4.31476 53.6738 6.73392 65.3015 7.58068 68.8446C10.1128 79.4372 15.4103 82.971 30.3021 84.0017C32.3298 84.1418 32.4265 84.1288 32.3114 83.7285C32.2452 83.4972 31.2475 78.4644 30.0946 72.5446C28.1655 62.6401 27.9621 61.7743 27.5452 61.6922C27.2961 61.6432 25.8778 61.4417 24.3935 61.2444C15.0256 59.9986 8.70963 57.6177 5.44823 54.1029C4.82471 53.4311 4.31476 53.0005 4.31476 53.1459Z" fill="#313131"/></svg>