<svg width="50" height="50" viewBox="0 0 50 50" fill="none" xmlns="http://www.w3.org/2000/svg"><circle cx="25" cy="25" r="25" fill="#F59124"/><path d="M33.226 17.6971C31.2644 15.899 28.8942 15 25.9519 15C22.9279 15 20.3125 15.9808 18.1875 18.024C16.0625 20.0673 15 22.601 15 25.625C15 28.5673 15.9808 31.0192 18.024 33.1442C20.0673 35.2692 22.7644 36.25 26.2789 36.25C28.3221 36.25 30.3654 35.8413 32.4087 34.9423C33.0625 34.6971 33.3894 33.8798 33.1442 33.226C32.8991 32.5721 32.0817 32.2452 31.4279 32.4904C29.7115 33.226 27.9952 33.6346 26.3606 33.6346C23.7452 33.6346 21.7019 32.8173 20.2308 31.1827C18.7596 29.5481 18.024 27.6683 18.024 25.5433C18.024 23.1731 18.8413 21.2115 20.3125 19.6587C21.8654 18.1058 23.7452 17.2885 26.0337 17.2885C28.0769 17.2885 29.875 17.9423 31.3462 19.25C32.8173 20.5577 33.4712 22.1923 33.4712 24.1538C33.4712 25.4615 33.1442 26.6058 32.4904 27.5048C31.8365 28.4038 31.1827 28.8125 30.4471 28.8125C30.0385 28.8125 29.875 28.649 29.875 28.1587C29.875 27.8317 29.875 27.4231 29.9567 27.0144L30.7741 20.3942H27.9952L27.8317 21.0481C27.0962 20.476 26.3606 20.149 25.5433 20.149C24.2356 20.149 23.0914 20.7212 22.1106 21.7837C21.1298 22.8462 20.7212 24.2356 20.7212 25.8702C20.7212 27.5048 21.1298 28.8125 22.0289 29.875C22.8462 30.8558 23.9087 31.3462 25.0529 31.3462C26.1154 31.3462 27.0144 30.9375 27.75 30.0385C28.3221 30.8558 29.1394 31.3462 30.2837 31.3462C31.9183 31.3462 33.3077 30.6106 34.5337 29.2212C35.7596 27.8317 36.3317 26.1154 36.3317 24.0721C36.0865 21.6202 35.1058 19.4135 33.226 17.6971ZM26.7692 27.6683C26.2788 28.3221 25.7067 28.649 24.9712 28.649C24.4808 28.649 24.1539 28.4038 23.8269 27.9135C23.5 27.4231 23.4183 26.851 23.4183 26.1154C23.4183 25.2163 23.5817 24.4808 23.9904 23.9904C24.399 23.4183 24.8894 23.1731 25.4616 23.1731C25.9519 23.1731 26.4423 23.3365 26.851 23.8269C27.2596 24.2356 27.4231 24.8077 27.4231 25.4615C27.5048 26.2788 27.2596 27.0144 26.7692 27.6683Z" fill="#fff"/></svg>