<svg width="64" height="64" viewBox="0 0 64 64" fill="none" xmlns="http://www.w3.org/2000/svg"><path d="M34.5 26.029V46C34.5 47.3752 33.3831 48.5 32 48.5C30.6192 48.5 29.5 47.3755 29.5 46V26.029L22.1119 33.4332L22.1111 33.4341C21.1342 34.4085 19.552 34.4091 18.5764 33.4336L18.5764 33.4337L18.5724 33.4296C17.603 32.4378 17.5966 30.8639 18.5768 29.8861C18.5768 29.8861 18.5768 29.886 18.5769 29.886L29.8883 18.5665L29.8885 18.5664C30.4798 17.975 31.2701 17.7978 32 17.9124C32.7299 17.7978 33.5202 17.975 34.1115 18.5664L34.1117 18.5665L45.4231 29.886C45.4231 29.886 45.4232 29.8861 45.4232 29.8861C46.4034 30.8639 46.397 32.4378 45.4276 33.4296L45.424 33.4332C44.4501 34.4095 42.8656 34.4082 41.8889 33.4341L41.8881 33.4332L34.5 26.029ZM0.5 32C0.5 49.4038 14.6021 63.5 32 63.5C49.3979 63.5 63.5 49.4038 63.5 32C63.5 14.5962 49.3979 0.5 32 0.5C14.6021 0.5 0.5 14.5962 0.5 32Z" fill="#ED5736" stroke="#fff"/></svg>