<svg width="161" height="64" viewBox="0 0 161 64" fill="none" xmlns="http://www.w3.org/2000/svg"><path fill="#fff" d="M106.996 12H146.99599999999998V51H106.996z"/><path d="M131.112 18.5664L131.112 18.5665L142.423 29.886L131.112 18.5664ZM131.112 18.5664C130.52 17.975 129.73 17.7978 129 17.9124C128.27 17.7978 127.48 17.975 126.888 18.5664L126.888 18.5665L115.577 29.886C114.597 30.8638 114.603 32.4378 115.572 33.4296L115.576 33.4336C116.552 34.4091 118.134 34.4085 119.111 33.4341L119.112 33.4332L126.5 26.029V46C126.5 47.3755 127.619 48.5 129 48.5C130.383 48.5 131.5 47.3752 131.5 46V26.029L138.888 33.4332L138.889 33.4341C139.866 34.4082 141.45 34.4095 142.424 33.4332L142.428 33.4296M131.112 18.5664L142.428 33.4296M142.428 33.4296C143.397 32.438 143.403 30.8644 142.424 29.8866L142.428 33.4296ZM0.5 8C0.5 3.85786 3.85786 0.5 8 0.5H129C146.398 0.5 160.5 14.5962 160.5 32C160.5 49.4038 146.398 63.5 129 63.5H8C3.85787 63.5 0.5 60.1421 0.5 56V8Z" fill="#ED5736" stroke="#fff"/><path d="M33.838 24.38C34.1753 24.38 34.4467 24.49 34.652 24.71C34.8573 24.9153 34.96 25.1867 34.96 25.524V38.966C34.96 39.3033 34.8573 39.582 34.652 39.802C34.4467 40.0073 34.1753 40.11 33.838 40.11C33.5007 40.11 33.2293 40.0073 33.024 39.802C32.8187 39.5967 32.716 39.318 32.716 38.966V33.048H24.048V38.966C24.048 39.3033 23.9453 39.582 23.74 39.802C23.5347 40.0073 23.2633 40.11 22.926 40.11C22.5887 40.11 22.3173 40.0073 22.112 39.802C21.9067 39.5967 21.804 39.318 21.804 38.966V25.524C21.804 25.1867 21.9067 24.9153 22.112 24.71C22.3173 24.49 22.5887 24.38 22.926 24.38C23.2633 24.38 23.5347 24.49 23.74 24.71C23.9453 24.9153 24.048 25.1867 24.048 25.524V31.2H32.716V25.524C32.716 25.1867 32.8187 24.9153 33.024 24.71C33.2293 24.49 33.5007 24.38 33.838 24.38ZM42.8078 29C44.2305 29 45.2865 29.3593 45.9758 30.078C46.6798 30.7967 47.0318 31.8893 47.0318 33.356V39.054C47.0318 39.3913 46.9365 39.6553 46.7458 39.846C46.5551 40.022 46.2911 40.11 45.9538 40.11C45.6311 40.11 45.3745 40.0147 45.1838 39.824C44.9931 39.6333 44.8978 39.3767 44.8978 39.054V38.24C44.6191 38.856 44.2011 39.3327 43.6438 39.67C43.1011 39.9927 42.4631 40.154 41.7298 40.154C41.0258 40.154 40.3805 40.0147 39.7938 39.736C39.2218 39.4427 38.7671 39.0467 38.4298 38.548C38.0925 38.0493 37.9238 37.4847 37.9238 36.854C37.9091 36.062 38.1071 35.446 38.5178 35.006C38.9285 34.5513 39.5958 34.2287 40.5198 34.038C41.4438 33.8327 42.7271 33.73 44.3698 33.73H44.8758V33.092C44.8758 32.2707 44.7071 31.6767 44.3698 31.31C44.0325 30.9433 43.4898 30.76 42.7418 30.76C42.2285 30.76 41.7445 30.826 41.2898 30.958C40.8351 31.09 40.3365 31.2807 39.7938 31.53C39.3978 31.75 39.1191 31.86 38.9578 31.86C38.7378 31.86 38.5545 31.7793 38.4078 31.618C38.2758 31.4567 38.2098 31.2513 38.2098 31.002C38.2098 30.782 38.2685 30.5913 38.3858 30.43C38.5178 30.254 38.7231 30.0853 39.0018 29.924C39.5151 29.6453 40.1165 29.4253 40.8058 29.264C41.4951 29.088 42.1625 29 42.8078 29ZM42.1258 38.504C42.9325 38.504 43.5925 38.2327 44.1058 37.69C44.6191 37.1327 44.8758 36.4213 44.8758 35.556V34.984H44.4798C43.3358 34.984 42.4558 35.0353 41.8398 35.138C41.2238 35.2407 40.7838 35.4167 40.5198 35.666C40.2558 35.9007 40.1238 36.2453 40.1238 36.7C40.1238 37.228 40.3145 37.6607 40.6958 37.998C41.0771 38.3353 41.5538 38.504 42.1258 38.504ZM51.1713 40C50.8193 40 50.5406 39.9047 50.3353 39.714C50.1299 39.5233 50.0273 39.2593 50.0273 38.922V30.408C50.0273 30.0707 50.1226 29.7993 50.3133 29.594C50.5186 29.374 50.7826 29.264 51.1053 29.264H55.0433C56.2313 29.264 57.1553 29.4987 57.8153 29.968C58.4899 30.4373 58.8273 31.1193 58.8273 32.014C58.8273 32.542 58.6733 33.0333 58.3653 33.488C58.0573 33.9427 57.5879 34.2727 56.9573 34.478C57.6319 34.61 58.1599 34.896 58.5413 35.336C58.9226 35.7613 59.1133 36.3113 59.1133 36.986C59.1133 37.514 58.9666 38.0127 58.6733 38.482C58.3799 38.9367 57.9326 39.3033 57.3313 39.582C56.7299 39.8607 55.9893 40 55.1093 40H51.1713ZM54.7573 33.796C55.3293 33.796 55.7839 33.6567 56.1213 33.378C56.4586 33.0993 56.6273 32.718 56.6273 32.234C56.6273 31.2953 55.9819 30.826 54.6913 30.826H52.2493V33.796H54.7573ZM54.8013 38.438C56.1799 38.438 56.8693 37.9173 56.8693 36.876C56.8693 36.3333 56.6786 35.93 56.2973 35.666C55.9159 35.402 55.3879 35.27 54.7133 35.27H52.2493V38.438H54.8013ZM69.9694 37.294C70.1747 37.294 70.3434 37.3747 70.4754 37.536C70.6074 37.6973 70.6734 37.9027 70.6734 38.152C70.6734 38.5773 70.4094 38.9367 69.8814 39.23C69.3681 39.5233 68.8034 39.7507 68.1874 39.912C67.5861 40.0733 67.0067 40.154 66.4494 40.154C64.7481 40.154 63.4061 39.6627 62.4234 38.68C61.4407 37.6827 60.9494 36.326 60.9494 34.61C60.9494 33.51 61.1621 32.5347 61.5874 31.684C62.0274 30.8333 62.6361 30.1733 63.4134 29.704C64.2054 29.2347 65.1001 29 66.0974 29C67.5347 29 68.6714 29.462 69.5074 30.386C70.3434 31.31 70.7614 32.5567 70.7614 34.126C70.7614 34.7127 70.4974 35.006 69.9694 35.006H63.1714C63.3181 37.2793 64.4107 38.416 66.4494 38.416C66.9921 38.416 67.4614 38.3427 67.8574 38.196C68.2534 38.0493 68.6714 37.8587 69.1114 37.624C69.1554 37.5947 69.2727 37.536 69.4634 37.448C69.6687 37.3453 69.8374 37.294 69.9694 37.294ZM66.1414 30.628C65.2907 30.628 64.6087 30.8993 64.0954 31.442C63.5821 31.9847 63.2741 32.7473 63.1714 33.73H68.8474C68.8034 32.7327 68.5467 31.97 68.0774 31.442C67.6227 30.8993 66.9774 30.628 66.1414 30.628ZM78.9739 29C79.8979 29 80.7193 29.2347 81.4379 29.704C82.1713 30.1733 82.7359 30.8333 83.1319 31.684C83.5426 32.5347 83.7479 33.5173 83.7479 34.632C83.7479 35.732 83.5499 36.7 83.1539 37.536C82.7579 38.372 82.1933 39.0173 81.4599 39.472C80.7413 39.9267 79.9126 40.154 78.9739 40.154C78.1673 40.154 77.4559 39.9853 76.8399 39.648C76.2239 39.296 75.7546 38.7973 75.4319 38.152V43.058C75.4319 43.366 75.3293 43.608 75.1239 43.784C74.9333 43.9747 74.6766 44.07 74.3539 44.07C74.0166 44.07 73.7379 43.9747 73.5179 43.784C73.3126 43.5933 73.2099 43.3367 73.2099 43.014V30.122C73.2099 29.7993 73.3126 29.5427 73.5179 29.352C73.7233 29.1467 73.9946 29.044 74.3319 29.044C74.6546 29.044 74.9186 29.1467 75.1239 29.352C75.3293 29.5427 75.4319 29.7993 75.4319 30.122V31.024C75.7546 30.3787 76.2239 29.88 76.8399 29.528C77.4559 29.176 78.1673 29 78.9739 29ZM78.4459 38.394C79.4139 38.394 80.1619 38.0713 80.6899 37.426C81.2179 36.766 81.4819 35.8347 81.4819 34.632C81.4819 33.4147 81.2106 32.4687 80.6679 31.794C80.1399 31.1193 79.3993 30.782 78.4459 30.782C77.4779 30.782 76.7299 31.112 76.2019 31.772C75.6886 32.432 75.4319 33.3707 75.4319 34.588C75.4319 35.8053 75.6886 36.744 76.2019 37.404C76.7299 38.064 77.4779 38.394 78.4459 38.394ZM95.0351 38.328C95.2551 38.548 95.3651 38.8047 95.3651 39.098C95.3651 39.3767 95.2625 39.6187 95.0571 39.824C94.8665 40.0147 94.6318 40.11 94.3531 40.11C94.0745 40.11 93.8178 39.9853 93.5831 39.736L90.2171 35.952L86.8731 39.736C86.6385 39.9853 86.3818 40.11 86.1031 40.11C85.8245 40.11 85.5825 40.0073 85.3771 39.802C85.1865 39.5967 85.0911 39.3547 85.0911 39.076C85.0911 38.7973 85.1938 38.548 85.3991 38.328L88.8751 34.5L85.5751 30.826C85.3551 30.5767 85.2451 30.3273 85.2451 30.078C85.2451 29.7993 85.3478 29.5647 85.5531 29.374C85.7585 29.1687 85.9931 29.066 86.2571 29.066C86.5358 29.066 86.7925 29.1907 87.0271 29.44L90.2171 33.048L93.4071 29.44C93.6418 29.1907 93.9058 29.066 94.1991 29.066C94.4631 29.066 94.6978 29.1687 94.9031 29.374C95.1085 29.5647 95.2111 29.7993 95.2111 30.078C95.2111 30.3567 95.1011 30.606 94.8811 30.826L91.5811 34.5L95.0351 38.328Z" fill="#fff"/></svg>