<svg width="190" height="97" viewBox="0 0 190 97" fill="none" xmlns="http://www.w3.org/2000/svg"><g clip-path="url(#clip0_27:421)"><path d="M120.669 48.1991C120.647 47.8357 120.605 47.4739 120.541 47.1155C120.453 46.3774 120.303 45.648 120.093 44.9352C118.425 39.6731 113.938 36.2661 108.682 36.2661C108.146 36.277 107.61 36.3205 107.079 36.3961C100.346 37.2934 95.7313 43.3878 96.6279 50.3165C97.4617 56.6016 102.462 60.9036 108.617 60.9036C109.153 60.8926 109.688 60.8492 110.219 60.7736C113.49 60.39 116.374 58.9791 118.553 56.283C118.621 56.2183 118.669 56.1357 118.692 56.0449C118.715 55.954 118.712 55.8585 118.683 55.7694C118.647 55.596 118.557 55.4388 118.425 55.3207C117.656 54.8748 116.864 54.4683 116.054 54.1027C115.861 53.9749 115.668 53.9098 115.605 53.8448C115.452 53.7497 115.272 53.705 115.092 53.717C114.993 53.7187 114.895 53.7427 114.806 53.7874C114.717 53.832 114.64 53.8961 114.579 53.9749C113.316 55.4439 111.561 56.4017 109.643 56.6688C109.304 56.7208 108.96 56.7426 108.617 56.7338C105.347 56.7338 102.014 54.5513 101.052 51.5323V51.4803L101.117 51.4175C102.379 50.904 103.729 50.6419 105.091 50.6459C105.371 50.6353 105.651 50.6571 105.925 50.711C106.575 50.776 107.207 50.8388 107.911 50.9038C109.29 51.1191 110.684 51.2264 112.08 51.2246C113.021 51.2238 113.962 51.1594 114.895 51.0317C118.614 50.3252 120.151 49.235 120.151 49.235C120.729 48.9793 120.664 48.7214 120.664 48.2078L120.669 48.1991ZM116.433 46.669C115.615 46.9099 114.779 47.0817 113.934 47.1826C113.36 47.2638 112.781 47.3065 112.201 47.3105C111.066 47.31 109.931 47.2456 108.803 47.1176H108.738C107.655 47.0548 106.687 46.9898 105.726 46.9898C105.083 46.9967 104.441 47.0394 103.803 47.1176C102.706 47.2382 101.629 47.4967 100.598 47.887V47.7591C100.918 44.1658 103.995 41.0233 107.649 40.5746C107.988 40.5206 108.332 40.4989 108.675 40.5096C112.14 40.5096 115.469 43.1407 116.496 46.604V46.669H116.433Z" fill="#005992"/><path d="M179.397 37.6797C179.397 37.6038 179.383 37.5284 179.354 37.4581C179.325 37.3878 179.283 37.3239 179.229 37.2701C179.176 37.2162 179.112 37.1736 179.042 37.1446C178.972 37.1156 178.897 37.1008 178.821 37.1011H175.743C175.667 37.1008 175.592 37.1156 175.522 37.1445C175.451 37.1735 175.388 37.2161 175.334 37.2699C175.28 37.3237 175.237 37.3876 175.208 37.458C175.18 37.5283 175.165 37.6037 175.165 37.6797V59.749C175.165 59.825 175.18 59.9003 175.209 59.9705C175.238 60.0407 175.28 60.1045 175.334 60.1581C175.388 60.2117 175.452 60.2541 175.522 60.2829C175.592 60.3116 175.667 60.3261 175.743 60.3255H178.821C178.896 60.3258 178.971 60.3111 179.041 60.2822C179.111 60.2534 179.175 60.2109 179.229 60.1573C179.282 60.1037 179.325 60.0401 179.353 59.97C179.382 59.8999 179.397 59.8248 179.397 59.749V37.6797Z" fill="#005992"/><path d="M177.277 29.2095C176.72 29.2095 176.176 29.3747 175.713 29.6843C175.25 29.9939 174.889 30.4339 174.676 30.9487C174.463 31.4636 174.407 32.03 174.516 32.5766C174.625 33.1231 174.893 33.6251 175.287 34.0192C175.68 34.4132 176.182 34.6815 176.728 34.7902C177.274 34.8989 177.84 34.8431 178.355 34.6299C178.869 34.4167 179.309 34.0555 179.618 33.5922C179.927 33.1289 180.093 32.5842 180.093 32.0269C180.028 30.486 178.811 29.2095 177.277 29.2095Z" fill="#005992"/><path d="M136.059 60.9038H136.635C138.186 60.9196 139.725 60.6205 141.157 60.0245C142.59 59.4285 143.887 58.548 144.97 57.4362C147.214 55.1909 148.435 52.0484 148.435 48.7108C148.435 41.7192 143.049 36.2642 136.191 36.2642C130.614 36.2642 125.934 39.9225 124.46 45.3667C124.202 46.2639 123.946 48.6393 123.946 51.0124V68.3354C123.946 68.4112 123.961 68.4863 123.99 68.5563C124.018 68.6264 124.061 68.6901 124.114 68.7437C124.168 68.7973 124.232 68.8397 124.302 68.8686C124.372 68.8975 124.447 68.9122 124.522 68.9119H127.6C127.676 68.9125 127.751 68.898 127.821 68.8692C127.891 68.8405 127.955 68.7981 128.009 68.7444C128.063 68.6908 128.106 68.6271 128.134 68.5568C128.163 68.4866 128.178 68.4114 128.178 68.3354V57.4384L128.371 57.5662C130.447 59.5728 133.18 60.7585 136.063 60.9038H136.059ZM136.191 40.5012C140.615 40.5012 144.011 44.0945 144.011 48.778C144.011 53.4614 140.743 56.9247 136.384 56.9247C134.272 56.9575 132.229 56.1769 130.677 54.7445C129.14 53.2685 128.295 51.2161 128.295 48.9058C128.36 44.2224 131.886 40.5012 136.18 40.5012" fill="#005992"/><path d="M80.7345 60.9038H81.3106C82.862 60.9196 84.4006 60.6205 85.8333 60.0245C87.266 59.4285 88.563 58.548 89.6461 57.4362C91.8897 55.1909 93.1111 52.0484 93.1111 48.7108C93.1111 41.7192 87.7274 36.2642 80.8666 36.2642C75.2901 36.2642 70.6101 39.9225 69.1353 45.3667C68.8798 46.2639 68.6221 48.6393 68.6221 51.0124V68.3354C68.6218 68.4114 68.6366 68.4866 68.6655 68.5568C68.6945 68.6271 68.7371 68.6908 68.7909 68.7444C68.8447 68.7981 68.9086 68.8405 68.9788 68.8692C69.0491 68.898 69.1244 68.9125 69.2003 68.9119H72.2777C72.3534 68.9122 72.4284 68.8975 72.4985 68.8686C72.5685 68.8397 72.6321 68.7973 72.6857 68.7437C72.7392 68.6901 72.7816 68.6264 72.8105 68.5563C72.8393 68.4863 72.854 68.4112 72.8537 68.3354V57.4384L72.9815 57.5662C74.5841 59.1072 77.4059 60.7738 80.7388 60.9038H80.7345ZM80.8666 40.5012C85.291 40.5012 88.6889 44.0945 88.6889 48.778C88.6889 53.4614 85.4188 56.9247 81.0594 56.9247C78.9481 56.9575 76.9051 56.1769 75.3529 54.7445C73.8153 53.2685 72.9707 51.2161 72.9707 48.9058C73.0356 44.2224 76.5613 40.5012 80.8558 40.5012" fill="#005992"/><path d="M151.443 57.0546C154.137 59.4906 157.022 60.9037 160.868 60.9037H161.004C167.545 60.8386 170.492 57.2453 170.492 53.717C170.492 48.8406 165.877 47.4948 164.467 47.174C164.017 47.109 163.569 46.9811 163.055 46.9161C161.908 46.7283 160.774 46.4713 159.657 46.1467C158.889 45.9538 156.452 45.1216 156.452 43.2599C156.452 41.2075 158.696 40.1174 160.812 40.1174C162.607 40.1174 164.082 40.4381 165.94 41.9119C166.098 42.0613 166.302 42.1523 166.518 42.1698C166.725 42.1649 166.926 42.0976 167.094 41.9769C167.835 41.3983 168.541 40.7774 169.21 40.1174C169.28 40.0409 169.332 39.9504 169.364 39.8519C169.396 39.7533 169.406 39.6491 169.394 39.5464C169.381 39.4436 169.347 39.3446 169.294 39.2562C169.24 39.1677 169.168 39.0919 169.082 39.0338C166.581 37.0464 164.147 36.2163 160.684 36.2163C155.748 36.2163 152.021 39.3588 152.021 43.585C152.021 46.9204 154.778 49.2958 159.714 50.258L162.791 50.8302C164.842 51.216 165.996 52.3061 165.931 53.782C165.866 55.2579 164.073 56.7967 161.124 56.7967C158.687 56.7967 156.576 55.8344 154.778 54.2306C154.717 54.1527 154.639 54.0894 154.55 54.0452C154.462 54.001 154.364 53.977 154.265 53.9749C154.097 53.9819 153.938 54.0497 153.817 54.1656C153.624 54.2957 151.573 55.9623 151.315 56.1552C151.268 56.1932 151.232 56.2427 151.21 56.2989C151.187 56.355 151.18 56.416 151.188 56.4759C151.19 56.5845 151.213 56.6916 151.257 56.7909C151.301 56.8903 151.364 56.9799 151.443 57.0546Z" fill="#005992"/><path d="M183.756 55.7695C184.264 55.7691 184.761 55.9194 185.183 56.2013C185.605 56.4832 185.934 56.8842 186.129 57.3534C186.324 57.8227 186.375 58.3391 186.276 58.8374C186.177 59.3358 185.933 59.7936 185.574 60.153C185.215 60.5124 184.758 60.7572 184.26 60.8564C183.762 60.9557 183.246 60.905 182.777 60.7107C182.308 60.5164 181.907 60.1872 181.625 59.7648C181.343 59.3424 181.192 58.8458 181.192 58.3377C181.255 56.9247 182.347 55.7695 183.756 55.7695ZM183.756 60.4552C184.316 60.4501 184.851 60.2254 185.247 59.8294C185.643 59.4334 185.867 58.8977 185.872 58.3377C185.875 58.0589 185.822 57.7822 185.717 57.524C185.612 57.2658 185.456 57.0312 185.259 56.834C185.062 56.6368 184.828 56.481 184.57 56.3756C184.312 56.2702 184.035 56.2174 183.756 56.2203C183.197 56.2254 182.662 56.4501 182.266 56.8461C181.87 57.2421 181.646 57.7777 181.641 58.3377C181.706 59.4994 182.602 60.4552 183.756 60.4552ZM184.205 58.7214C184.371 58.6724 184.517 58.5711 184.621 58.4325C184.725 58.2939 184.782 58.1254 184.783 57.952C184.792 57.8402 184.776 57.7278 184.737 57.6225C184.699 57.5173 184.638 57.4217 184.558 57.3424C184.479 57.2631 184.384 57.2019 184.278 57.1631C184.173 57.1243 184.061 57.1088 183.949 57.1176H182.923V59.6836H183.436V58.7864H183.629L184.278 59.6836H184.928L184.205 58.7214ZM183.884 57.5662C183.967 57.5718 184.046 57.6074 184.105 57.6664C184.164 57.7253 184.199 57.8037 184.205 57.887C184.207 57.9297 184.201 57.9726 184.186 58.0126C184.17 58.0527 184.147 58.0891 184.117 58.1194C184.086 58.1497 184.05 58.1732 184.01 58.1884C183.97 58.2037 183.927 58.2102 183.884 58.2077H183.436V57.5575L183.884 57.5662Z" fill="#005992"/><path d="M51.0511 68.0882C47.1963 71.9454 42.2852 74.572 36.9387 75.636C31.5923 76.6999 26.0507 76.1535 21.0146 74.0657C15.9785 71.9779 11.6741 68.4425 8.64575 63.9066C5.61737 59.3707 4.00098 54.038 4.00098 48.5828C4.00098 43.1276 5.61737 37.7949 8.64575 33.2591C11.6741 28.7232 15.9785 25.1878 21.0146 23.1C26.0507 21.0122 31.5923 20.4658 36.9387 21.5297C42.2852 22.5937 47.1963 25.2203 51.0511 29.0774C53.6124 31.6379 55.6443 34.6785 57.0307 38.0254C58.417 41.3723 59.1306 44.9598 59.1306 48.5828C59.1306 52.2059 58.417 55.7934 57.0307 59.1403C55.6443 62.4872 53.6124 65.5278 51.0511 68.0882Z" fill="#fff"/><path d="M53.5517 34.342C54.0867 36.0893 54.3668 37.9047 54.3833 39.732C54.3833 45.8264 51.3709 51.1513 46.8187 54.5518C38.9336 60.3904 27.3951 60.3904 11.4971 65.3881C14.9335 69.5233 19.5604 72.4975 24.7473 73.9054C29.9341 75.3133 35.4286 75.0865 40.482 73.2559C45.5354 71.4252 49.9018 68.0798 52.9863 63.6754C56.0707 59.2711 57.7232 54.0221 57.7184 48.6438C57.7322 43.5741 56.2856 38.6079 53.5517 34.3398" fill="#005992"/><path d="M47.2675 27.6059C43.3804 24.6773 38.7537 22.8926 33.9082 22.4524C29.0626 22.0122 24.1905 22.934 19.8399 25.1141C15.4894 27.2943 11.8332 30.6462 9.28277 34.7928C6.7323 38.9393 5.3888 43.7159 5.40344 48.585C5.39328 54.1791 7.19316 59.6261 10.5338 64.1113C19.2079 61.5646 27.1099 56.8924 33.5241 50.518C39.9384 44.1436 44.6621 36.2684 47.2675 27.6059Z" fill="#ED1A38"/></g><defs><clipPath id="clip0_27:421"><path fill="#fff" transform="translate(3.837)" d="M0 0H182.323V97H0z"/></clipPath></defs></svg>