<svg width="79" height="53" viewBox="0 0 79 53" fill="none" xmlns="http://www.w3.org/2000/svg"><path fill="#EDEDED" d="M0 0H79V53H0z"/><path d="M56.716 30.884V27.122H53.206V25.898H56.716V22.136H58.084V25.898H61.594V27.122H58.084V30.884H56.716ZM65.943 32L70.749 20.732H65.385V23.072H64.035V19.436H72.279V20.768L67.563 32H65.943Z" fill="#111"/><mask id="mask0_204:124" style="mask-type:alpha" maskUnits="userSpaceOnUse" x="15" y="14" width="32" height="24"><path fill="#fff" d="M15 14H47V38H15z"/></mask><g mask="url(#mask0_204:124)"><path fill-rule="evenodd" clip-rule="evenodd" d="M15 14V38H47V14H15Z" fill="#3D58DB"/><mask id="mask1_204:124" style="mask-type:alpha" maskUnits="userSpaceOnUse" x="15" y="14" width="32" height="24"><path fill-rule="evenodd" clip-rule="evenodd" d="M15 14V38H47V14H15Z" fill="#fff"/></mask><g mask="url(#mask1_204:124)" fill-rule="evenodd" clip-rule="evenodd"><path d="M15 14V22H47V14H15Z" fill="#F7FCFF"/><path d="M15 30V38H47V30H15Z" fill="#C51918"/></g></g></svg>