<svg width="190" height="97" viewBox="0 0 190 97" fill="none" xmlns="http://www.w3.org/2000/svg"><path fill-rule="evenodd" clip-rule="evenodd" d="M28.645 37.2554C24.667 41.9997 20.7823 47.4103 18.2275 52.6H21.9528C23.1543 50.1794 26.8135 45.3382 28.645 43.2275V37.2554Z" fill="#313131"/><path fill-rule="evenodd" clip-rule="evenodd" d="M28.6455 47.5688C27.9533 48.479 25.6474 51.7168 25.2041 52.6037H28.5833C28.6455 52.4875 28.6455 47.5688 28.6455 47.5688Z" fill="#313131"/><path fill-rule="evenodd" clip-rule="evenodd" d="M28.6473 28.6382H5.00098V52.6002H15.5312C19.0309 45.9968 23.7711 39.9898 28.6318 34.7846L28.6473 28.6382Z" fill="#313131"/><path fill-rule="evenodd" clip-rule="evenodd" d="M8.72363 78.5102H10.839C12.6666 71.4381 16.283 62.1314 20.5293 54.9238H16.9946C12.8066 62.4722 10.4268 70.559 8.72363 78.5102Z" fill="#313131"/><path fill-rule="evenodd" clip-rule="evenodd" d="M13.7432 78.5102H16.1735C18.7594 70.8378 22.0064 62.3793 27.3492 54.9238H23.7834C18.9538 62.5574 16.0452 70.9656 13.7432 78.5102Z" fill="#313131"/><path fill-rule="evenodd" clip-rule="evenodd" d="M5.00098 78.5102H5.34706C6.22976 73.1345 9.86168 62.5381 14.248 54.9238H5.00098V78.5102Z" fill="#313131"/><path fill-rule="evenodd" clip-rule="evenodd" d="M18.7314 78.5102H22.305C24.2882 74.4243 26.1197 70.1756 28.6473 66.0625V58.2275C24.086 64.7419 21.1929 72.4413 18.7314 78.5102Z" fill="#313131"/><path fill-rule="evenodd" clip-rule="evenodd" d="M25.0752 78.5102H28.5749L28.6371 71.9727C26.9067 74.4901 25.989 76.8874 25.0752 78.5102Z" fill="#313131"/><path fill-rule="evenodd" clip-rule="evenodd" d="M46.4852 26.1518L45.5675 25.8381C43.9576 27.0658 42.0678 28.5724 42.0678 28.5724H39.1591C42.2233 24.986 49.075 19.8931 52.7691 17.3137L51.9914 17C45.0464 21.5895 37.6037 26.6824 30.9932 34.6104V40.3927C35.36 35.1448 40.8312 30.5554 46.4852 26.1518Z" fill="#313131"/><path fill-rule="evenodd" clip-rule="evenodd" d="M56.3 26.342L55.2617 26.0941C53.9401 26.7946 52.6921 27.625 51.5365 28.5728H48.8495C49.8605 27.349 54.6318 24.3939 54.6318 24.3939L53.5546 23.9214C44.943 29.4668 37.3204 36.4043 31.001 44.4481V49.696C37.9926 40.4008 45.377 33.3869 56.3 26.342Z" fill="#313131"/><path fill-rule="evenodd" clip-rule="evenodd" d="M38.152 26.1208L37.172 25.6831C37.172 25.6831 34.8039 27.5383 33.5712 28.6382H30.9854V32.4104C32.6419 30.5553 34.975 28.5104 38.152 26.1208Z" fill="#313131"/><path fill-rule="evenodd" clip-rule="evenodd" d="M57.5248 36.5622L56.8288 35.652C56.1988 36.1245 55.1917 36.8449 54.5579 37.3174V33.2275C55.5067 32.4529 57.6687 30.8689 59.3252 29.769L58.2287 29.25C48.5656 35.4467 38.5914 44.1222 32.7158 52.6156H38.7781C44.747 45.6171 50.9998 40.8999 57.5248 36.5622Z" fill="#313131"/><path fill-rule="evenodd" clip-rule="evenodd" d="M58.8293 43.1037C57.5655 43.8783 55.8001 45.3345 54.6608 46.1517L54.6296 44.3314C54.6296 44.3314 58.1993 41.69 60.3769 40.3345L59.8598 39.4863C54.338 42.972 48.9057 47.5072 43.415 52.6002H49.1623C52.662 49.3934 55.4424 46.5003 59.0743 44.0138L58.8293 43.1037Z" fill="#313131"/><path fill-rule="evenodd" clip-rule="evenodd" d="M58.102 49.1725L57.3243 48.3979C55.8972 49.7496 54.2135 51.353 52.8408 52.6117H54.7851C55.756 51.3436 56.8689 50.1898 58.102 49.1725Z" fill="#313131"/><path fill-rule="evenodd" clip-rule="evenodd" d="M30.9502 54.9277L30.9813 62.4723C32.7533 59.8207 34.7143 57.2993 36.8491 54.9277H30.9502Z" fill="#313131"/><path fill-rule="evenodd" clip-rule="evenodd" d="M30.9854 68.0997V78.3863C34.6484 70.6791 40.5162 61.4033 47.0879 54.9277H41.3717C37.6153 58.793 33.4196 64.4242 30.9854 68.0997Z" fill="#313131"/><path fill-rule="evenodd" clip-rule="evenodd" d="M50.7444 54.9275C43.9589 62.5379 38.2116 70.1793 34.7041 78.51H54.6291V54.9275C54.6602 54.8346 50.7444 54.9275 50.7444 54.9275Z" fill="#313131"/><path fill-rule="evenodd" clip-rule="evenodd" d="M62.0986 77.2941V65.9463H68.8336V66.8293H63.3663V77.2941H62.0986Z" fill="#313131"/><path fill-rule="evenodd" clip-rule="evenodd" d="M71.7222 80.1683H70.5557V68.9367H71.6872V69.6919C71.9622 69.3872 72.2986 69.1438 72.6745 68.9776C73.0505 68.8115 73.4574 68.7262 73.8687 68.7276C76.8201 68.7276 77.1118 71.1172 77.1118 72.9065C77.1118 74.6958 77.1118 77.5037 73.9737 77.5037C73.5559 77.5296 73.1376 77.4628 72.7489 77.308C72.3602 77.1533 72.0109 76.9146 71.7261 76.609V80.1644L71.7222 80.1683ZM73.8571 76.733C75.988 76.733 75.9724 74.2969 75.9724 73.1931C75.9724 72.0893 75.9724 69.5021 73.8998 69.5021C71.5395 69.5021 71.6756 71.8027 71.6756 73.073C71.6756 74.3433 71.5667 76.733 73.8571 76.733Z" fill="#313131"/><path fill-rule="evenodd" clip-rule="evenodd" d="M78.6328 79.3663C79.3366 79.3973 80.2154 79.4554 80.577 78.8551C80.8421 78.3636 81.0508 77.8439 81.1992 77.3059L78.4072 68.9287H79.601L81.8253 75.687H81.8681L84.2012 68.9287H85.3678L82.4358 77.1704C82.1519 78.0495 81.7786 79.4399 80.7443 79.955C79.9432 80.3036 79.1383 80.1254 78.6328 80.1254V79.3663Z" fill="#313131"/><path fill-rule="evenodd" clip-rule="evenodd" d="M86.9502 77.294V68.9438H93.0825V77.294H91.947V69.7146H88.0779V77.294H86.9502Z" fill="#313131"/><path fill-rule="evenodd" clip-rule="evenodd" d="M95.6182 77.294V68.9438H101.754V77.294H100.615V69.7146H96.7536V77.294H95.6182Z" fill="#313131"/><path fill-rule="evenodd" clip-rule="evenodd" d="M103.8 71.043C103.742 69.5752 104.796 68.7192 106.674 68.7192C107.572 68.7192 108.393 68.8703 108.902 69.3505C109.101 69.5704 109.251 69.8297 109.341 70.1115C109.432 70.3933 109.461 70.691 109.427 70.9849V76.1127C109.427 76.6123 109.548 76.6859 110.205 76.6743V77.3056C109.797 77.4123 109.371 77.4282 108.957 77.3521C108.451 77.201 108.471 76.9919 108.354 76.5968H108.331C108.015 76.9003 107.64 77.1362 107.23 77.29C106.819 77.4439 106.381 77.5124 105.943 77.4915C103.979 77.4915 103.509 76.4458 103.509 75.129C103.509 74.1607 103.859 73.4365 104.994 72.9795C105.943 72.6348 106.985 72.3869 107.942 72.0422C108.014 72.0165 108.079 71.9727 108.13 71.9152C108.181 71.8576 108.217 71.788 108.233 71.713C108.298 71.248 108.285 70.7756 108.194 70.3149C108.039 69.8192 107.646 69.4861 106.639 69.4861C105.033 69.4861 105.056 70.2878 104.878 71.0353L103.8 71.043ZM108.292 72.7858C107.549 73.0996 106.791 73.3126 106.044 73.5604C104.878 73.9477 104.644 74.3002 104.644 75.2878C104.644 76.105 104.979 76.7363 106.145 76.7363C106.442 76.756 106.739 76.7107 107.015 76.6036C107.292 76.4966 107.542 76.3303 107.747 76.1166C108.153 75.5838 108.347 74.9203 108.292 74.2537V72.7858Z" fill="#313131"/><path fill-rule="evenodd" clip-rule="evenodd" d="M116.255 77.2941V65.9463H117.523V71.6202L122.854 65.9463H124.316L119.984 70.5319L124.538 77.2941H123.173L119.167 71.3336L117.523 72.999V77.2941H116.255Z" fill="#313131"/><path fill-rule="evenodd" clip-rule="evenodd" d="M125.665 72.922C125.665 71.0436 126.116 68.7275 129.083 68.7275C132.108 68.7275 132.443 71.2566 132.443 73.0885C132.443 74.9824 132.124 77.5037 129.021 77.5037C125.739 77.5037 125.665 74.8584 125.665 72.922ZM131.307 73.1001C131.307 71.8027 131.268 69.5021 128.947 69.5021C126.913 69.5021 126.8 71.7872 126.8 72.9336C126.8 74.1768 126.676 76.733 129.001 76.733C131.327 76.733 131.307 74.3588 131.307 73.1001Z" fill="#313131"/><path fill-rule="evenodd" clip-rule="evenodd" d="M135.754 77.294H134.642V68.9438H136.516L139.152 75.9617H139.195L141.905 68.9438H143.706V77.294H142.594V69.8811H142.551L139.705 77.294H138.643L135.793 69.8811H135.754V77.294Z" fill="#313131"/><path fill-rule="evenodd" clip-rule="evenodd" d="M146.22 77.294V68.9438H152.352V77.294H151.22V69.7146H147.355V77.294H146.22Z" fill="#313131"/><path fill-rule="evenodd" clip-rule="evenodd" d="M154.42 71.043C154.357 69.5752 155.415 68.7192 157.289 68.7192C158.188 68.7192 159.008 68.8703 159.517 69.3505C160.027 69.8308 160.038 70.3962 160.038 70.9849V76.1127C160.038 76.6123 160.159 76.6859 160.816 76.6743V77.3056C160.407 77.4122 159.98 77.4281 159.564 77.3521C159.059 77.201 159.078 76.9919 158.957 76.5968C158.642 76.9 158.268 77.1357 157.858 77.2896C157.449 77.4434 157.011 77.5121 156.574 77.4915C154.602 77.4915 154.136 76.4458 154.136 75.129C154.1 74.6563 154.228 74.1857 154.497 73.7949C154.767 73.4041 155.162 73.1165 155.617 72.9795C156.574 72.6348 157.612 72.3869 158.569 72.0422C158.641 72.0152 158.706 71.9711 158.757 71.9138C158.808 71.8565 158.845 71.7876 158.864 71.713C158.922 71.2476 158.907 70.776 158.821 70.3149C158.666 69.8192 158.273 69.4861 157.266 69.4861C155.66 69.4861 155.679 70.2878 155.504 71.0353L154.42 71.043ZM158.911 72.7858C158.172 73.0996 157.406 73.3126 156.663 73.5604C155.497 73.9477 155.256 74.3002 155.256 75.2878C155.256 76.105 155.59 76.7363 156.764 76.7363C157.06 76.7559 157.356 76.7106 157.633 76.6036C157.909 76.4965 158.158 76.3302 158.363 76.1166C158.77 75.5843 158.965 74.9208 158.911 74.2537V72.7858Z" fill="#313131"/><path fill-rule="evenodd" clip-rule="evenodd" d="M162.481 77.294V68.9438H163.617V72.4411H167.482V68.9438H168.618V77.294H167.482V73.2119H163.617V77.294H162.481Z" fill="#313131"/><path fill-rule="evenodd" clip-rule="evenodd" d="M177.316 68.9438V77.294H176.189V70.4272H176.15L172.518 77.294H171.114V68.9438H172.242V75.8261H172.281L175.874 68.9438H177.316Z" fill="#313131"/><path fill-rule="evenodd" clip-rule="evenodd" d="M185.988 68.9402V77.2942H184.857V70.4274H184.818L181.182 77.2942H179.782V68.9402H180.906V75.8263H180.949L184.55 68.9402H185.988ZM180.871 66.1284C181.05 66.9417 181.886 67.3523 182.924 67.3523C183.962 67.3523 184.779 66.9417 184.993 66.1284H185.716C185.561 67.3833 184.406 68.0339 182.827 68.0339C181.248 68.0339 180.249 67.3097 180.105 66.1284H180.871Z" fill="#313131"/><path fill-rule="evenodd" clip-rule="evenodd" d="M69.4581 32.1894C71.834 32.0461 73.1289 32.2824 73.1289 35.3691V43.2777C72.9617 44.8269 71.208 44.7766 69.4581 44.7766V32.1894ZM69.4581 61.5271V48.7464C75.8431 49.0252 79.1795 47.3405 79.1212 41.9145V34.7146C79.2884 30.2723 76.3486 28.2119 69.7381 28.2119H63.4697V61.5194L69.4581 61.5271Z" fill="#313131"/><path fill-rule="evenodd" clip-rule="evenodd" d="M85.4222 28.2163C85.4222 28.2163 88.1908 38.8863 88.7002 42.3913H88.8091C88.9802 39.7694 91.9783 28.2163 91.9783 28.2163H97.5778L87.8564 61.5238H82.1441L85.706 49.08L79.2627 28.2163H85.4222Z" fill="#313131"/><path fill-rule="evenodd" clip-rule="evenodd" d="M107.75 40.5168V33.7352C107.75 32.0466 107.132 31.6748 105.942 31.6748C104.752 31.6748 104.083 32.0621 104.083 33.7352V56.2797C104.083 57.9722 104.697 58.344 105.942 58.344C107.186 58.344 107.75 57.9567 107.75 56.2797V49.0838H113.734V56.7096C113.734 61.0589 109.617 62.3254 105.887 62.3254C102.158 62.3254 98.0908 61.0589 98.0908 56.7096V33.3131C98.0908 28.9599 102.217 27.6973 105.887 27.6973C109.558 27.6973 113.734 28.9599 113.734 33.3131V40.5168H107.75Z" fill="#313131"/><path fill-rule="evenodd" clip-rule="evenodd" d="M122.776 48.1422L124.25 34.2847H124.639L125.876 48.1306L122.776 48.1422ZM115.489 61.5271H120.91L122.213 52.4876H126.447L127.575 61.5194H133.626L129.053 28.2119H120.066L115.489 61.5271Z" fill="#313131"/><path fill-rule="evenodd" clip-rule="evenodd" d="M136.228 61.5315V28.2163H149.558V32.5695H142.212V61.5315H136.228Z" fill="#313131"/><path fill-rule="evenodd" clip-rule="evenodd" d="M157.802 32.1894C160.178 32.0461 161.477 32.2824 161.477 35.3691V43.2777C161.302 44.8269 159.556 44.7766 157.802 44.7766V32.1894ZM157.802 61.5271V48.7464C164.187 49.0252 167.523 47.3405 167.461 41.9145V34.7146C167.632 30.2723 164.696 28.2119 158.086 28.2119H151.817V61.5194L157.802 61.5271Z" fill="#313131"/><path fill-rule="evenodd" clip-rule="evenodd" d="M175.661 33.5917C175.661 31.9108 176.287 31.5351 177.532 31.5351C178.776 31.5351 179.332 31.9224 179.332 33.5917V56.1478C179.332 57.8287 178.718 58.2044 177.532 58.2044C176.346 58.2044 175.661 57.8171 175.661 56.1478V33.5917ZM169.677 56.57C169.677 60.9154 173.803 62.1819 177.454 62.1819C181.187 62.1819 185.309 60.9154 185.309 56.57V33.1695C185.309 28.8163 181.187 27.5576 177.454 27.5576C173.787 27.5576 169.677 28.8163 169.677 33.1695V56.57Z" fill="#313131"/></svg>