<svg width="190" height="96" viewBox="0 0 190 96" fill="none" xmlns="http://www.w3.org/2000/svg"><g clip-path="url(#clip0_116:770)" fill-rule="evenodd" clip-rule="evenodd" fill="#484847"><path d="M27.4841 36.7769C23.5061 41.4723 19.6214 46.8271 17.0667 51.9633H20.7919C21.9935 49.5677 25.6526 44.7764 27.4841 42.6874V36.7769Z"/><path d="M27.4821 46.9849C26.79 47.8856 24.4841 51.09 24.0408 51.9678H27.4199C27.4821 51.8528 27.4821 46.9849 27.4821 46.9849Z"/><path d="M27.4862 28.248H3.83984V51.963H14.3701C17.8698 45.4277 22.6099 39.4827 27.4706 34.3311L27.4862 28.248Z"/><path d="M7.5625 77.6059H9.67788C11.5055 70.6068 15.1219 61.396 19.3682 54.2627H15.8335C11.6455 61.7333 9.26569 69.7367 7.5625 77.6059Z"/><path d="M12.582 77.6059H15.0124C17.5983 70.0126 20.8452 61.6413 26.1881 54.2627H22.6223C17.7927 61.8176 14.8841 70.1391 12.582 77.6059Z"/><path d="M3.83984 77.6059H4.18593C5.06863 72.2856 8.70054 61.7984 13.0868 54.2627H3.83984V77.6059Z"/><path d="M17.5681 77.6063H21.1417C23.1249 73.5625 24.9564 69.3576 27.4839 65.2869V57.5327C22.9227 63.9799 20.0296 71.6 17.5681 77.6063Z"/><path d="M23.9169 77.6069H27.4166L27.4788 71.1367C25.7484 73.6282 24.8307 76.0008 23.9169 77.6069Z"/><path d="M45.3264 25.7884L44.4087 25.4779C42.7988 26.693 40.909 28.1841 40.909 28.1841H38.0003C41.0645 24.6347 47.9162 19.5942 51.6103 17.0414L50.8326 16.731C43.8876 21.2731 36.4449 26.3135 29.8344 34.1598V39.8825C34.2012 34.6887 39.6724 30.1466 45.3264 25.7884Z"/><path d="M55.1388 25.9757L54.1006 25.7304C52.779 26.4237 51.531 27.2455 50.3753 28.1836H47.6883C48.6994 26.9723 53.4706 24.0477 53.4706 24.0477L52.3935 23.5801C43.7818 29.0683 36.1593 35.9343 29.8398 43.8952V49.0889C36.8315 39.8896 44.2159 32.948 55.1388 25.9757Z"/><path d="M36.9908 25.7569L36.0109 25.3237C36.0109 25.3237 33.6428 27.1598 32.4101 28.2483H29.8242V31.9817C31.4807 30.1457 33.8139 28.1218 36.9908 25.7569Z"/><path d="M56.3631 36.0903L55.667 35.1895C55.0371 35.6571 54.03 36.3701 53.3961 36.8377V32.79C54.3449 32.0234 56.507 30.4557 58.1635 29.3671L57.0669 28.8535C47.4038 34.9864 37.4297 43.5724 31.5541 51.9782H37.6163C43.5853 45.0519 49.8381 40.3833 56.3631 36.0903Z"/><path d="M57.6682 42.5644C56.4044 43.331 54.639 44.7723 53.4996 45.581L53.4685 43.7795C53.4685 43.7795 57.0382 41.1654 59.2158 39.8238L58.6986 38.9844C53.1769 42.4341 47.7446 46.9226 42.2539 51.963H48.0012C51.5009 48.7893 54.2812 45.926 57.9131 43.4652L57.6682 42.5644Z"/><path d="M56.9407 48.5708L56.163 47.8042C54.7359 49.1419 53.0521 50.7288 51.6794 51.9745H53.6237C54.5947 50.7195 55.7075 49.5776 56.9407 48.5708Z"/><path d="M29.7886 54.2666L29.8197 61.7333C31.5917 59.1091 33.5527 56.6138 35.6875 54.2666H29.7886Z"/><path d="M29.8242 67.3028V77.4833C33.4872 69.8556 39.3551 60.6754 45.9267 54.2666H40.2106C36.4542 58.092 32.2585 63.6652 29.8242 67.3028Z"/><path d="M49.5818 54.265C42.7963 61.7969 37.049 69.3595 33.5415 77.6043H53.4665V54.265C53.4976 54.173 49.5818 54.265 49.5818 54.265Z"/><path d="M60.9382 76.4026V65.1719H67.6732V66.0458H62.2059V76.4026H60.9382Z"/><path d="M70.5611 79.2466H69.3945V68.1308H70.5261V68.8783C70.801 68.5767 71.1375 68.3358 71.5134 68.1714C71.8894 68.0069 72.2963 67.9225 72.7076 67.9238C75.659 67.9238 75.9506 70.2888 75.9506 72.0597C75.9506 73.8305 75.9506 76.6095 72.8126 76.6095C72.3948 76.6351 71.9765 76.569 71.5878 76.4159C71.1991 76.2627 70.8498 76.0265 70.565 75.7241V79.2428L70.5611 79.2466ZM72.6959 75.8467C74.8269 75.8467 74.8113 73.4357 74.8113 72.3433C74.8113 71.2509 74.8113 68.6904 72.7387 68.6904C70.3783 68.6904 70.5144 70.9673 70.5144 72.2245C70.5144 73.4817 70.4056 75.8467 72.6959 75.8467Z"/><path d="M77.4696 78.4526C78.1734 78.4832 79.0522 78.5407 79.4138 77.9466C79.6789 77.4601 79.8876 76.9458 80.036 76.4134L77.244 68.1226H78.4378L80.6621 74.8112H80.7048L83.038 68.1226H84.2045L81.2726 76.2793C80.9887 77.1494 80.6154 78.5254 79.581 79.0352C78.78 79.3802 77.9751 79.2038 77.4696 79.2038V78.4526Z"/><path d="M85.7891 76.4027V68.1387H91.9213V76.4027H90.7859V68.9014H86.9167V76.4027H85.7891Z"/><path d="M94.4563 76.4022V68.1382H100.592V76.4022H99.4531V68.901H95.5918V76.4022H94.4563Z"/><path d="M102.638 70.2158C102.58 68.7631 103.634 67.916 105.512 67.916C106.41 67.916 107.231 68.0655 107.74 68.5408C107.939 68.7584 108.088 69.0151 108.179 69.2939C108.269 69.5728 108.299 69.8675 108.265 70.1583V75.2333C108.265 75.7277 108.386 75.8006 109.043 75.7891V76.4138C108.635 76.5194 108.209 76.5352 107.795 76.4598C107.289 76.3103 107.308 76.1034 107.192 75.7124H107.168C106.853 76.0127 106.478 76.2462 106.068 76.3984C105.657 76.5507 105.219 76.6186 104.781 76.5978C102.817 76.5978 102.347 75.5629 102.347 74.2597C102.347 73.3014 102.697 72.5846 103.832 72.1323C104.781 71.7912 105.823 71.5459 106.78 71.2047C106.852 71.1793 106.917 71.136 106.968 71.079C107.019 71.022 107.055 70.9532 107.071 70.879C107.136 70.4187 107.123 69.9512 107.032 69.4952C106.877 69.0046 106.484 68.675 105.477 68.675C103.871 68.675 103.894 69.4684 103.715 70.2082L102.638 70.2158ZM107.13 71.9407C106.387 72.2512 105.629 72.462 104.882 72.7073C103.715 73.0906 103.482 73.4394 103.482 74.4168C103.482 75.2256 103.817 75.8504 104.983 75.8504C105.279 75.8699 105.576 75.8251 105.853 75.7191C106.13 75.6132 106.38 75.4486 106.585 75.2371C106.991 74.7098 107.185 74.0531 107.13 73.3934V71.9407Z"/><path d="M115.094 76.4026V65.1719H116.361V70.7873L121.693 65.1719H123.155L118.823 69.7102L123.376 76.4026H122.012L118.006 70.5036L116.361 72.1518V76.4026H115.094Z"/><path d="M124.504 72.075C124.504 70.216 124.955 67.9238 127.922 67.9238C130.947 67.9238 131.282 70.4268 131.282 72.2398C131.282 74.1142 130.963 76.6095 127.86 76.6095C124.578 76.6095 124.504 73.9915 124.504 72.075ZM130.146 72.2513C130.146 70.9673 130.107 68.6904 127.786 68.6904C125.752 68.6904 125.639 70.9519 125.639 72.0865C125.639 73.3169 125.515 75.8467 127.84 75.8467C130.166 75.8467 130.146 73.4971 130.146 72.2513Z"/><path d="M134.594 76.4022H133.482V68.1382H135.356L137.992 75.0836H138.035L140.745 68.1382H142.546V76.4022H141.434V69.0658H141.391L138.544 76.4022H137.483L134.633 69.0658H134.594V76.4022Z"/><path d="M145.059 76.4027V68.1387H151.191V76.4027H150.059V68.9014H146.194V76.4027H145.059Z"/><path d="M153.257 70.2163C153.195 68.7636 154.253 67.9165 156.127 67.9165C157.025 67.9165 157.846 68.066 158.355 68.5413C158.864 69.0166 158.876 69.5762 158.876 70.1588V75.2338C158.876 75.7282 158.997 75.8011 159.654 75.7896V76.4143C159.245 76.5199 158.818 76.5356 158.402 76.4603C157.896 76.3109 157.916 76.1039 157.795 75.7129C157.48 76.0129 157.106 76.2462 156.696 76.3985C156.286 76.5508 155.849 76.6188 155.411 76.5983C153.44 76.5983 152.973 75.5634 152.973 74.2602C152.938 73.7923 153.065 73.3266 153.335 72.9399C153.604 72.5531 153.999 72.2684 154.455 72.1328C155.411 71.7917 156.45 71.5464 157.406 71.2052C157.479 71.1785 157.543 71.1349 157.595 71.0781C157.646 71.0214 157.683 70.9532 157.702 70.8794C157.759 70.4188 157.745 69.9521 157.659 69.4957C157.503 69.0051 157.111 68.6754 156.104 68.6754C154.498 68.6754 154.517 69.4689 154.342 70.2087L153.257 70.2163ZM157.748 71.9412C157.01 72.2517 156.244 72.4625 155.501 72.7078C154.334 73.0911 154.093 73.4399 154.093 74.4173C154.093 75.2261 154.428 75.8509 155.602 75.8509C155.898 75.8704 156.194 75.8255 156.47 75.7195C156.746 75.6136 156.996 75.449 157.2 75.2376C157.608 74.7108 157.803 74.0541 157.748 73.3939V71.9412Z"/><path d="M161.323 76.4012V68.1372H162.459V71.5984H166.324V68.1372H167.46V76.4012H166.324V72.3612H162.459V76.4012H161.323Z"/><path d="M176.154 68.1372V76.4012H175.026V69.6053H174.988L171.356 76.4012H169.952V68.1372H171.08V74.9485H171.118L174.711 68.1372H176.154Z"/><path d="M184.827 68.1348V76.4027H183.696V69.6067H183.657L180.021 76.4027H178.621V68.1348H179.745V74.95H179.788L183.388 68.1348H184.827ZM179.71 65.3521C179.889 66.157 180.725 66.5633 181.763 66.5633C182.801 66.5633 183.618 66.157 183.832 65.3521H184.555C184.399 66.594 183.245 67.2379 181.666 67.2379C180.087 67.2379 179.088 66.5211 178.944 65.3521H179.71Z"/><path d="M68.2948 31.7622C70.6707 31.6204 71.9656 31.8542 71.9656 34.9091V42.7362C71.7984 44.2694 70.0446 44.2196 68.2948 44.2196V31.7622ZM68.2948 60.7974V48.1484C74.6798 48.4244 78.0162 46.757 77.9578 41.387V34.2613C78.1251 29.8648 75.1853 27.8257 68.5748 27.8257H62.3064V60.7898L68.2948 60.7974Z"/><path d="M84.2618 27.8306C84.2618 27.8306 87.0304 38.3906 87.5398 41.8595H87.6487C87.8198 39.2645 90.8179 27.8306 90.8179 27.8306H96.4174L86.696 60.7947H80.9837L84.5456 48.4791L78.1023 27.8306H84.2618Z"/><path d="M106.59 40.0042V33.2926C106.59 31.6214 105.972 31.2534 104.782 31.2534C103.592 31.2534 102.923 31.6367 102.923 33.2926V55.6047C102.923 57.2797 103.537 57.6477 104.782 57.6477C106.026 57.6477 106.59 57.2644 106.59 55.6047V48.4829H112.574V56.0301C112.574 60.3346 108.456 61.588 104.727 61.588C100.998 61.588 96.9307 60.3346 96.9307 56.0301V32.8748C96.9307 28.5665 101.056 27.3169 104.727 27.3169C108.398 27.3169 112.574 28.5665 112.574 32.8748V40.0042H106.59Z"/><path d="M121.617 47.5505L123.091 33.8359H123.48L124.716 47.539L121.617 47.5505ZM114.33 60.7974H119.751L121.053 51.8511H125.288L126.416 60.7898H132.466L127.893 27.8257H118.907L114.33 60.7974Z"/><path d="M135.067 60.8023V27.8306H148.397V32.1389H141.052V60.8023H135.067Z"/><path d="M156.642 31.7622C159.018 31.6204 160.317 31.8542 160.317 34.9091V42.7362C160.142 44.2694 158.396 44.2196 156.642 44.2196V31.7622ZM156.642 60.7974V48.1484C163.027 48.4244 166.364 46.757 166.302 41.387V34.2613C166.473 29.8648 163.537 27.8257 156.926 27.8257H150.658V60.7898L156.642 60.7974Z"/><path d="M174.5 33.1506C174.5 31.487 175.126 31.1152 176.371 31.1152C177.615 31.1152 178.171 31.4985 178.171 33.1506V55.4742C178.171 57.1377 177.557 57.5095 176.371 57.5095C175.185 57.5095 174.5 57.1262 174.5 55.4742V33.1506ZM168.516 55.892C168.516 60.1926 172.641 61.446 176.293 61.446C180.026 61.446 184.148 60.1926 184.148 55.892V32.7328C184.148 28.4244 180.026 27.1787 176.293 27.1787C172.626 27.1787 168.516 28.4244 168.516 32.7328V55.892Z"/></g><defs><clipPath id="clip0_116:770"><path fill="#fff" transform="translate(3.84)" d="M0 0H182.323V96H0z"/></clipPath></defs></svg>