<svg width="318" height="236" viewBox="0 0 318 236" fill="none" xmlns="http://www.w3.org/2000/svg"><path d="M31 51L63.5 109.5M63.5 109.5L138.5 68M63.5 109.5L36 182L122.5 203M138.5 68L198.5 131.5M138.5 68L122.5 203M198.5 131.5L286 31.5V147.5L198.5 131.5ZM198.5 131.5L122.5 203" stroke="#ED5736"/><circle cx="286.974" cy="31.024" r="31.024" fill="#2F89CE"/><path d="M270.454 31.6043L277.587 34.2639L280.367 43.2099C280.488 43.8144 281.214 43.9353 281.697 43.5726L285.687 40.3085C286.049 39.9459 286.654 39.9459 287.137 40.3085L294.27 45.5069C294.753 45.8696 295.479 45.6278 295.6 45.0233L300.919 19.636C301.04 19.0315 300.435 18.4271 299.831 18.6688L270.454 30.0327C269.729 30.2745 269.729 31.3625 270.454 31.6043ZM280.005 32.9341L294.028 24.3508C294.27 24.2299 294.512 24.5926 294.27 24.7134L282.785 35.4728C282.423 35.8355 282.06 36.3191 282.06 36.9235L281.697 39.825C281.697 40.1876 281.093 40.3085 280.972 39.825L279.521 34.5057C279.158 33.9012 279.4 33.1759 280.005 32.9341Z" fill="#fff"/><circle cx="198.317" cy="129.317" r="19.317" fill="url(#paint0_linear_201:319)"/><path d="M202.184 119.833H193.814C191.067 119.833 188.832 122.068 188.832 124.815V133.185C188.832 135.932 191.067 138.166 193.814 138.166H202.184C204.931 138.166 207.165 135.932 207.165 133.185V124.815C207.165 122.068 204.931 119.833 202.184 119.833ZM205.499 133.185C205.499 135.012 204.011 136.5 202.184 136.5H193.814C191.986 136.5 190.499 135.012 190.499 133.185V124.815C190.499 122.987 191.986 121.5 193.814 121.5H202.184C204.011 121.5 205.499 122.987 205.499 124.815V133.185ZM197.999 124C195.242 124 192.999 126.243 192.999 129C192.999 131.757 195.242 134 197.999 134C200.756 134 202.999 131.757 202.999 129C202.999 126.243 200.756 124 197.999 124ZM197.999 132.333C196.161 132.333 194.665 130.838 194.665 129C194.665 127.162 196.161 125.666 197.999 125.666C199.837 125.666 201.332 127.162 201.332 129C201.332 130.838 199.837 132.333 197.999 132.333ZM202.999 123.166C202.539 123.166 202.165 123.54 202.165 124C202.165 124.459 202.539 124.833 202.999 124.833C203.458 124.833 203.832 124.459 203.832 124C203.832 123.54 203.458 123.166 202.999 123.166Z" fill="#fff"/><circle cx="25.854" cy="41.024" r="25.854" fill="#7294C7"/><path d="M38.528 47.6354C38.528 47.5281 38.4206 47.5281 38.4206 47.4207C37.9913 46.5622 37.0254 45.4889 35.7376 44.3084C35.0936 43.7718 34.7717 43.3425 34.557 43.1279C34.235 42.6986 34.2351 42.3766 34.3424 41.9473C34.4497 41.6253 34.879 41.0887 35.6302 40.1228C36.0595 39.5862 36.2742 39.2643 36.5961 38.9423C38.206 36.7958 38.9572 35.4006 38.7426 34.7567L38.6353 34.6494C38.528 34.5421 38.4206 34.4348 38.206 34.4348C37.9913 34.3274 37.6694 34.3274 37.3474 34.4348H33.2692C33.1618 34.4348 33.1618 34.4348 32.9472 34.4348C32.8399 34.4348 32.7326 34.4348 32.7326 34.4348H32.6252H32.5179L32.4106 34.5421C32.3032 34.6494 32.3032 34.6494 32.3032 34.7567C31.8739 35.9373 31.3373 36.9032 30.8007 37.9764C30.4788 38.513 30.1568 39.0496 29.8348 39.4789C29.5129 39.9082 29.2982 40.2301 29.0836 40.4448C28.8689 40.6594 28.6543 40.7668 28.547 40.9814C28.4396 41.0887 28.225 41.1961 28.225 41.0887C28.1177 41.0887 28.0103 41.0887 28.0103 40.9814C27.903 40.8741 27.7957 40.7668 27.6884 40.6594C27.5811 40.5521 27.5811 40.3375 27.4737 40.1228C27.4737 39.9082 27.4737 39.6935 27.4737 39.5862C27.4737 39.4789 27.4737 39.1569 27.4737 38.9423C27.4737 38.6203 27.4737 38.4057 27.4737 38.2983C27.4737 37.9764 27.4737 37.5471 27.4737 37.1178C27.4737 36.6885 27.4737 36.3665 27.4737 36.1519C27.4737 35.9373 27.4737 35.6153 27.4737 35.4006C27.4737 35.0787 27.4737 34.864 27.4737 34.7567C27.4737 34.6494 27.3664 34.4347 27.3664 34.3274C27.2591 34.2201 27.1518 34.1128 27.0445 34.0055C26.9371 33.8981 26.7225 33.8981 26.6152 33.7908C26.0786 33.6835 25.4346 33.5762 24.6834 33.5762C22.9662 33.5762 21.7857 33.6835 21.3564 33.8981C21.1417 34.0055 20.9271 34.1128 20.8198 34.3274C20.6051 34.5421 20.6051 34.6494 20.7124 34.6494C21.2491 34.7567 21.6783 34.9714 21.893 35.2933L22.0003 35.508C22.1076 35.6153 22.1076 35.8299 22.2149 36.1519C22.3223 36.4739 22.3223 36.7958 22.3223 37.2251C22.3223 37.8691 22.3223 38.513 22.3223 38.9423C22.3223 39.4789 22.2149 39.8009 22.2149 40.1228C22.2149 40.4448 22.1076 40.6594 22.0003 40.7668C21.893 40.9814 21.893 41.0887 21.7857 41.0887C21.7857 41.0887 21.7857 41.196 21.6783 41.196C21.571 41.196 21.4637 41.3034 21.2491 41.3034C21.1417 41.3034 20.9271 41.1961 20.8198 41.0887C20.6051 40.9814 20.3905 40.7668 20.2832 40.5521C20.0685 40.3375 19.8539 40.0155 19.6392 39.5862C19.4246 39.1569 19.1026 38.7276 18.888 38.0837L18.6733 37.6544C18.566 37.4398 18.3514 37.0105 18.1367 36.4739C17.9221 35.9373 17.7074 35.508 17.4928 34.9714C17.3855 34.7567 17.2781 34.6494 17.1708 34.5421H17.0635C17.0635 34.5421 16.9562 34.4348 16.8488 34.4348C16.7415 34.4348 16.6342 34.3274 16.5269 34.3274H12.6633C12.234 34.3274 12.0193 34.4347 11.912 34.5421L11.8047 34.6494C11.8047 34.6494 11.8047 34.7567 11.8047 34.864C11.8047 34.9714 11.8047 35.0787 11.912 35.2933C12.4486 36.5812 13.0926 37.8691 13.7365 39.1569C14.3804 40.3375 15.0244 41.4107 15.4537 42.162C15.9903 42.9132 16.4195 43.6645 16.9562 44.3084C17.4928 44.9523 17.8147 45.3816 17.9221 45.5963C18.1367 45.8109 18.244 45.9182 18.3513 46.0256L18.6733 46.3475C18.888 46.5622 19.2099 46.8841 19.6392 47.2061C20.0685 47.5281 20.6051 47.85 21.1417 48.172C21.6783 48.494 22.3223 48.7086 22.9662 48.9233C23.7175 49.1379 24.3614 49.2452 25.0053 49.1379H26.6152C26.9371 49.1379 27.1518 49.0306 27.3664 48.8159L27.4737 48.7086C27.4737 48.6013 27.5811 48.6013 27.5811 48.494C27.5811 48.3866 27.5811 48.2793 27.5811 48.0647C27.5811 47.6354 27.5811 47.3134 27.6884 46.9915C27.7957 46.6695 27.7957 46.4549 27.9031 46.2402C28.0104 46.0256 28.1177 45.9182 28.225 45.8109C28.3323 45.7036 28.4397 45.5963 28.4397 45.5963H28.547C28.7616 45.4889 29.0836 45.5963 29.2982 45.8109C29.6202 46.0256 29.9421 46.3475 30.1568 46.6695C30.3714 46.9915 30.6934 47.3134 31.1227 47.7427C31.552 48.172 31.874 48.494 32.0886 48.6013L32.4106 48.8159C32.6252 48.9233 32.8399 49.0306 33.1618 49.1379C33.4838 49.2452 33.6984 49.2452 33.9131 49.2452L37.5621 49.1379C37.884 49.1379 38.206 49.0306 38.4206 48.9233C38.6353 48.8159 38.7426 48.7086 38.7426 48.494C38.7426 48.3866 38.7426 48.172 38.7426 48.0647C38.5279 47.85 38.528 47.7427 38.528 47.6354Z" fill="#fff"/><circle cx="286.683" cy="144.683" r="20.683" fill="#4E6297"/><path d="M295.991 138.291C295.991 136.743 294.625 135.376 293.076 135.376H281.325C279.777 135.376 278.41 136.743 278.41 138.291V150.042C278.41 151.591 279.777 152.957 281.325 152.957H287.246V146.307H285.06V143.392H287.246V142.208C287.246 140.204 288.704 138.474 290.525 138.474H292.894V141.388H290.525C290.252 141.388 289.979 141.662 289.979 142.208V143.392H292.894V146.307H289.979V152.957H293.076C294.625 152.957 295.991 151.591 295.991 150.042V138.291Z" fill="#fff"/><circle cx="137.024" cy="66.878" r="26.122" fill="#48C95F"/><path d="M147.379 56.5107C144.799 53.9393 141.358 52.5107 137.727 52.5107C130.177 52.5107 124.06 58.6059 124.06 66.1296C124.06 68.5105 124.729 70.8914 125.876 72.8914L123.965 79.9389L131.228 78.0342C133.235 79.0818 135.433 79.6532 137.727 79.6532C145.277 79.6532 151.393 73.5581 151.393 66.0344C151.297 62.5106 149.96 59.0821 147.379 56.5107ZM144.321 70.9867C144.034 71.7486 142.696 72.5105 142.027 72.6057C141.454 72.7009 140.689 72.7009 139.925 72.5105C139.447 72.32 138.778 72.1295 138.013 71.7486C134.573 70.32 132.375 66.8915 132.184 66.6058C131.993 66.4153 130.75 64.7963 130.75 63.082C130.75 61.3678 131.61 60.6059 131.897 60.2249C132.184 59.844 132.566 59.844 132.853 59.844C133.044 59.844 133.331 59.844 133.522 59.844C133.713 59.844 134 59.7487 134.286 60.4154C134.573 61.0821 135.242 62.7963 135.338 62.8916C135.433 63.082 135.433 63.2725 135.338 63.463C135.242 63.6534 135.146 63.8439 134.955 64.0344C134.764 64.2249 134.573 64.5106 134.477 64.6058C134.286 64.7963 134.095 64.9868 134.286 65.2725C134.477 65.6534 135.146 66.701 136.198 67.6534C137.536 68.7962 138.587 69.1772 138.969 69.3677C139.351 69.5581 139.543 69.4629 139.734 69.2724C139.925 69.0819 140.594 68.3201 140.785 67.9391C140.976 67.5582 141.263 67.6534 141.549 67.7486C141.836 67.8439 143.556 68.701 143.843 68.8915C144.225 69.0819 144.417 69.1772 144.512 69.2724C144.608 69.5581 144.608 70.2248 144.321 70.9867Z" fill="#fff"/><circle cx="64.927" cy="109.927" r="12.927" fill="#00A9E7"/><path d="M71.5963 110.618C71.6404 110.265 71.6845 109.957 71.6845 109.604C71.6845 106.078 68.82 103.17 65.2505 103.17C64.8979 103.17 64.5894 103.214 64.2369 103.258C63.664 102.95 63.047 102.817 62.4301 102.817C60.2266 102.817 58.4639 104.58 58.4639 106.784C58.4639 107.401 58.5961 108.017 58.9046 108.59C58.8605 108.943 58.8164 109.251 58.8164 109.604C58.8164 113.129 61.6809 116.038 65.2505 116.038C65.603 116.038 65.9115 115.994 66.264 115.95C66.8369 116.214 67.4539 116.391 68.0709 116.391C70.2743 116.391 72.037 114.628 72.037 112.424C72.037 111.807 71.8608 111.19 71.5963 110.618ZM67.9386 111.94C67.8064 112.204 67.6302 112.424 67.3658 112.601C67.1013 112.777 66.8369 112.909 66.4844 112.997C66.1318 113.085 65.7352 113.129 65.2945 113.129C64.3691 113.129 63.6199 112.909 63.0911 112.513C62.7826 112.248 62.5182 111.94 62.386 111.543C62.2097 111.19 62.5182 110.75 62.9589 110.75H63.0911C63.3555 110.75 63.6199 110.926 63.708 111.146C63.7962 111.367 63.9284 111.543 64.1047 111.675C64.3691 111.896 64.7657 111.984 65.2505 111.984C65.6911 111.984 66.0437 111.896 66.3081 111.763C66.5725 111.631 66.7047 111.367 66.7047 111.102C66.7047 110.97 66.6607 110.882 66.6166 110.794C66.5725 110.706 66.4403 110.618 66.3522 110.573C66.22 110.485 66.0878 110.441 65.8674 110.397C65.6911 110.353 65.4708 110.265 65.2064 110.221L64.942 110.133C64.6335 110.045 64.2809 109.957 64.0165 109.868C63.708 109.78 63.4436 109.648 63.2233 109.516C63.0029 109.384 62.8267 109.207 62.6945 108.943C62.5623 108.723 62.5182 108.414 62.5182 108.062C62.5182 107.709 62.6063 107.401 62.7385 107.136C62.8707 106.872 63.0911 106.651 63.3114 106.519C63.5758 106.343 63.8403 106.211 64.1928 106.167C64.5013 106.078 64.8538 106.034 65.2505 106.034C65.6911 106.034 66.0437 106.078 66.3962 106.167C66.7488 106.255 67.0132 106.387 67.2776 106.607C67.542 106.784 67.7183 107.004 67.8505 107.312C68.0709 107.709 67.7624 108.238 67.2776 108.238H67.1454C66.881 108.238 66.6607 108.106 66.5284 107.885C66.4403 107.753 66.3522 107.621 66.22 107.489C65.9996 107.312 65.6471 107.224 65.2505 107.224C64.8538 107.224 64.5454 107.312 64.325 107.445C64.1047 107.577 64.0165 107.797 64.0165 108.017C64.0165 108.15 64.0606 108.238 64.1047 108.326C64.1487 108.414 64.2369 108.502 64.3691 108.546C64.5013 108.59 64.6335 108.679 64.8098 108.723C64.986 108.767 65.2064 108.811 65.4708 108.899C65.7352 108.943 65.9556 109.031 66.22 109.075C66.4403 109.119 66.6607 109.207 66.881 109.251C67.1013 109.34 67.2776 109.428 67.4539 109.516C67.6302 109.604 67.7624 109.736 67.8946 109.868C68.0268 110.001 68.1149 110.177 68.159 110.353C68.2471 110.529 68.2471 110.794 68.2471 111.058C68.159 111.367 68.0709 111.675 67.9386 111.94Z" fill="#fff"/><circle cx="122.291" cy="200.42" r="35.419" fill="#7C509A"/><path d="M133.364 183.677C126.614 182.388 119.604 182.388 112.854 183.677C109.869 184.321 106.104 187.931 105.455 190.767C104.287 196.31 104.287 201.982 105.455 207.524C106.234 210.36 109.998 213.97 112.854 214.614C112.984 214.614 113.114 214.743 113.114 214.872V222.993C113.114 223.38 113.633 223.638 113.893 223.251L117.787 219.255C117.787 219.255 120.902 216.032 121.422 215.517C121.422 215.517 121.551 215.388 121.681 215.388C125.576 215.517 129.6 215.13 133.494 214.485C136.48 213.841 140.244 210.232 140.893 207.396C142.061 201.853 142.061 196.181 140.893 190.638C140.114 187.931 136.35 184.321 133.364 183.677ZM133.494 207.911C132.845 209.2 132.066 210.232 130.768 210.876C130.379 211.005 129.989 211.134 129.6 211.263C129.08 211.134 128.691 211.005 128.302 210.876C124.148 209.2 120.253 206.88 117.138 203.528C115.45 201.595 114.023 199.403 112.854 197.083C112.335 195.923 111.816 194.892 111.426 193.731C111.037 192.7 111.686 191.669 112.335 190.896C112.984 190.122 113.763 189.606 114.672 189.22C115.321 188.833 115.97 189.091 116.489 189.606C117.527 190.896 118.566 192.185 119.345 193.603C119.864 194.505 119.734 195.536 118.825 196.181C118.566 196.31 118.436 196.439 118.176 196.696C118.047 196.825 117.787 196.954 117.657 197.212C117.398 197.599 117.398 197.985 117.527 198.372C118.566 201.337 120.513 203.657 123.499 204.946C124.018 205.204 124.407 205.333 125.056 205.333C125.965 205.204 126.354 204.173 127.003 203.657C127.653 203.142 128.431 203.142 129.21 203.528C129.859 203.915 130.508 204.431 131.287 204.946C131.936 205.462 132.585 205.849 133.234 206.364C133.624 206.622 133.754 207.267 133.494 207.911ZM128.042 198.243C127.782 198.243 127.912 198.243 128.042 198.243C127.523 198.243 127.393 197.985 127.263 197.599C127.263 197.341 127.263 196.954 127.133 196.696C127.003 196.181 126.744 195.665 126.225 195.278C125.965 195.149 125.705 195.021 125.446 194.892C125.056 194.763 124.797 194.763 124.407 194.763C124.018 194.634 123.888 194.376 123.888 193.989C123.888 193.731 124.277 193.474 124.537 193.474C126.614 193.603 128.172 194.763 128.431 197.212C128.431 197.341 128.431 197.599 128.431 197.728C128.431 197.985 128.302 198.243 128.042 198.243ZM126.744 192.571C126.095 192.314 125.446 192.056 124.667 191.927C124.407 191.927 124.018 191.798 123.758 191.798C123.369 191.798 123.109 191.54 123.239 191.153C123.239 190.767 123.499 190.509 123.888 190.638C125.186 190.767 126.354 191.024 127.523 191.54C129.859 192.7 131.157 194.634 131.547 197.212C131.547 197.341 131.547 197.47 131.547 197.599C131.547 197.856 131.547 198.114 131.547 198.501C131.547 198.63 131.547 198.759 131.547 198.888C131.417 199.403 130.508 199.532 130.379 198.888C130.379 198.759 130.249 198.501 130.249 198.372C130.249 197.212 129.989 196.052 129.47 195.021C128.691 193.86 127.782 193.087 126.744 192.571ZM133.754 200.306C133.364 200.306 133.105 199.919 133.105 199.532C133.105 198.759 132.975 197.985 132.845 197.212C132.326 193.087 128.951 189.735 124.927 189.091C124.277 188.962 123.628 188.962 123.109 188.833C122.72 188.833 122.201 188.833 122.071 188.317C121.941 187.931 122.33 187.544 122.72 187.544C122.85 187.544 122.979 187.544 122.979 187.544C128.302 187.673 123.239 187.544 122.979 187.544C128.431 187.673 132.975 191.282 133.883 196.696C134.013 197.599 134.143 198.501 134.143 199.532C134.403 199.919 134.143 200.306 133.754 200.306Z" fill="#fff"/><circle cx="36.196" cy="180.634" r="12.927" fill="#F59124"/><path d="M40.4483 176.858C39.4341 175.928 38.2085 175.463 36.6871 175.463C35.1235 175.463 33.7711 175.971 32.6723 177.027C31.5736 178.084 31.0242 179.394 31.0242 180.957C31.0242 182.479 31.5313 183.746 32.5878 184.845C33.6443 185.944 35.039 186.451 36.8562 186.451C37.9127 186.451 38.9692 186.24 40.0257 185.775C40.3638 185.648 40.5329 185.226 40.4061 184.888C40.2793 184.549 39.8567 184.38 39.5186 184.507C38.6311 184.888 37.7436 185.099 36.8984 185.099C35.5461 185.099 34.4896 184.676 33.7289 183.831C32.9682 182.986 32.5878 182.014 32.5878 180.915C32.5878 179.689 33.0104 178.675 33.7711 177.872C34.5741 177.069 35.5461 176.647 36.7294 176.647C37.7859 176.647 38.7156 176.985 39.4763 177.661C40.237 178.337 40.5751 179.182 40.5751 180.197C40.5751 180.873 40.4061 181.464 40.068 181.929C39.7299 182.394 39.3918 182.605 39.0115 182.605C38.8002 182.605 38.7156 182.521 38.7156 182.267C38.7156 182.098 38.7156 181.887 38.7579 181.676L39.1805 178.253H37.7436L37.6591 178.591C37.2788 178.295 36.8984 178.126 36.4758 178.126C35.7996 178.126 35.208 178.422 34.7009 178.971C34.1937 179.52 33.9824 180.239 33.9824 181.084C33.9824 181.929 34.1937 182.605 34.6586 183.155C35.0812 183.662 35.6306 183.916 36.2223 183.916C36.7716 183.916 37.2365 183.704 37.6169 183.239C37.9127 183.662 38.3353 183.916 38.9269 183.916C39.7722 183.916 40.4906 183.535 41.1245 182.817C41.7584 182.098 42.0542 181.211 42.0542 180.154C41.9275 178.887 41.4203 177.745 40.4483 176.858ZM37.1097 182.014C36.8562 182.352 36.5603 182.521 36.18 182.521C35.9264 182.521 35.7574 182.394 35.5883 182.141C35.4193 181.887 35.377 181.591 35.377 181.211C35.377 180.746 35.4616 180.366 35.6729 180.112C35.8842 179.816 36.1377 179.689 36.4336 179.689C36.6871 179.689 36.9407 179.774 37.152 180.028C37.3633 180.239 37.4478 180.535 37.4478 180.873C37.4901 181.295 37.3633 181.676 37.1097 182.014Z" fill="#fff"/><defs><linearGradient id="paint0_linear_201:319" x1="187.21" y1="144.288" x2="212.805" y2="117.727" gradientUnits="userSpaceOnUse"><stop stop-color="#EEA054"/><stop offset=".503" stop-color="#D64763"/><stop offset="1" stop-color="#B62A99"/></linearGradient></defs></svg>