<svg width="120" height="120" viewBox="0 0 120 120" fill="none" xmlns="http://www.w3.org/2000/svg"><circle cx="60" cy="60" r="60" fill="#2F89CE"/><path d="M28.0521 61.1222L41.8464 66.2659L47.2238 83.5671C47.4576 84.7361 48.8604 84.9699 49.7956 84.2685L57.511 77.9559C58.2124 77.2545 59.3814 77.2545 60.3166 77.9559L74.1109 88.0093C75.0461 88.7107 76.4489 88.2431 76.6827 87.0741L86.9699 37.976C87.2037 36.807 86.0347 35.638 84.8657 36.1056L28.0521 58.0828C26.6493 58.5504 26.6493 60.6546 28.0521 61.1222ZM46.5224 63.694L73.6432 47.0942C74.1108 46.8604 74.5785 47.5618 74.1109 47.7956L51.8998 68.6039C51.1984 69.3053 50.497 70.2405 50.497 71.4095L49.7956 77.0207C49.7956 77.7221 48.6266 77.9559 48.3928 77.0207L45.5872 66.7335C44.8858 65.5645 45.3534 64.1616 46.5224 63.694Z" fill="#fff"/></svg>