<svg width="95" height="95" viewBox="0 0 95 95" fill="none" xmlns="http://www.w3.org/2000/svg"><circle cx="47.5" cy="47.5" r="47.5" fill="#158AD9"/><path d="M22.2079 48.3894L33.1284 52.4615L37.3855 66.1583C37.5706 67.0837 38.6812 67.2688 39.4215 66.7135L45.5295 61.7161C46.0848 61.1608 47.0103 61.1608 47.7507 61.7161L58.6711 69.675C59.4115 70.2303 60.522 69.8601 60.7071 68.9346L68.8512 30.0653C69.0363 29.1398 68.1108 28.2144 67.1854 28.5846L22.2079 45.9832C21.0974 46.3534 21.0974 48.0192 22.2079 48.3894ZM36.8302 50.4254L58.3009 37.2839C58.6711 37.0988 59.0413 37.6541 58.6711 37.8392L41.0873 54.3124C40.5321 54.8677 39.9768 55.608 39.9768 56.5335L39.4215 60.9757C39.4215 61.531 38.4961 61.7161 38.311 60.9757L36.0898 52.8316C35.5346 51.9062 35.9048 50.7956 36.8302 50.4254Z" fill="#fff"/></svg>