<svg width="137" height="137" viewBox="0 0 137 137" fill="none" xmlns="http://www.w3.org/2000/svg"><circle cx="68.5" cy="68.5" r="68.5" fill="#7C509A"/><path d="M89.9197 36.1198C76.8652 33.6267 63.3087 33.6267 50.2542 36.1198C44.4802 37.3663 37.1998 44.3467 35.9446 49.8313C33.6851 60.5512 33.6851 71.5204 35.9446 82.2404C37.4509 87.725 44.7312 94.7054 50.2542 95.9519C50.5053 95.9519 50.7563 96.2012 50.7563 96.4505V112.156C50.7563 112.904 51.7605 113.403 52.2626 112.655L59.794 104.927C59.794 104.927 65.8192 98.6942 66.8234 97.697C66.8234 97.697 67.0744 97.4477 67.3255 97.4477C74.8569 97.697 82.6393 96.9491 90.1707 95.7026C95.9448 94.4561 103.225 87.4757 104.48 81.9911C106.74 71.2711 106.74 60.3019 104.48 49.582C102.974 44.3467 95.6938 37.3663 89.9197 36.1198ZM90.1707 82.9883C88.9155 85.4813 87.4092 87.4757 84.8988 88.7222C84.1456 88.9715 83.3925 89.2208 82.6393 89.4701C81.6351 89.2208 80.882 88.9715 80.1289 88.7222C72.0953 85.4813 64.5639 80.9939 58.5388 74.512C55.2752 70.7725 52.5137 66.5344 50.2542 62.047C49.2501 59.8033 48.2459 57.8089 47.4927 55.5652C46.7396 53.5708 47.9948 51.5764 49.2501 50.0806C50.5053 48.5848 52.0116 47.5876 53.7689 46.8397C55.0241 46.0918 56.2794 46.5904 57.2836 47.5876C59.292 50.0806 61.3003 52.5736 62.8066 55.3159C63.8108 57.061 63.5597 59.0554 61.8024 60.3019C61.3003 60.5512 61.0493 60.8005 60.5472 61.2991C60.2961 61.5484 59.794 61.7977 59.543 62.2963C59.0409 63.0442 59.0409 63.7921 59.2919 64.54C61.3003 70.2739 65.066 74.7613 70.8401 77.2543C71.8443 77.7529 72.5974 78.0023 73.8527 78.0023C75.61 77.753 76.3632 75.7585 77.6184 74.7613C78.8736 73.7641 80.3799 73.7641 81.8862 74.512C83.1414 75.2599 84.3966 76.2571 85.9029 77.2543C87.1582 78.2516 88.4134 78.9995 89.6686 79.9967C90.4218 80.4953 90.6728 81.7418 90.1707 82.9883ZM79.6268 64.2907C79.1247 64.2907 79.3757 64.2907 79.6268 64.2907C78.6226 64.2907 78.3715 63.7921 78.1205 63.0442C78.1205 62.5456 78.1205 61.7977 77.8694 61.2991C77.6184 60.3019 77.1163 59.3047 76.1121 58.5568C75.61 58.3075 75.1079 58.0582 74.6058 57.8089C73.8527 57.5596 73.3506 57.5596 72.5974 57.5596C71.8443 57.3103 71.5933 56.8117 71.5933 56.0638C71.5933 55.5652 72.3464 55.0666 72.8485 55.0666C76.8652 55.3159 79.8778 57.5596 80.3799 62.2963C80.3799 62.5456 80.3799 63.0442 80.3799 63.2935C80.3799 63.7921 80.1288 64.2907 79.6268 64.2907ZM77.1163 53.3215C75.861 52.8229 74.6058 52.3243 73.0995 52.075C72.5974 52.075 71.8443 51.8257 71.3422 51.8257C70.5891 51.8257 70.087 51.3271 70.338 50.5792C70.338 49.8313 70.8401 49.3327 71.5933 49.582C74.1037 49.8313 76.3632 50.3299 78.6226 51.3271C83.1414 53.5708 85.6519 57.3103 86.405 62.2963C86.405 62.5456 86.405 62.7949 86.405 63.0442C86.405 63.5428 86.405 64.0414 86.405 64.7893C86.405 65.0386 86.405 65.2879 86.405 65.5372C86.154 66.5344 84.3967 66.7837 84.1456 65.5372C84.1456 65.2879 83.8946 64.7893 83.8946 64.54C83.8946 62.2963 83.3925 60.0526 82.3883 58.0582C80.882 55.8145 79.1247 54.3187 77.1163 53.3215ZM90.6728 68.2795C89.9197 68.2795 89.4176 67.5316 89.4176 66.7837C89.4176 65.2879 89.1666 63.7921 88.9155 62.2963C87.9113 54.3187 81.3841 47.8369 73.6016 46.5904C72.3464 46.3411 71.0912 46.3411 70.087 46.0918C69.3338 46.0918 68.3296 46.0918 68.0786 45.0946C67.8275 44.3467 68.5807 43.5988 69.3338 43.5988C69.5849 43.5988 69.8359 43.5988 69.8359 43.5988C80.1289 43.8481 70.338 43.5988 69.8359 43.5988C80.3799 43.8481 89.1665 50.8285 90.9239 61.2991C91.1749 63.0442 91.426 64.7893 91.426 66.7837C91.9281 67.5316 91.426 68.2795 90.6728 68.2795Z" fill="#fff"/></svg>