<svg width="190" height="97" viewBox="0 0 190 97" fill="none" xmlns="http://www.w3.org/2000/svg"><path fill-rule="evenodd" clip-rule="evenodd" d="M34.1578 42.9439C34.0623 42.9028 34.0078 42.7454 34.0078 42.7454C33.9911 42.6758 33.9966 42.6027 34.0235 42.5364C34.0505 42.4701 34.0974 42.4139 34.1578 42.3758C34.753 42.0643 35.2869 41.6469 35.7335 41.1439C36.3085 40.3521 36.5907 39.3842 36.5316 38.4063C36.5486 37.7335 36.3962 37.0672 36.0886 36.4691C35.781 35.871 35.3281 35.3603 34.7717 34.9843C33.5985 34.1357 31.9751 33.7935 29.9014 33.7935H24.2876C24.2876 33.7935 24.0284 33.7935 24.0011 34.1083V54.7019C23.9995 54.7593 24.0137 54.8162 24.042 54.8661C24.0661 54.9107 24.1015 54.9482 24.1446 54.9746C24.1877 55.001 24.2371 55.0156 24.2876 55.0167H27.6163C29.3489 55.0167 30.5562 55.0783 31.2315 55.0167C32.3263 54.9824 33.4029 54.7263 34.3966 54.2639C35.4677 53.6939 36.3727 52.8543 37.0227 51.8274C37.7077 50.8204 38.063 49.6243 38.0391 48.4054C38.0588 47.7143 37.9424 47.026 37.6966 46.3801C37.4508 45.7342 37.0804 45.1433 36.6066 44.6412C35.9412 43.8796 35.1006 43.2923 34.1578 42.9302V42.9439ZM28.2439 37.236C28.2351 37.1595 28.2545 37.0825 28.2985 37.0194C28.3425 36.9564 28.408 36.9117 28.4826 36.8938C28.832 36.8343 29.1855 36.8023 29.5399 36.798C30.2168 36.7789 30.8747 37.0243 31.3748 37.4824C31.8481 38.034 32.0923 38.7469 32.0569 39.474C32.0841 39.9158 31.995 40.357 31.7987 40.7534C31.6023 41.1498 31.3056 41.4874 30.9382 41.7325C30.3194 42.0956 29.6075 42.267 28.8919 42.2253L28.4826 42.1774C28.4097 42.1658 28.3434 42.1284 28.2958 42.0718C28.2482 42.0153 28.2225 41.9434 28.2234 41.8694V37.2291L28.2439 37.236ZM32.8277 51.3346C32.1034 51.905 31.2039 52.205 30.2834 52.1833H29.8059L28.544 52.0806C28.4662 52.0754 28.3933 52.0407 28.3401 51.9835C28.2868 51.9263 28.2573 51.8509 28.2575 51.7726V45.3393C28.2564 45.2663 28.2811 45.1952 28.3273 45.1388C28.3736 45.0824 28.4383 45.0443 28.5099 45.0313L29.4239 44.9492C30.5266 44.8874 31.6178 45.2009 32.5207 45.8389C32.9615 46.201 33.3106 46.6626 33.5394 47.186C33.7682 47.7094 33.8703 48.2797 33.8372 48.8503C33.8566 49.3128 33.7765 49.7741 33.6023 50.2028C33.4281 50.6315 33.1639 51.0176 32.8277 51.3346Z" fill="#313131"/><path fill-rule="evenodd" clip-rule="evenodd" d="M56.0981 33.7861H53.1036C53.0339 33.7888 52.9656 33.8074 52.9041 33.8406C52.8426 33.8738 52.7895 33.9208 52.7489 33.9778L45.498 45.1335C45.4483 45.2159 45.3689 45.2761 45.2763 45.3015C45.1836 45.327 45.0848 45.3158 45.0001 45.2704C44.935 45.2326 44.8795 45.1802 44.838 45.1173C44.7966 45.0543 44.7703 44.9825 44.7614 44.9076V34.0941C44.7614 34.0148 44.731 33.9384 44.6763 33.881C44.6217 33.8237 44.5471 33.7897 44.468 33.7861H40.8255C40.7471 33.7913 40.6734 33.8258 40.6191 33.8828C40.5648 33.9398 40.5338 34.0153 40.5322 34.0941V54.6672C40.5367 54.7487 40.5701 54.826 40.6264 54.885C40.6827 54.944 40.7582 54.9808 40.8392 54.9889H43.1447C43.2127 54.9868 43.2793 54.9683 43.3387 54.9349C43.398 54.9016 43.4485 54.8543 43.4858 54.7972L51.3574 42.9503C51.4155 42.8799 51.4941 42.8295 51.5822 42.8062C51.6703 42.7829 51.7634 42.7878 51.8486 42.8202C51.9259 42.8568 51.992 42.9136 52.04 42.9847C52.088 43.0557 52.1161 43.1384 52.1214 43.224V54.6809C52.1205 54.7195 52.1272 54.758 52.1411 54.794C52.155 54.8301 52.1759 54.863 52.2025 54.891C52.2291 54.919 52.2609 54.9414 52.2962 54.957C52.3314 54.9726 52.3694 54.9811 52.4079 54.982H56.1186C56.1892 54.9683 56.2532 54.9311 56.3002 54.8765C56.3472 54.8219 56.3745 54.753 56.3778 54.6809V34.0941C56.3798 34.0165 56.3517 33.9412 56.2996 33.8838C56.2475 33.8264 56.1753 33.7914 56.0981 33.7861Z" fill="#313131"/><path fill-rule="evenodd" clip-rule="evenodd" d="M149.834 33.7861H146.86C146.791 33.7897 146.723 33.8088 146.662 33.842C146.6 33.8751 146.547 33.9215 146.506 33.9778L139.262 45.1335C139.211 45.2164 139.13 45.2767 139.036 45.3022C138.943 45.3276 138.843 45.3162 138.757 45.2704C138.692 45.2326 138.636 45.1802 138.595 45.1173C138.553 45.0543 138.527 44.9825 138.518 44.9076V34.0941C138.518 34.0148 138.488 33.9384 138.433 33.881C138.378 33.8237 138.304 33.7897 138.225 33.7861H134.576C134.497 33.7913 134.423 33.8258 134.369 33.8828C134.315 33.9398 134.284 34.0153 134.282 34.0941V54.6672C134.288 54.7493 134.323 54.8267 134.381 54.8855C134.438 54.9444 134.514 54.981 134.596 54.9889H136.895C136.964 54.9862 137.031 54.9675 137.091 54.9343C137.152 54.901 137.203 54.8541 137.243 54.7972L145.114 42.9503C145.173 42.8793 145.253 42.8287 145.342 42.8054C145.432 42.782 145.526 42.7872 145.612 42.8202C145.688 42.8578 145.753 42.915 145.8 42.9859C145.847 43.0569 145.874 43.1391 145.878 43.224V54.6809C145.877 54.7195 145.884 54.758 145.898 54.794C145.912 54.8301 145.933 54.863 145.959 54.891C145.986 54.919 146.018 54.9414 146.053 54.957C146.088 54.9726 146.126 54.9811 146.165 54.982H149.875C149.946 54.9683 150.01 54.9311 150.057 54.8765C150.104 54.8219 150.131 54.753 150.135 54.6809V34.0941C150.136 34.054 150.128 34.0141 150.114 33.9768C150.099 33.9395 150.077 33.9054 150.049 33.8767C150.021 33.848 149.988 33.8253 149.951 33.8097C149.914 33.7941 149.874 33.7861 149.834 33.7861Z" fill="#313131"/><path fill-rule="evenodd" clip-rule="evenodd" d="M92.5171 33.7861H78.0766C77.9982 33.7897 77.9243 33.8239 77.8708 33.8815C77.8172 33.9391 77.7883 34.0154 77.7901 34.0941V37.7009C77.7898 37.7781 77.8184 37.8525 77.8702 37.9096C77.922 37.9666 77.9932 38.002 78.0698 38.0089H82.715C82.8236 38.0222 82.9236 38.0747 82.9964 38.1565C83.0692 38.2384 83.1098 38.344 83.1106 38.4537V54.6877C83.1105 54.766 83.14 54.8414 83.1932 54.8986C83.2464 54.9558 83.3193 54.9905 83.3971 54.9957H87.0533C87.1277 54.9909 87.1978 54.9591 87.2505 54.9062C87.3032 54.8533 87.335 54.7829 87.3398 54.7083V38.4537C87.3358 38.3438 87.3739 38.2365 87.4461 38.1538C87.5184 38.0711 87.6195 38.0193 87.7286 38.0089H92.5034C92.5819 38.0038 92.6556 37.9693 92.7099 37.9122C92.7642 37.8552 92.7952 37.7798 92.7967 37.7009V34.0941C92.797 34.017 92.7685 33.9425 92.7167 33.8855C92.6649 33.8285 92.5937 33.793 92.5171 33.7861Z" fill="#313131"/><path fill-rule="evenodd" clip-rule="evenodd" d="M129.621 35.313C128.109 34.2601 126.295 33.7336 124.457 33.8142H118.461C118.379 33.8335 118.305 33.8794 118.25 33.9449C118.196 34.0104 118.165 34.0919 118.161 34.1769V54.7089C118.163 54.7882 118.195 54.8638 118.251 54.9199C118.307 54.976 118.382 55.0083 118.461 55.0101H122.206C122.281 55.0054 122.352 54.9738 122.406 54.921C122.46 54.8683 122.493 54.7979 122.499 54.7226V47.7144C122.495 47.5957 122.536 47.4798 122.613 47.3898C122.69 47.2997 122.798 47.2421 122.915 47.2284C125.218 47.133 127.425 46.2818 129.198 44.8057C129.95 44.2022 130.559 43.4383 130.98 42.5694C131.401 41.7005 131.624 40.7484 131.633 39.7822C131.666 38.9284 131.502 38.0786 131.154 37.2988C130.806 36.5189 130.284 35.83 129.628 35.2857L129.621 35.313ZM126.087 42.2323C125.704 42.6959 125.225 43.0706 124.683 43.3305C124.141 43.5904 123.55 43.7295 122.95 43.738C122.832 43.7457 122.715 43.7072 122.625 43.6307C122.535 43.5541 122.477 43.4454 122.465 43.3274V37.0035C122.484 36.9304 122.52 36.8631 122.571 36.8081C122.623 36.753 122.687 36.7119 122.759 36.6887H122.806C122.944 36.6575 123.082 36.6347 123.222 36.6202C123.871 36.5609 124.524 36.6799 125.11 36.9645C125.697 37.249 126.195 37.6884 126.551 38.2354C126.925 38.8593 127.083 39.59 126.999 40.3133C126.915 41.0365 126.594 41.7113 126.087 42.2323Z" fill="#313131"/><path fill-rule="evenodd" clip-rule="evenodd" d="M104.557 33.1158C102.414 33.1103 100.318 33.7429 98.5343 34.9334C96.7504 36.1239 95.3586 37.8187 94.5353 39.8033C93.712 41.7879 93.4941 43.9729 93.9093 46.0818C94.3244 48.1907 95.354 50.1286 96.8675 51.6501C98.381 53.1715 100.31 54.2082 102.412 54.6287C104.513 55.0492 106.691 54.8348 108.67 54.0125C110.65 53.1901 112.342 51.797 113.532 50.0093C114.721 48.2217 115.356 46.12 115.355 43.9703C115.356 41.0945 114.22 38.3357 112.195 36.3002C110.17 34.2648 107.423 33.1194 104.557 33.1158ZM104.557 50.4379C103.281 50.4406 102.034 50.0636 100.972 49.3546C99.9099 48.6456 99.0815 47.6364 98.5915 46.4549C98.1016 45.2733 97.972 43.9725 98.2192 42.717C98.4663 41.4615 99.0792 40.3078 99.9801 39.4019C100.881 38.4961 102.03 37.8787 103.28 37.628C104.531 37.3774 105.828 37.5047 107.007 37.9938C108.185 38.4829 109.193 39.3118 109.902 40.3757C110.611 41.4396 110.989 42.6906 110.989 43.9703C110.99 44.8188 110.824 45.6591 110.501 46.4433C110.179 47.2275 109.705 47.9402 109.108 48.5408C108.511 49.1414 107.801 49.618 107.02 49.9435C106.239 50.269 105.402 50.437 104.557 50.4379Z" fill="#313131"/><path fill-rule="evenodd" clip-rule="evenodd" d="M103.18 30.9398C103.256 31.0229 103.356 31.0803 103.466 31.1041C104.757 31.0562 106.041 30.8843 107.3 30.5908C108.302 30.3788 109.264 30.0093 110.151 29.4957C110.838 29.0794 111.466 28.573 112.02 27.99C112.476 27.5299 112.877 27.0177 113.214 26.4638C113.489 25.9899 113.717 25.4902 113.896 24.9719C113.896 24.8897 113.957 24.8008 113.984 24.7118C114.015 24.6212 114.024 24.525 114.012 24.4302C114.001 24.3354 113.968 24.2445 113.916 24.1642C113.84 24.0811 113.74 24.0238 113.63 24C112.338 24.0497 111.054 24.2239 109.796 24.5202C107.997 24.8708 106.35 25.7722 105.083 27.1003C104.629 27.5622 104.228 28.0742 103.889 28.6266C103.618 29.1025 103.389 29.6018 103.207 30.1185C103.207 30.2007 103.139 30.2896 103.118 30.3786C103.086 30.4701 103.076 30.5676 103.088 30.6638C103.1 30.7599 103.133 30.8521 103.186 30.933L103.18 30.9398Z" fill="#313131"/><path fill-rule="evenodd" clip-rule="evenodd" d="M166.579 33.7042H160.106C158.059 33.7042 156.47 34.1833 155.331 35.1551C153.087 37.0646 152.684 41.0273 154.744 43.2379C155.494 44.0209 156.379 44.6609 157.357 45.1268C157.465 45.1851 157.547 45.2836 157.584 45.4012C157.62 45.5189 157.61 45.6464 157.555 45.7565L155.344 50.1846L153.373 54.4758V54.5168C153.348 54.5783 153.342 54.6463 153.357 54.7112C153.371 54.7762 153.406 54.835 153.455 54.8795C153.508 54.9236 153.571 54.952 153.639 54.9617H154.642C155.353 55.0114 156.066 54.8844 156.717 54.5919C157.367 54.2995 157.936 53.8505 158.373 53.2849C159.436 51.5282 160.41 49.7191 161.293 47.8644C161.293 47.8644 161.293 47.8165 161.327 47.796L161.381 47.6728C161.439 47.5339 161.532 47.413 161.652 47.3227C161.772 47.2325 161.914 47.1761 162.063 47.1595C162.127 47.1602 162.19 47.1742 162.249 47.2005C162.307 47.2268 162.359 47.265 162.402 47.3125C162.445 47.3601 162.478 47.416 162.498 47.4769C162.518 47.5377 162.526 47.6021 162.52 47.666V54.6879C162.527 54.7657 162.56 54.8387 162.615 54.8939C162.67 54.9491 162.743 54.9828 162.82 54.9891H166.586C166.625 54.9891 166.664 54.9812 166.7 54.966C166.736 54.9508 166.768 54.9285 166.796 54.9005C166.823 54.8724 166.844 54.8391 166.859 54.8026C166.873 54.7661 166.88 54.7271 166.879 54.6879V34.0122C166.882 33.9722 166.876 33.932 166.863 33.8942C166.849 33.8565 166.828 33.822 166.8 33.793C166.773 33.764 166.739 33.7411 166.702 33.7258C166.666 33.7105 166.626 33.7031 166.586 33.7042H166.579ZM162.486 43.2379C162.465 43.3221 162.421 43.3984 162.358 43.4579C162.295 43.5174 162.217 43.5574 162.132 43.5733C159.164 43.6075 158.155 41.6364 157.916 41.0204C157.737 40.5329 157.673 40.0102 157.73 39.4937C157.788 38.9772 157.964 38.4812 158.245 38.0449C158.526 37.6086 158.905 37.244 159.351 36.98C159.797 36.716 160.298 36.5599 160.815 36.5239C161.25 36.4742 161.69 36.4742 162.125 36.5239C162.214 36.5414 162.296 36.5852 162.361 36.6498C162.425 36.7145 162.469 36.7969 162.486 36.8867V43.2379Z" fill="#313131"/><path fill-rule="evenodd" clip-rule="evenodd" d="M74.4749 52.6824L74.4408 52.6414L68.5745 44.3122C68.4685 44.1811 68.4036 44.0215 68.3878 43.8534C68.372 43.6854 68.4061 43.5164 68.4859 43.3677L68.6087 43.2035L75.1911 34.3063C75.2278 34.2543 75.2475 34.1921 75.2475 34.1283C75.2475 34.0646 75.2278 34.0024 75.1911 33.9504C75.1651 33.9106 75.1297 33.8779 75.0881 33.8552C75.0464 33.8325 74.9998 33.8205 74.9524 33.8204H70.8596C70.7951 33.824 70.7321 33.841 70.6745 33.8705C70.617 33.9 70.5662 33.9412 70.5254 33.9915L64.7001 41.6362C64.6508 41.7154 64.5751 41.7747 64.4866 41.8035C64.398 41.8323 64.3021 41.8288 64.2158 41.7936C64.1291 41.7629 64.0545 41.7052 64.0029 41.6288C63.9513 41.5524 63.9256 41.4615 63.9293 41.3693V34.0941C63.9312 34.0154 63.9022 33.9391 63.8487 33.8815C63.7951 33.8239 63.7212 33.7897 63.6428 33.7861H59.9867C59.9867 33.7861 59.7411 33.7861 59.7002 34.0941V54.6877C59.7016 54.7655 59.7316 54.84 59.7845 54.8969C59.8374 54.9537 59.9094 54.989 59.9867 54.9957H63.6428C63.7212 54.9921 63.7951 54.9579 63.8487 54.9003C63.9022 54.8428 63.9312 54.7664 63.9293 54.6877V46.0848C63.9358 46.0311 63.9562 45.9801 63.9885 45.9369C64.0208 45.8936 64.0639 45.8597 64.1135 45.8384C64.1756 45.8187 64.2426 45.8209 64.3034 45.8445C64.3642 45.8681 64.4151 45.9119 64.4477 45.9685L69.7137 53.6816C70.0641 54.14 70.5373 54.489 71.0779 54.6877C71.7342 54.9204 72.4288 55.0249 73.1243 54.9957H75.5117C75.565 54.9953 75.6171 54.9796 75.6618 54.9505C75.7065 54.9214 75.742 54.8801 75.7641 54.8314C75.7964 54.7815 75.8136 54.7233 75.8136 54.6638C75.8136 54.6042 75.7964 54.546 75.7641 54.4961L74.4749 52.6824Z" fill="#313131"/><path fill-rule="evenodd" clip-rule="evenodd" d="M45.8125 69.6489C45.8192 69.9719 45.754 70.2922 45.6215 70.5866C45.4821 70.8556 45.2839 71.0896 45.0417 71.271C44.7676 71.4827 44.4547 71.6385 44.1209 71.7295C43.7171 71.8441 43.299 71.8995 42.8794 71.8938C42.5316 71.8947 42.1844 71.8626 41.8426 71.798C41.5062 71.7266 41.1774 71.6234 40.8604 71.49L41.3037 70.3402C41.804 70.5439 42.3395 70.6462 42.8794 70.6413C43.2597 70.6698 43.6387 70.5711 43.9572 70.3607C44.0755 70.2694 44.1702 70.1509 44.2332 70.015C44.2961 69.8792 44.3254 69.7301 44.3187 69.5805C44.3219 69.4044 44.264 69.2326 44.155 69.0946C44.03 68.9431 43.871 68.8235 43.6911 68.7455C43.4734 68.6498 43.244 68.5831 43.009 68.5471C42.6976 68.4984 42.3828 68.4755 42.0677 68.4786H41.8562V67.3699H42.0677C42.3402 67.3739 42.6123 67.3487 42.8794 67.2946C43.1053 67.2518 43.3237 67.1757 43.5274 67.0687C43.6978 66.9846 43.847 66.8629 43.964 66.7129C44.0721 66.5717 44.1297 66.3981 44.1277 66.2201C44.1315 66.0953 44.105 65.9715 44.0503 65.8594C43.9956 65.7473 43.9145 65.6503 43.8139 65.5768C43.5384 65.3926 43.2096 65.3058 42.8794 65.3304C42.3662 65.3277 41.8579 65.4302 41.3856 65.6315L40.9422 64.5091C41.6112 64.2359 42.3277 64.0986 43.0499 64.1053C43.7267 64.0574 44.3984 64.2513 44.9462 64.6528C45.1625 64.8235 45.3366 65.042 45.455 65.2913C45.5733 65.5406 45.6326 65.814 45.6283 66.0901C45.6361 66.4617 45.5102 66.8237 45.2737 67.1098C45.0349 67.4103 44.7153 67.636 44.3528 67.76C44.5607 67.8272 44.7617 67.9143 44.9531 68.0201C45.1329 68.1252 45.2961 68.2567 45.4374 68.4102C45.5761 68.5616 45.6849 68.7381 45.758 68.9303C45.8419 69.1484 45.8813 69.3811 45.8739 69.6147L45.8125 69.6489ZM52.5246 73.3173H51.5491L51.4946 71.798H47.6474L47.5997 73.3173H46.6174L46.5287 70.9014C46.7919 70.7427 47.0232 70.5361 47.2109 70.2923C47.3912 70.0388 47.5423 69.7656 47.6611 69.4778C47.7829 69.1793 47.8765 68.87 47.9407 68.5539C48.0089 68.2322 48.0703 67.9106 48.1181 67.5958L48.3295 66.1859H51.6583L52.1358 70.6892L52.6269 70.9014L52.545 73.3173H52.5246ZM50.4782 67.2467H49.4209L49.3254 67.8695C49.2913 68.109 49.2504 68.3554 49.1958 68.6224C49.1468 68.8842 49.0807 69.1425 48.998 69.3957C48.9117 69.6473 48.8068 69.8921 48.6842 70.128C48.5609 70.3532 48.4045 70.5585 48.2204 70.7371H50.8329L50.4987 67.2467H50.4782ZM58.2202 68.8482C58.2301 68.9277 58.2301 69.0082 58.2202 69.0877L54.6187 69.5805C54.6351 69.761 54.6884 69.9362 54.7753 70.0952C54.8621 70.2541 54.9806 70.3934 55.1234 70.5044C55.4297 70.7153 55.7959 70.821 56.1671 70.8056C56.4496 70.8086 56.7314 70.7764 57.0061 70.7098C57.2539 70.6539 57.4943 70.5689 57.7223 70.4565L58.1316 71.5173C57.8414 71.6499 57.537 71.7487 57.2243 71.8116C56.842 71.8839 56.4538 71.9206 56.0648 71.9211C55.6479 71.9309 55.2331 71.8589 54.8438 71.709C54.5071 71.5777 54.2057 71.3691 53.9638 71.0999C53.7185 70.8317 53.5326 70.5145 53.4181 70.1691C53.1771 69.3983 53.1771 68.5719 53.4181 67.8011C53.5304 67.4641 53.7039 67.1508 53.9297 66.8771C54.1517 66.6131 54.432 66.4045 54.7483 66.268C55.0929 66.1204 55.465 66.048 55.8397 66.0559C56.1916 66.0502 56.5414 66.1129 56.8697 66.2406C57.1556 66.3552 57.4121 66.533 57.62 66.7608C57.8302 66.9949 57.9904 67.2697 58.0906 67.5684C58.2015 67.9037 58.2545 68.2555 58.2475 68.6086V68.8482H58.2202ZM56.856 68.3623C56.8844 68.0181 56.7821 67.6758 56.5695 67.4041C56.4705 67.2981 56.3496 67.215 56.2153 67.1606C56.081 67.1062 55.9365 67.0819 55.7919 67.0893C55.6197 67.0827 55.4481 67.1149 55.29 67.1836C55.1318 67.2523 54.991 67.3557 54.8779 67.4862C54.6238 67.8323 54.494 68.2544 54.5095 68.6839L56.856 68.3623ZM63.0906 71.5379C62.6391 71.7996 62.1248 71.9322 61.6036 71.9211C61.2837 71.921 60.9667 71.8606 60.669 71.7432C60.3628 71.6277 60.0873 71.4426 59.8642 71.2025C59.6196 70.9378 59.4316 70.6257 59.3116 70.2854C59.1614 69.8689 59.0897 69.4279 59.1002 68.9851C59.0898 68.54 59.1615 68.0968 59.3116 67.6779C59.4317 67.3397 59.6198 67.0299 59.8642 66.7676C60.0913 66.5339 60.3657 66.3518 60.669 66.2338C60.9667 66.1164 61.2837 66.056 61.6036 66.0559C62.1258 66.044 62.6409 66.1791 63.0906 66.4459L62.654 67.4794C62.4118 67.3124 62.1223 67.2284 61.8286 67.2398C61.6583 67.2404 61.4904 67.2801 61.3379 67.3561C61.1853 67.432 61.0522 67.5421 60.9487 67.6779C60.6766 68.0592 60.5462 68.5242 60.5804 68.9919C60.5757 69.2511 60.6102 69.5096 60.6827 69.7584C60.7334 69.9572 60.824 70.1434 60.9487 70.306C61.0544 70.4465 61.1925 70.5592 61.3512 70.6345C61.4994 70.7085 61.6631 70.746 61.8286 70.744C62.1231 70.7534 62.4126 70.667 62.654 70.4976L63.1042 71.5584L63.0906 71.5379ZM68.5475 70.0596C68.5601 70.3229 68.5082 70.5853 68.3965 70.8239C68.2847 71.0625 68.1164 71.27 67.9063 71.4284C67.3571 71.7825 66.7092 71.9504 66.0578 71.9075C65.7006 71.9072 65.3443 71.8729 64.9937 71.8048C64.6715 71.7501 64.359 71.6486 64.066 71.5037V66.1722H65.4302V68.2664L65.7508 68.2049C65.8757 68.1949 66.0011 68.1949 66.126 68.2049C66.7579 68.1621 67.3856 68.3358 67.9063 68.6976C68.1088 68.8612 68.27 69.0704 68.3767 69.3082C68.4834 69.5461 68.5326 69.8059 68.5202 70.0664L68.5475 70.0596ZM67.1833 70.0596C67.1875 69.9334 67.1661 69.8076 67.1204 69.6899C67.0747 69.5723 67.0055 69.4652 66.9172 69.3752C66.6668 69.1924 66.3597 69.105 66.051 69.1288C65.9511 69.1193 65.8506 69.1193 65.7508 69.1288C65.661 69.1378 65.5721 69.1538 65.4848 69.1767V70.9014C65.5693 70.9408 65.6588 70.9684 65.7508 70.9835C65.8609 71.0054 65.9728 71.0169 66.0851 71.0177C66.8217 71.0177 67.1833 70.6961 67.1833 70.0596ZM75.3687 71.798V69.5326H73.5542V71.8253H72.1423V66.2132H73.5542V68.4307H75.3687V66.2132H76.7807V71.8253L75.3687 71.798ZM82.4081 71.5173C82.1268 71.6529 81.8285 71.7496 81.5214 71.8048C81.1237 71.8828 80.7193 71.9217 80.314 71.9211C79.6481 71.9688 78.9842 71.8035 78.4178 71.4489C78.2088 71.2903 78.0422 71.0824 77.9327 70.8436C77.8232 70.6047 77.7743 70.3425 77.7902 70.0801C77.7728 69.7467 77.8717 69.4176 78.0699 69.1493C78.2598 68.8995 78.5114 68.7037 78.7997 68.5813C79.1344 68.4329 79.4879 68.3316 79.8502 68.2802C80.2548 68.2194 80.6624 68.1805 81.0712 68.1638V67.8695C81.083 67.7502 81.0634 67.6299 81.0143 67.5206C80.9653 67.4113 80.8884 67.3168 80.7915 67.2467C80.5561 67.1167 80.2892 67.055 80.0207 67.0687C79.8845 67.059 79.7477 67.059 79.6115 67.0687C79.4714 67.0889 79.3326 67.1163 79.1954 67.1509C79.0595 67.1778 78.9251 67.2121 78.7929 67.2536C78.6788 67.2839 78.567 67.3228 78.4587 67.3699L78.104 66.4186C78.3979 66.2995 78.7014 66.2056 79.0112 66.138C79.3941 66.0519 79.7852 66.0083 80.1776 66.0079C80.7649 65.9668 81.3483 66.1312 81.8283 66.4733C82.037 66.6676 82.198 66.9077 82.2986 67.1749C82.3992 67.4421 82.4367 67.729 82.4081 68.0132V71.4352V71.5173ZM81.0439 69.0877L80.3004 69.1425C80.0883 69.1639 79.8797 69.2122 79.6797 69.2862C79.5165 69.3441 79.3708 69.443 79.2568 69.5737C79.1425 69.7168 79.0843 69.8969 79.0931 70.0801C79.0859 70.1991 79.1098 70.3179 79.1625 70.4247C79.2151 70.5315 79.2946 70.6227 79.3932 70.6892C79.6455 70.8547 79.9453 70.9318 80.2458 70.9082C80.398 70.9185 80.5507 70.9185 80.7029 70.9082C80.8197 70.8963 80.9344 70.8687 81.0439 70.8261V69.1151V69.0877ZM86.685 71.8253V69.7379C86.5077 69.8202 86.3226 69.8844 86.1325 69.9295C85.9325 69.9846 85.726 70.0122 85.5186 70.0117C84.9656 70.0538 84.4186 69.8741 83.9975 69.5121C83.8138 69.3233 83.6719 69.0976 83.5814 68.8499C83.4909 68.6022 83.4537 68.338 83.4722 68.0748V66.2132H84.8979V67.9174C84.8979 68.5608 85.2253 68.8756 85.8869 68.8756C86.0295 68.8733 86.1714 68.855 86.3098 68.8208C86.44 68.7844 86.5658 68.7339 86.685 68.6702V66.2132H88.097V71.8253H86.685ZM93.056 71.8253V68.6292C93.056 68.4923 93.056 68.3554 93.056 68.2049C93.056 68.0543 93.056 67.9448 93.056 67.8763L92.9332 68.1433C92.8715 68.2814 92.7985 68.4142 92.7149 68.5402L90.7095 71.8253H89.3453V66.2132H90.6208V69.293C90.6208 69.471 90.6208 69.6421 90.6208 69.7927C90.6208 69.9432 90.6208 70.039 90.6208 70.0664C90.6208 70.0322 90.6754 69.9432 90.7436 69.8063C90.8118 69.6695 90.88 69.5326 90.9619 69.3957L92.9127 66.2132H94.3179V71.8253H93.056ZM98.7994 71.8253V69.5326H96.985V71.8253H95.573V66.2132H96.985V68.4307H98.8062V66.2132H100.218V71.8253H98.7994ZM105.839 71.5447C105.557 71.6792 105.259 71.7758 104.952 71.8322C104.554 71.9095 104.15 71.9484 103.745 71.9485C103.079 71.9971 102.415 71.8317 101.848 71.4763C101.639 71.3185 101.471 71.1107 101.362 70.8717C101.252 70.6327 101.204 70.37 101.221 70.1075C101.205 69.7753 101.301 69.4473 101.494 69.1767C101.687 68.9299 101.937 68.7347 102.224 68.6086C102.559 68.4621 102.912 68.3608 103.274 68.3075C103.681 68.2448 104.091 68.2037 104.502 68.1843V67.89C104.514 67.7707 104.494 67.6504 104.445 67.5411C104.396 67.4318 104.319 67.3374 104.222 67.2672C103.986 67.1382 103.72 67.0766 103.451 67.0893C103.315 67.0793 103.178 67.0793 103.042 67.0893C102.902 67.1094 102.763 67.1368 102.626 67.1714C102.49 67.1967 102.355 67.231 102.224 67.2741C102.108 67.3056 101.994 67.3444 101.883 67.3904L101.535 66.4391C101.829 66.32 102.132 66.2261 102.442 66.1585C102.825 66.0725 103.216 66.0289 103.608 66.0285C104.196 65.9884 104.779 66.1528 105.259 66.4939C105.468 66.6881 105.629 66.9283 105.729 67.1954C105.83 67.4626 105.867 67.7496 105.839 68.0338V71.4558V71.5447ZM104.475 69.1151L103.724 69.1699C103.515 69.192 103.308 69.2403 103.11 69.3136C102.947 69.3714 102.802 69.4704 102.688 69.601C102.573 69.7442 102.515 69.9243 102.524 70.1075C102.52 70.2253 102.544 70.3423 102.595 70.4485C102.646 70.5546 102.723 70.6466 102.817 70.7166C103.073 70.8808 103.374 70.9576 103.677 70.9356C103.829 70.9456 103.981 70.9456 104.134 70.9356C104.25 70.9237 104.365 70.8961 104.475 70.8535V69.1425V69.1151ZM111.882 68.8756C111.889 68.9553 111.889 69.0354 111.882 69.1151L108.274 69.6079C108.29 69.7892 108.344 69.9652 108.432 70.1243C108.52 70.2835 108.641 70.4223 108.786 70.5318C109.089 70.7436 109.453 70.8494 109.822 70.8329C110.105 70.836 110.387 70.8038 110.661 70.7371C110.909 70.6813 111.15 70.5963 111.378 70.4839L111.787 71.5447C111.497 71.6773 111.192 71.7761 110.88 71.839C110.497 71.9113 110.109 71.9479 109.72 71.9485C109.303 71.9583 108.888 71.8862 108.499 71.7364C108.162 71.6051 107.861 71.3964 107.619 71.1272C107.374 70.8591 107.188 70.5419 107.074 70.1965C106.842 69.4242 106.842 68.6007 107.074 67.8284C107.186 67.4914 107.359 67.1782 107.585 66.9045C107.809 66.6421 108.088 66.4338 108.404 66.2954C108.748 66.1477 109.12 66.0754 109.495 66.0832C109.847 66.076 110.197 66.1388 110.525 66.268C110.811 66.3826 111.067 66.5603 111.275 66.7881C111.486 67.0223 111.646 67.2971 111.746 67.5958C111.859 67.9306 111.915 68.2824 111.91 68.636V68.8482L111.882 68.8756ZM110.518 68.3896C110.549 68.0463 110.449 67.7041 110.239 67.4315C110.139 67.3245 110.017 67.2409 109.881 67.1865C109.746 67.1321 109.6 67.1082 109.454 67.1167C109.282 67.111 109.111 67.1437 108.953 67.2123C108.795 67.281 108.654 67.3838 108.54 67.5136C108.285 67.859 108.158 68.2822 108.179 68.7113L110.518 68.3896ZM115.293 67.322V71.8253H113.867V67.322H112.503V66.2132H116.685V67.322H115.293ZM121.227 71.5653C120.779 71.8278 120.266 71.9605 119.747 71.9485C119.425 71.9484 119.106 71.888 118.806 71.7706C118.503 71.6532 118.23 71.4684 118.008 71.2299C117.763 70.9643 117.573 70.6526 117.449 70.3128C117.304 69.895 117.235 69.4546 117.244 69.0124C117.235 68.568 117.304 68.1255 117.449 67.7052C117.574 67.3679 117.764 67.0586 118.008 66.795C118.234 66.5629 118.506 66.381 118.806 66.2612C119.106 66.1437 119.425 66.0833 119.747 66.0832C120.268 66.0689 120.781 66.2043 121.227 66.4733L120.784 67.4862C120.539 67.3209 120.247 67.2371 119.952 67.2467C119.782 67.2487 119.614 67.2892 119.462 67.365C119.31 67.4408 119.176 67.5501 119.072 67.6847C118.802 68.0669 118.674 68.5318 118.71 68.9988C118.704 69.2576 118.736 69.516 118.806 69.7653C118.862 69.9633 118.954 70.1491 119.079 70.3128C119.18 70.4492 119.312 70.5599 119.463 70.6359C119.615 70.712 119.782 70.7514 119.952 70.7508C120.249 70.7617 120.541 70.6753 120.784 70.5044L121.227 71.5653ZM125.32 71.8253V69.6489H124.727C124.55 69.642 124.375 69.6924 124.229 69.7927C124.085 69.8988 123.974 70.0435 123.908 70.2101L123.267 71.8253H121.787L122.469 70.1143C122.543 69.9468 122.639 69.7902 122.755 69.6489C122.872 69.5107 123.01 69.3927 123.165 69.2999C122.867 69.2074 122.602 69.0317 122.401 68.7934C122.179 68.5408 122.062 68.2127 122.073 67.8763C122.069 67.6196 122.13 67.366 122.249 67.1388C122.368 66.9116 122.542 66.7181 122.755 66.576C123.299 66.2281 123.94 66.0627 124.583 66.1037C124.97 66.1035 125.356 66.1401 125.736 66.2132C126.073 66.2717 126.401 66.3729 126.712 66.5144V71.8459L125.32 71.8253ZM125.32 67.0961C125.077 67.0111 124.82 66.9717 124.563 66.9798C124.269 66.9557 123.977 67.0437 123.744 67.2262C123.654 67.3145 123.584 67.4214 123.54 67.5397C123.495 67.6579 123.476 67.7844 123.485 67.9106C123.473 68.037 123.49 68.1646 123.535 68.2833C123.58 68.4021 123.651 68.5088 123.744 68.595C123.982 68.7663 124.271 68.8487 124.563 68.8277H125.32V67.0687V67.0961ZM136.193 73.3447H135.218L135.17 71.8253H131.316L131.261 73.3447H130.286L130.19 70.9288C130.456 70.7738 130.688 70.5667 130.873 70.3196C131.053 70.0662 131.204 69.7929 131.323 69.5052C131.447 69.2069 131.543 68.8975 131.609 68.5813C131.677 68.2596 131.732 67.9379 131.787 67.6231L131.991 66.2132H135.327L135.804 70.7166L136.289 70.9288L136.207 73.3447H136.193ZM134.147 67.2741H133.069L132.974 67.8969C132.939 68.1364 132.898 68.3828 132.851 68.6497C132.796 68.9109 132.728 69.1691 132.646 69.4231C132.56 69.6747 132.455 69.9194 132.332 70.1554C132.209 70.3788 132.055 70.5838 131.875 70.7645H134.481L134.147 67.2741ZM141.937 69.0124C141.94 69.4063 141.884 69.7984 141.773 70.1759C141.669 70.5145 141.503 70.8303 141.282 71.1067C141.068 71.3725 140.795 71.5837 140.484 71.7227C140.141 71.8715 139.772 71.9483 139.399 71.9483C139.026 71.9483 138.657 71.8715 138.315 71.7227C138.006 71.5837 137.734 71.3724 137.523 71.1067C137.298 70.8336 137.13 70.5168 137.032 70.1759C136.814 69.4157 136.814 68.6092 137.032 67.849C137.132 67.5108 137.299 67.1965 137.523 66.925C137.738 66.6632 138.008 66.4528 138.315 66.3091C138.657 66.1603 139.026 66.0835 139.399 66.0835C139.772 66.0835 140.141 66.1603 140.484 66.3091C140.792 66.4527 141.064 66.6631 141.282 66.925C141.501 67.1998 141.668 67.5131 141.773 67.849C141.885 68.2264 141.94 68.6186 141.937 69.0124ZM140.525 69.0124C140.547 68.5553 140.45 68.1002 140.245 67.6916C140.162 67.5406 140.04 67.4157 139.89 67.331C139.741 67.2464 139.571 67.2053 139.399 67.2125C139.228 67.2042 139.059 67.2448 138.91 67.3297C138.762 67.4145 138.64 67.54 138.56 67.6916C138.355 68.1002 138.258 68.5553 138.28 69.0124C138.257 69.4697 138.353 69.9252 138.56 70.3333C138.642 70.4831 138.764 70.6067 138.912 70.6902C139.06 70.7737 139.229 70.8137 139.399 70.8056C139.57 70.8126 139.739 70.7722 139.888 70.6889C140.037 70.6056 140.161 70.4826 140.245 70.3333C140.452 69.9252 140.548 69.4697 140.525 69.0124ZM148.662 71.839L148.28 68.3212C148.28 68.1341 148.267 67.9699 148.239 67.8284C148.239 67.6916 148.239 67.582 148.239 67.5136C148.239 67.5889 148.198 67.7053 148.178 67.849C148.157 67.9927 148.103 68.1501 148.048 68.3212L146.93 71.839H145.872L144.754 68.3212C144.699 68.1364 144.658 67.9722 144.624 67.8216C144.59 67.671 144.57 67.5684 144.556 67.5136C144.556 67.5752 144.556 67.6915 144.556 67.8558C144.556 68.0201 144.556 68.1706 144.522 68.3212L144.133 71.839H142.803L143.56 66.227H145.19L146.22 69.4505C146.267 69.5844 146.303 69.7217 146.329 69.8611C146.329 69.9911 146.377 70.1006 146.391 70.1965L146.452 69.8611C146.478 69.7223 146.512 69.5852 146.554 69.4505L147.571 66.227H149.283L150.04 71.839H148.662Z" fill="#313131"/></svg>