<svg width="190" height="96" viewBox="0 0 190 96" fill="none" xmlns="http://www.w3.org/2000/svg"><path transform="translate(3.84)" fill="#B5CE42" d="M0 0H182.323V96H0z"/><path fill-rule="evenodd" clip-rule="evenodd" d="M33.692 43.0995C33.5965 43.0589 33.5419 42.9031 33.5419 42.9031C33.5253 42.8342 33.5308 42.7619 33.5577 42.6963C33.5846 42.6306 33.6316 42.5751 33.692 42.5374C34.2872 42.229 34.8211 41.8159 35.2677 41.3181C35.8427 40.5345 36.1248 39.5765 36.0658 38.6087C36.0828 37.9429 35.9304 37.2835 35.6228 36.6915C35.3152 36.0996 34.8623 35.5942 34.3059 35.222C33.1327 34.3821 31.5092 34.0435 29.4356 34.0435H23.8218C23.8218 34.0435 23.5626 34.0435 23.5353 34.355V54.7363C23.5337 54.7932 23.5479 54.8494 23.5762 54.8989C23.6003 54.943 23.6356 54.9801 23.6788 55.0062C23.7219 55.0324 23.7712 55.0468 23.8218 55.0479H27.1505C28.8831 55.0479 30.0904 55.1089 30.7657 55.0479C31.8605 55.014 32.9371 54.7605 33.9308 54.3028C35.0019 53.7387 35.9069 52.9078 36.5569 51.8915C37.2419 50.8949 37.5972 49.7111 37.5733 48.5048C37.593 47.8208 37.4766 47.1396 37.2308 46.5003C36.985 45.8611 36.6146 45.2763 36.1408 44.7794C35.4754 44.0256 34.6348 43.4443 33.692 43.086V43.0995ZM27.778 37.4505C27.7693 37.3748 27.7887 37.2986 27.8327 37.2362C27.8767 37.1738 27.9422 37.1295 28.0168 37.1118C28.3662 37.053 28.7197 37.0213 29.0741 37.017C29.751 36.9981 30.4089 37.241 30.909 37.6944C31.3823 38.2403 31.6265 38.9459 31.5911 39.6654C31.6182 40.1027 31.5292 40.5393 31.3329 40.9316C31.1365 41.3239 30.8398 41.6581 30.4724 41.9007C29.8536 42.26 29.1417 42.4297 28.4261 42.3883L28.0168 42.3409C27.9439 42.3295 27.8776 42.2924 27.83 42.2365C27.7824 42.1805 27.7567 42.1094 27.7576 42.0361V37.4437L27.778 37.4505ZM32.3619 51.4038C31.6375 51.9683 30.7381 52.2652 29.8176 52.2437H29.3401L28.0782 52.1421C28.0004 52.1369 27.9275 52.1025 27.8742 52.0459C27.821 51.9893 27.7915 51.9147 27.7917 51.8373V45.4702C27.7905 45.398 27.8153 45.3277 27.8615 45.2718C27.9077 45.216 27.9724 45.1783 28.0441 45.1655L28.9581 45.0842C30.0608 45.0231 31.1519 45.3333 32.0549 45.9647C32.4957 46.323 32.8448 46.7799 33.0736 47.2979C33.3024 47.8159 33.4044 48.3803 33.3714 48.945C33.3908 49.4028 33.3107 49.8594 33.1365 50.2837C32.9623 50.7079 32.6981 51.09 32.3619 51.4038Z" fill="#1C4530"/><path fill-rule="evenodd" clip-rule="evenodd" d="M55.6345 34.0356H52.64C52.5702 34.0382 52.502 34.0567 52.4405 34.0896C52.379 34.1225 52.3259 34.1689 52.2853 34.2253L45.0344 45.266C44.9847 45.3476 44.9053 45.4071 44.8126 45.4323C44.72 45.4575 44.6212 45.4465 44.5365 45.4015C44.4713 45.3642 44.4159 45.3123 44.3744 45.25C44.333 45.1877 44.3067 45.1166 44.2977 45.0425V34.3405C44.2978 34.2619 44.2673 34.1864 44.2127 34.1296C44.158 34.0728 44.0834 34.0391 44.0044 34.0356H40.3619C40.2835 34.0407 40.2098 34.0749 40.1555 34.1313C40.1011 34.1878 40.0701 34.2624 40.0686 34.3405V54.7014C40.0731 54.7821 40.1065 54.8586 40.1628 54.917C40.2191 54.9753 40.2946 55.0118 40.3756 55.0198H42.6811C42.7491 55.0177 42.8157 54.9994 42.875 54.9664C42.9344 54.9334 42.9849 54.8867 43.0222 54.8301L50.8938 43.1053C50.9519 43.0356 51.0305 42.9858 51.1186 42.9627C51.2066 42.9396 51.2998 42.9445 51.3849 42.9766C51.4623 43.0128 51.5284 43.069 51.5764 43.1393C51.6244 43.2096 51.6525 43.2915 51.6578 43.3762V54.715C51.6569 54.7532 51.6636 54.7913 51.6775 54.827C51.6914 54.8626 51.7122 54.8953 51.7388 54.9229C51.7654 54.9506 51.7973 54.9728 51.8325 54.9883C51.8678 55.0037 51.9057 55.0121 51.9443 55.013H55.655C55.7256 54.9994 55.7895 54.9626 55.8366 54.9086C55.8836 54.8545 55.9109 54.7863 55.9142 54.715V34.3405C55.9161 34.2637 55.8881 34.1891 55.836 34.1323C55.7839 34.0755 55.7117 34.0409 55.6345 34.0356Z" fill="#1C4530"/><path fill-rule="evenodd" clip-rule="evenodd" d="M149.369 34.0361H146.395C146.325 34.0397 146.257 34.0586 146.196 34.0914C146.134 34.1242 146.081 34.1701 146.04 34.2258L138.796 45.2665C138.745 45.3486 138.664 45.4083 138.57 45.4335C138.477 45.4586 138.377 45.4474 138.291 45.402C138.226 45.3646 138.17 45.3128 138.129 45.2505C138.088 45.1882 138.061 45.1171 138.052 45.043V34.3409C138.052 34.2624 138.022 34.1868 137.967 34.1301C137.913 34.0733 137.838 34.0396 137.759 34.0361H134.11C134.031 34.0412 133.958 34.0754 133.903 34.1318C133.849 34.1882 133.818 34.2629 133.816 34.3409V54.7019C133.822 54.7832 133.857 54.8598 133.915 54.918C133.972 54.9763 134.048 55.0125 134.13 55.0203H136.429C136.498 55.0177 136.565 54.9992 136.625 54.9663C136.686 54.9333 136.738 54.8869 136.777 54.8306L144.648 43.1058C144.708 43.0356 144.787 42.9854 144.877 42.9624C144.966 42.9393 145.06 42.9444 145.146 42.9771C145.222 43.0142 145.287 43.0709 145.334 43.1411C145.381 43.2113 145.408 43.2926 145.412 43.3767V54.7155C145.411 54.7537 145.418 54.7918 145.432 54.8274C145.446 54.8631 145.467 54.8957 145.493 54.9234C145.52 54.9511 145.552 54.9733 145.587 54.9887C145.622 55.0042 145.66 55.0126 145.699 55.0135H149.41C149.48 54.9999 149.544 54.9631 149.591 54.9091C149.638 54.855 149.665 54.7868 149.669 54.7155V34.3409C149.67 34.3012 149.663 34.2618 149.648 34.2248C149.633 34.1879 149.611 34.1542 149.583 34.1258C149.555 34.0974 149.522 34.0748 149.485 34.0594C149.448 34.0441 149.409 34.0361 149.369 34.0361Z" fill="#1C4530"/><path fill-rule="evenodd" clip-rule="evenodd" d="M92.0512 34.0361H77.6108C77.5324 34.0397 77.4585 34.0735 77.4049 34.1305C77.3514 34.1875 77.3224 34.263 77.3243 34.3409V37.9105C77.324 37.9869 77.3526 38.0606 77.4044 38.117C77.4561 38.1735 77.5274 38.2086 77.604 38.2154H82.2492C82.3577 38.2285 82.4578 38.2805 82.5306 38.3615C82.6034 38.4425 82.644 38.547 82.6448 38.6556V54.7222C82.6446 54.7997 82.6742 54.8743 82.7274 54.9309C82.7806 54.9875 82.8535 55.0219 82.9313 55.0271H86.5875C86.6619 55.0223 86.732 54.9908 86.7847 54.9384C86.8374 54.8861 86.8691 54.8164 86.874 54.7426V38.6556C86.87 38.5468 86.908 38.4407 86.9803 38.3588C87.0526 38.277 87.1536 38.2257 87.2628 38.2154H92.0376C92.1161 38.2103 92.1897 38.1761 92.244 38.1197C92.2984 38.0632 92.3294 37.9886 92.3309 37.9105V34.3409C92.3312 34.2646 92.3026 34.1909 92.2508 34.1345C92.1991 34.078 92.1278 34.0429 92.0512 34.0361Z" fill="#1C4530"/><path fill-rule="evenodd" clip-rule="evenodd" d="M129.155 35.5475C127.643 34.5055 125.83 33.9844 123.991 34.0641H117.995C117.913 34.0832 117.839 34.1287 117.785 34.1935C117.73 34.2583 117.699 34.3389 117.695 34.4231V54.7434C117.697 54.8219 117.729 54.8968 117.785 54.9523C117.841 55.0078 117.916 55.0397 117.995 55.0415H121.74C121.815 55.0369 121.886 55.0056 121.94 54.9534C121.994 54.9011 122.027 54.8314 122.034 54.757V47.821C122.029 47.7036 122.07 47.5889 122.147 47.4998C122.224 47.4106 122.332 47.3536 122.45 47.3401C124.752 47.2456 126.959 46.4032 128.732 44.9423C129.484 44.345 130.093 43.589 130.514 42.729C130.935 41.8691 131.158 40.9268 131.167 39.9706C131.2 39.1256 131.036 38.2846 130.688 37.5128C130.34 36.741 129.818 36.0592 129.162 35.5204L129.155 35.5475ZM125.622 42.3954C125.238 42.8543 124.759 43.2251 124.217 43.4823C123.676 43.7396 123.084 43.8772 122.484 43.8856C122.366 43.8932 122.249 43.8552 122.159 43.7794C122.069 43.7036 122.012 43.596 121.999 43.4792V37.2205C122.018 37.1482 122.054 37.0816 122.106 37.0271C122.157 36.9726 122.221 36.932 122.293 36.909H122.341C122.478 36.8782 122.617 36.8555 122.757 36.8412C123.405 36.7825 124.058 36.9003 124.644 37.1819C125.231 37.4635 125.729 37.8983 126.085 38.4398C126.459 39.0572 126.617 39.7804 126.533 40.4962C126.449 41.2119 126.128 41.8799 125.622 42.3954Z" fill="#1C4530"/><path fill-rule="evenodd" clip-rule="evenodd" d="M104.091 33.3726C101.948 33.3672 99.8524 33.9933 98.0684 35.1715C96.2845 36.3497 94.8928 38.027 94.0694 39.9912C93.2461 41.9553 93.0282 44.1178 93.4434 46.205C93.8586 48.2921 94.8881 50.21 96.4016 51.7158C97.9151 53.2216 99.8446 54.2475 101.946 54.6638C104.047 55.08 106.225 54.8677 108.204 54.0539C110.184 53.24 111.876 51.8612 113.066 50.092C114.256 48.3228 114.89 46.2427 114.889 44.1153C114.89 41.2691 113.754 38.5387 111.729 36.5242C109.704 34.5098 106.957 33.3762 104.091 33.3726ZM104.091 50.5162C102.815 50.5189 101.568 50.1457 100.506 49.444C99.444 48.7423 98.6156 47.7436 98.1257 46.5742C97.6357 45.4048 97.5061 44.1174 97.7533 42.8748C98.0005 41.6323 98.6133 40.4905 99.5142 39.594C100.415 38.6974 101.564 38.0864 102.814 37.8384C104.065 37.5903 105.362 37.7163 106.541 38.2003C107.719 38.6844 108.727 39.5048 109.436 40.5577C110.145 41.6106 110.523 42.8487 110.523 44.1153C110.524 44.955 110.358 45.7866 110.036 46.5627C109.713 47.3388 109.239 48.0442 108.642 48.6386C108.045 49.233 107.335 49.7047 106.554 50.0269C105.773 50.349 104.936 50.5153 104.091 50.5162Z" fill="#1C4530"/><path fill-rule="evenodd" clip-rule="evenodd" d="M102.716 31.2189C102.792 31.3011 102.892 31.3579 103.002 31.3814C104.293 31.334 105.577 31.1639 106.836 30.8734C107.838 30.6637 108.8 30.2979 109.687 29.7897C110.374 29.3776 111.002 28.8765 111.556 28.2995C112.012 27.8441 112.413 27.3372 112.75 26.789C113.025 26.32 113.253 25.8255 113.432 25.3124C113.432 25.2311 113.493 25.1431 113.52 25.055C113.551 24.9654 113.56 24.8702 113.548 24.7764C113.537 24.6826 113.504 24.5926 113.452 24.5131C113.376 24.4309 113.276 24.3741 113.166 24.3506C111.874 24.3998 110.59 24.5722 109.332 24.8654C107.533 25.2124 105.886 26.1045 104.619 27.419C104.165 27.8761 103.764 28.3828 103.425 28.9294C103.154 29.4004 102.925 29.8946 102.743 30.4061C102.743 30.4873 102.675 30.5754 102.654 30.6634C102.622 30.7539 102.612 30.8505 102.624 30.9457C102.636 31.0408 102.669 31.132 102.722 31.2121L102.716 31.2189Z" fill="#1C4530"/><path fill-rule="evenodd" clip-rule="evenodd" d="M166.114 33.9552H159.64C157.594 33.9552 156.005 34.4293 154.865 35.3911C152.621 37.2809 152.219 41.2028 154.279 43.3906C155.029 44.1655 155.914 44.7989 156.891 45.2601C157 45.3177 157.081 45.4152 157.118 45.5316C157.155 45.6481 157.145 45.7743 157.089 45.8832L154.879 50.2656L152.908 54.5126V54.5532C152.882 54.6141 152.876 54.6813 152.891 54.7457C152.906 54.81 152.94 54.8682 152.99 54.9122C153.042 54.9558 153.106 54.9839 153.174 54.9935H154.176C154.888 55.0427 155.601 54.917 156.251 54.6276C156.902 54.3381 157.471 53.8938 157.908 53.334C158.97 51.5954 159.945 49.8049 160.827 47.9694C160.827 47.9694 160.827 47.922 160.861 47.9017L160.916 47.7798C160.973 47.6423 161.067 47.5227 161.187 47.4333C161.307 47.344 161.449 47.2882 161.598 47.2718C161.662 47.2725 161.725 47.2863 161.783 47.3123C161.842 47.3384 161.894 47.3761 161.937 47.4232C161.98 47.4703 162.012 47.5256 162.033 47.5858C162.053 47.646 162.061 47.7098 162.055 47.773V54.7226C162.061 54.7995 162.095 54.8718 162.15 54.9264C162.205 54.981 162.278 55.0144 162.355 55.0206H166.12C166.159 55.0206 166.198 55.0129 166.234 54.9978C166.27 54.9827 166.303 54.9607 166.33 54.9329C166.358 54.9051 166.379 54.8722 166.393 54.8361C166.408 54.8 166.415 54.7614 166.414 54.7226V34.26C166.417 34.2204 166.411 34.1806 166.398 34.1432C166.384 34.1059 166.363 34.0717 166.335 34.043C166.307 34.0143 166.274 33.9917 166.237 33.9765C166.2 33.9614 166.16 33.9541 166.12 33.9552H166.114ZM162.021 43.3906C162 43.4739 161.956 43.5495 161.893 43.6083C161.83 43.6672 161.751 43.7068 161.666 43.7225C158.699 43.7564 157.689 41.8056 157.451 41.196C157.272 40.7135 157.208 40.1961 157.265 39.685C157.322 39.1738 157.498 38.6829 157.78 38.2511C158.061 37.8193 158.44 37.4585 158.886 37.1972C159.332 36.9359 159.833 36.7814 160.35 36.7458C160.785 36.6967 161.224 36.6967 161.659 36.7458C161.749 36.7631 161.831 36.8065 161.895 36.8704C161.96 36.9344 162.003 37.016 162.021 37.1048V43.3906Z" fill="#1C4530"/><path fill-rule="evenodd" clip-rule="evenodd" d="M74.0091 52.7376L73.9749 52.697L68.1087 44.4537C68.0027 44.324 67.9377 44.166 67.922 43.9997C67.9062 43.8333 67.9403 43.6661 68.0201 43.519L68.1428 43.3564L74.7253 34.5509C74.762 34.4994 74.7817 34.4379 74.7817 34.3748C74.7817 34.3117 74.762 34.2502 74.7253 34.1987C74.6993 34.1593 74.6639 34.1269 74.6222 34.1045C74.5806 34.082 74.5339 34.0702 74.4865 34.07H70.3938C70.3293 34.0736 70.2663 34.0905 70.2087 34.1196C70.1511 34.1488 70.1003 34.1896 70.0596 34.2393L64.2343 41.8053C64.1849 41.8837 64.1093 41.9423 64.0207 41.9708C63.9321 41.9993 63.8363 41.9959 63.75 41.9611C63.6633 41.9307 63.5887 41.8735 63.5371 41.798C63.4855 41.7224 63.4597 41.6323 63.4635 41.5411V34.3409C63.4654 34.263 63.4364 34.1875 63.3829 34.1305C63.3293 34.0735 63.2554 34.0397 63.177 34.0361H59.5209C59.5209 34.0361 59.2753 34.0361 59.2344 34.3409V54.7222C59.2358 54.7992 59.2658 54.8729 59.3187 54.9292C59.3716 54.9855 59.4436 55.0204 59.5209 55.027H63.177C63.2554 55.0235 63.3293 54.9896 63.3829 54.9327C63.4364 54.8757 63.4654 54.8001 63.4635 54.7222V46.208C63.4699 46.1549 63.4904 46.1044 63.5227 46.0616C63.555 46.0188 63.5981 45.9852 63.6477 45.9642C63.7098 45.9447 63.7768 45.9468 63.8376 45.9702C63.8983 45.9936 63.9493 46.0369 63.9819 46.0929L69.2479 53.7265C69.5983 54.1802 70.0715 54.5255 70.6121 54.7222C71.2684 54.9525 71.963 55.056 72.6585 55.027H75.0459C75.0992 55.0266 75.1512 55.0111 75.196 54.9823C75.2407 54.9535 75.2762 54.9126 75.2983 54.8645C75.3306 54.8151 75.3477 54.7574 75.3477 54.6985C75.3477 54.6396 75.3306 54.582 75.2983 54.5326L74.0091 52.7376Z" fill="#1C4530"/><path fill-rule="evenodd" clip-rule="evenodd" d="M45.3467 69.5292C45.3534 69.8488 45.2881 70.1658 45.1557 70.4572C45.0163 70.7235 44.8181 70.955 44.5759 71.1345C44.3018 71.3441 43.9889 71.4983 43.6551 71.5883C43.2513 71.7018 42.8331 71.7565 42.4136 71.7509C42.0658 71.7518 41.7186 71.72 41.3768 71.6561C41.0404 71.5854 40.7115 71.4834 40.3945 71.3513L40.8379 70.2133C41.3382 70.4149 41.8737 70.5162 42.4136 70.5114C42.7939 70.5396 43.1729 70.4419 43.4913 70.2336C43.6097 70.1433 43.7044 70.026 43.7673 69.8915C43.8303 69.7571 43.8596 69.6096 43.8529 69.4615C43.8561 69.2872 43.7982 69.1172 43.6892 68.9806C43.5642 68.8307 43.4052 68.7123 43.2253 68.6351C43.0075 68.5404 42.7782 68.4744 42.5432 68.4387C42.2318 68.3906 41.917 68.3679 41.6019 68.371H41.3904V67.2737H41.6019C41.8744 67.2776 42.1465 67.2527 42.4136 67.1992C42.6395 67.1568 42.8579 67.0814 43.0616 66.9756C43.232 66.8923 43.3812 66.7719 43.4982 66.6234C43.6063 66.4837 43.6639 66.3119 43.6619 66.1357C43.6657 66.0122 43.6392 65.8897 43.5845 65.7787C43.5298 65.6678 43.4487 65.5718 43.3481 65.499C43.0726 65.3167 42.7437 65.2309 42.4136 65.2552C41.9004 65.2526 41.3921 65.354 40.9198 65.5532L40.4764 64.4424C41.1454 64.1719 41.8618 64.0361 42.5841 64.0427C43.2608 63.9953 43.9326 64.1872 44.4804 64.5846C44.6967 64.7535 44.8708 64.9698 44.9891 65.2165C45.1075 65.4633 45.1668 65.7338 45.1625 66.007C45.1703 66.3748 45.0444 66.7331 44.8078 67.0163C44.5691 67.3137 44.2495 67.537 43.887 67.6597C44.0949 67.7263 44.2959 67.8125 44.4872 67.9171C44.6671 68.0212 44.8303 68.1513 44.9715 68.3032C45.1103 68.4531 45.2191 68.6278 45.2921 68.818C45.3761 69.0338 45.4155 69.2641 45.4081 69.4953L45.3467 69.5292ZM52.0587 73.1598H51.0833L51.0287 71.6561H47.1816L47.1338 73.1598H46.1516L46.0629 70.7688C46.3261 70.6117 46.5574 70.4072 46.745 70.1659C46.9254 69.915 47.0764 69.6446 47.1952 69.3599C47.317 69.0644 47.4107 68.7583 47.4749 68.4455C47.5431 68.1271 47.6045 67.8088 47.6523 67.4972L47.8637 66.1018H51.1925L51.6699 70.5588L52.1611 70.7688L52.0792 73.1598H52.0587ZM50.0124 67.1517H48.9551L48.8596 67.7681C48.8255 68.0052 48.7846 68.249 48.73 68.5132C48.681 68.7724 48.6149 69.028 48.5322 69.2786C48.4458 69.5276 48.341 69.7698 48.2184 70.0034C48.0951 70.2262 47.9387 70.4294 47.7546 70.6062H50.3671L50.0328 67.1517H50.0124ZM57.7544 68.7367C57.7643 68.8154 57.7643 68.8951 57.7544 68.9738L54.1528 69.4615C54.1693 69.6401 54.2226 69.8135 54.3094 69.9708C54.3963 70.1281 54.5148 70.266 54.6576 70.3759C54.9639 70.5846 55.3301 70.6892 55.7013 70.6739C55.9838 70.6769 56.2656 70.6451 56.5403 70.5791C56.7881 70.5238 57.0285 70.4397 57.2565 70.3285L57.6657 71.3784C57.3756 71.5096 57.0712 71.6073 56.7585 71.6696C56.3762 71.7411 55.988 71.7774 55.5989 71.778C55.182 71.7877 54.7673 71.7164 54.3779 71.568C54.0412 71.4381 53.7399 71.2316 53.498 70.9652C53.2527 70.6998 53.0667 70.3858 52.9523 70.044C52.7113 69.2811 52.7113 68.4633 52.9523 67.7004C53.0646 67.3669 53.2381 67.0568 53.4639 66.786C53.6859 66.5246 53.9662 66.3182 54.2824 66.1831C54.6271 66.037 54.9991 65.9654 55.3738 65.9732C55.7258 65.9676 56.0756 66.0297 56.4038 66.156C56.6898 66.2694 56.9462 66.4454 57.1542 66.6708C57.3644 66.9025 57.5246 67.1745 57.6248 67.4701C57.7357 67.8019 57.7887 68.1501 57.7817 68.4996V68.7367H57.7544ZM56.3902 68.2558C56.4186 67.9151 56.3163 67.5764 56.1037 67.3075C56.0047 67.2026 55.8838 67.1203 55.7495 67.0665C55.6152 67.0127 55.4707 66.9886 55.3261 66.9959C55.1538 66.9894 54.9823 67.0213 54.8241 67.0893C54.666 67.1573 54.5251 67.2596 54.4121 67.3888C54.158 67.7313 54.0281 68.1491 54.0437 68.5742L56.3902 68.2558ZM62.6247 71.3987C62.1733 71.6577 61.659 71.7889 61.1377 71.778C60.8179 71.7778 60.5009 71.7181 60.2032 71.6019C59.897 71.4876 59.6215 71.3044 59.3983 71.0668C59.1538 70.8048 58.9658 70.4959 58.8458 70.1591C58.6956 69.7469 58.6239 69.3105 58.6344 68.8722C58.624 68.4317 58.6957 67.9931 58.8458 67.5785C58.9659 67.2438 59.154 66.9371 59.3983 66.6776C59.6254 66.4463 59.8999 66.2661 60.2032 66.1493C60.5009 66.0331 60.8179 65.9733 61.1377 65.9732C61.66 65.9614 62.1751 66.0952 62.6247 66.3592L62.1882 67.382C61.946 67.2168 61.6565 67.1336 61.3628 67.145C61.1925 67.1455 61.0246 67.1848 60.872 67.26C60.7195 67.3352 60.5863 67.4441 60.4829 67.5785C60.2107 67.9559 60.0804 68.416 60.1146 68.879C60.1099 69.1355 60.1444 69.3913 60.2169 69.6376C60.2676 69.8342 60.3581 70.0186 60.4829 70.1795C60.5886 70.3186 60.7267 70.4301 60.8853 70.5046C61.0336 70.5778 61.1973 70.615 61.3628 70.613C61.6572 70.6223 61.9468 70.5368 62.1882 70.3691L62.6384 71.419L62.6247 71.3987ZM68.0817 69.9356C68.0943 70.1962 68.0424 70.4559 67.9306 70.6921C67.8189 70.9282 67.6506 71.1336 67.4405 71.2903C66.8913 71.6408 66.2434 71.807 65.592 71.7644C65.2348 71.7642 64.8785 71.7302 64.5278 71.6629C64.2057 71.6087 63.8932 71.5083 63.6002 71.3648V66.0883H64.9644V68.161L65.285 68.1C65.4099 68.0902 65.5353 68.0902 65.6602 68.1C66.2921 68.0577 66.9198 68.2296 67.4405 68.5877C67.643 68.7496 67.8042 68.9566 67.9109 69.192C68.0175 69.4274 68.0667 69.6845 68.0544 69.9424L68.0817 69.9356ZM66.7175 69.9356C66.7217 69.8107 66.7003 69.6862 66.6546 69.5698C66.6088 69.4533 66.5397 69.3473 66.4514 69.2583C66.201 69.0773 65.8939 68.9909 65.5851 69.0144C65.4853 69.005 65.3848 69.005 65.285 69.0144C65.1952 69.0233 65.1063 69.0392 65.019 69.0619V70.7688C65.1035 70.8078 65.193 70.8351 65.285 70.85C65.3951 70.8717 65.507 70.883 65.6192 70.8839C66.3559 70.8839 66.7175 70.5655 66.7175 69.9356ZM74.9029 71.6561V69.4141H73.0884V71.6832H71.6764V66.1289H73.0884V68.3236H74.9029V66.1289H76.3149V71.6832L74.9029 71.6561ZM81.9423 71.3784C81.661 71.5125 81.3627 71.6082 81.0556 71.6629C80.6578 71.74 80.2535 71.7786 79.8482 71.778C79.1823 71.8252 78.5184 71.6615 77.9519 71.3106C77.743 71.1537 77.5764 70.9479 77.4669 70.7115C77.3574 70.4752 77.3084 70.2156 77.3244 69.9559C77.307 69.6259 77.4059 69.3002 77.6041 69.0348C77.794 68.7875 78.0455 68.5937 78.3339 68.4725C78.6686 68.3257 79.0221 68.2254 79.3844 68.1745C79.789 68.1144 80.1966 68.0759 80.6054 68.0594V67.7681C80.6172 67.6501 80.5976 67.531 80.5485 67.4228C80.4994 67.3146 80.4226 67.2212 80.3257 67.1517C80.0902 67.023 79.8233 66.9621 79.5549 66.9756C79.4187 66.966 79.2819 66.966 79.1456 66.9756C79.0056 66.9956 78.8667 67.0227 78.7295 67.0569C78.5937 67.0836 78.4593 67.1175 78.3271 67.1585C78.2129 67.1885 78.1012 67.227 77.9929 67.2737L77.6382 66.3322C77.9321 66.2143 78.2356 66.1214 78.5454 66.0544C78.9283 65.9693 79.3194 65.9261 79.7118 65.9257C80.2991 65.885 80.8825 66.0478 81.3625 66.3863C81.5712 66.5786 81.7322 66.8163 81.8328 67.0807C81.9334 67.3451 81.9709 67.6291 81.9423 67.9104V71.2971V71.3784ZM80.5781 68.9738L79.8346 69.028C79.6224 69.0492 79.4139 69.097 79.2139 69.1702C79.0507 69.2275 78.905 69.3254 78.7909 69.4547C78.6767 69.5964 78.6185 69.7746 78.6272 69.9559C78.6201 70.0737 78.644 70.1912 78.6966 70.297C78.7493 70.4027 78.8288 70.4929 78.9274 70.5588C79.1796 70.7226 79.4795 70.7988 79.78 70.7755C79.9322 70.7857 80.0849 70.7857 80.237 70.7755C80.3539 70.7637 80.4686 70.7364 80.5781 70.6943V69.0009V68.9738ZM86.2192 71.6832V69.6173C86.0419 69.6987 85.8568 69.7623 85.6667 69.8069C85.4667 69.8614 85.2602 69.8887 85.0528 69.8882C84.4998 69.9299 83.9528 69.7521 83.5317 69.3937C83.3479 69.2069 83.2061 68.9836 83.1156 68.7384C83.0251 68.4932 82.9879 68.2318 83.0064 67.9713V66.1289H84.432V67.8155C84.432 68.4522 84.7595 68.7638 85.4211 68.7638C85.5637 68.7616 85.7056 68.7434 85.844 68.7096C85.9741 68.6736 86.0999 68.6236 86.2192 68.5606V66.1289H87.6312V71.6832H86.2192ZM92.5902 71.6832V68.52C92.5902 68.3845 92.5902 68.249 92.5902 68.1C92.5902 67.951 92.5902 67.8426 92.5902 67.7749L92.4674 68.0391C92.4057 68.1758 92.3327 68.3072 92.2491 68.4319L90.2437 71.6832H88.8795V66.1289H90.155V69.177C90.155 69.3531 90.155 69.5224 90.155 69.6715C90.155 69.8205 90.155 69.9153 90.155 69.9424C90.155 69.9085 90.2096 69.8205 90.2778 69.685C90.346 69.5495 90.4142 69.4141 90.4961 69.2786L92.4469 66.1289H93.8521V71.6832H92.5902ZM98.3336 71.6832V69.4141H96.5192V71.6832H95.1072V66.1289H96.5192V68.3236H98.3404V66.1289H99.7524V71.6832H98.3336ZM105.373 71.4055C105.091 71.5385 104.793 71.6342 104.486 71.6899C104.088 71.7664 103.684 71.805 103.279 71.8051C102.613 71.8532 101.949 71.6895 101.383 71.3377C101.173 71.1816 101.006 70.9759 100.896 70.7394C100.786 70.5028 100.738 70.2429 100.755 69.983C100.739 69.6542 100.835 69.3297 101.028 69.0619C101.221 68.8176 101.472 68.6244 101.758 68.4996C102.093 68.3546 102.446 68.2544 102.808 68.2016C103.215 68.1395 103.625 68.0988 104.036 68.0797V67.7884C104.048 67.6704 104.028 67.5513 103.979 67.4431C103.93 67.3349 103.853 67.2415 103.756 67.1721C103.521 67.0444 103.254 66.9834 102.986 66.9959C102.849 66.9861 102.713 66.9861 102.576 66.9959C102.436 67.0159 102.297 67.043 102.16 67.0772C102.024 67.1022 101.89 67.1362 101.758 67.1788C101.642 67.21 101.528 67.2484 101.417 67.294L101.069 66.3525C101.363 66.2346 101.666 66.1417 101.976 66.0748C102.359 65.9896 102.75 65.9465 103.143 65.9461C103.73 65.9064 104.313 66.0691 104.793 66.4067C105.002 66.5989 105.163 66.8366 105.264 67.101C105.364 67.3654 105.402 67.6494 105.373 67.9307V71.3174V71.4055ZM104.009 69.0009L103.258 69.0551C103.049 69.077 102.842 69.1247 102.645 69.1973C102.481 69.2546 102.336 69.3525 102.222 69.4818C102.107 69.6235 102.049 69.8017 102.058 69.983C102.054 70.0996 102.078 70.2154 102.13 70.3205C102.181 70.4255 102.257 70.5166 102.351 70.5859C102.607 70.7484 102.908 70.8244 103.211 70.8026C103.363 70.8125 103.516 70.8125 103.668 70.8026C103.785 70.7908 103.899 70.7635 104.009 70.7213V69.028V69.0009ZM111.417 68.7638C111.423 68.8427 111.423 68.922 111.417 69.0009L107.808 69.4886C107.824 69.6681 107.878 69.8422 107.966 69.9997C108.054 70.1572 108.175 70.2946 108.32 70.403C108.623 70.6125 108.987 70.7173 109.357 70.701C109.639 70.704 109.921 70.6722 110.196 70.6062C110.443 70.5509 110.684 70.4668 110.912 70.3556L111.321 71.4055C111.031 71.5367 110.727 71.6344 110.414 71.6967C110.032 71.7682 109.643 71.8045 109.254 71.8051C108.837 71.8148 108.423 71.7435 108.033 71.5951C107.697 71.4652 107.395 71.2587 107.153 70.9923C106.908 70.7269 106.722 70.4129 106.608 70.0711C106.376 69.3068 106.376 68.4917 106.608 67.7275C106.72 67.394 106.893 67.0839 107.119 66.8131C107.343 66.5533 107.623 66.3472 107.938 66.2102C108.282 66.0641 108.655 65.9925 109.029 66.0002C109.381 65.9931 109.731 66.0552 110.059 66.1831C110.345 66.2965 110.602 66.4725 110.81 66.6979C111.02 66.9296 111.18 67.2016 111.28 67.4972C111.394 67.8286 111.449 68.1768 111.444 68.5267V68.7367L111.417 68.7638ZM110.052 68.2829C110.083 67.9431 109.983 67.6045 109.773 67.3346C109.673 67.2288 109.551 67.146 109.415 67.0921C109.28 67.0383 109.134 67.0147 108.988 67.023C108.816 67.0175 108.645 67.0498 108.487 67.1177C108.329 67.1856 108.188 67.2875 108.074 67.4159C107.82 67.7577 107.692 68.1765 107.713 68.6012L110.052 68.2829ZM114.827 67.2262V71.6832H113.402V67.2262H112.037V66.1289H116.219V67.2262H114.827ZM120.762 71.4258C120.313 71.6856 119.801 71.8169 119.281 71.8051C118.959 71.805 118.64 71.7452 118.34 71.629C118.037 71.5129 117.764 71.3299 117.542 71.0939C117.297 70.831 117.107 70.5225 116.983 70.1862C116.838 69.7727 116.769 69.3369 116.778 68.8993C116.769 68.4594 116.838 68.0214 116.983 67.6055C117.108 67.2717 117.298 66.9655 117.542 66.7047C117.768 66.475 118.04 66.295 118.34 66.1764C118.64 66.0601 118.959 66.0004 119.281 66.0002C119.802 65.9861 120.315 66.1201 120.762 66.3863L120.318 67.3888C120.073 67.2252 119.782 67.1423 119.486 67.1517C119.316 67.1537 119.149 67.1938 118.996 67.2688C118.844 67.3438 118.711 67.452 118.606 67.5852C118.336 67.9635 118.208 68.4236 118.245 68.8857C118.238 69.1419 118.27 69.3977 118.34 69.6444C118.396 69.8404 118.489 70.0242 118.613 70.1862C118.714 70.3212 118.846 70.4308 118.998 70.506C119.149 70.5813 119.317 70.6203 119.486 70.6197C119.783 70.6305 120.075 70.5449 120.318 70.3759L120.762 71.4258ZM124.854 71.6832V69.5292H124.261C124.084 69.5223 123.909 69.5722 123.763 69.6715C123.619 69.7765 123.508 69.9197 123.442 70.0846L122.801 71.6832H121.321L122.003 69.9898C122.077 69.824 122.173 69.669 122.29 69.5292C122.406 69.3924 122.544 69.2757 122.699 69.1838C122.401 69.0923 122.136 68.9184 121.935 68.6825C121.713 68.4325 121.596 68.1078 121.607 67.7749C121.604 67.5208 121.664 67.2698 121.783 67.045C121.902 66.8201 122.076 66.6286 122.29 66.4879C122.834 66.1436 123.474 65.9799 124.118 66.0206C124.505 66.0203 124.891 66.0566 125.27 66.1289C125.607 66.1868 125.935 66.2869 126.246 66.427V71.7035L124.854 71.6832ZM124.854 67.0027C124.611 66.9186 124.355 66.8796 124.097 66.8876C123.803 66.8638 123.511 66.9508 123.279 67.1314C123.188 67.2188 123.118 67.3247 123.074 67.4417C123.029 67.5587 123.01 67.6839 123.019 67.8088C123.007 67.9339 123.024 68.0602 123.069 68.1777C123.114 68.2952 123.186 68.4008 123.279 68.4861C123.516 68.6557 123.806 68.7372 124.097 68.7164H124.854V66.9756V67.0027ZM135.727 73.1869H134.752L134.704 71.6832H130.85L130.796 73.1869H129.82L129.725 70.7959C129.991 70.6425 130.223 70.4375 130.407 70.193C130.587 69.9421 130.738 69.6717 130.857 69.387C130.981 69.0917 131.077 68.7856 131.143 68.4725C131.212 68.1542 131.266 67.8358 131.321 67.5243L131.525 66.1289H134.861L135.338 70.5859L135.823 70.7959L135.741 73.1869H135.727ZM133.681 67.1788H132.603L132.508 67.7952C132.474 68.0323 132.433 68.2761 132.385 68.5403C132.33 68.7988 132.262 69.0543 132.18 69.3057C132.094 69.5547 131.989 69.7969 131.867 70.0304C131.743 70.2516 131.589 70.4545 131.41 70.6333H134.015L133.681 67.1788ZM141.471 68.8993C141.474 69.289 141.419 69.6771 141.307 70.0508C141.203 70.3859 141.037 70.6984 140.816 70.9719C140.602 71.2351 140.329 71.444 140.018 71.5816C139.675 71.7288 139.306 71.8048 138.933 71.8048C138.56 71.8048 138.191 71.7288 137.849 71.5816C137.54 71.444 137.268 71.2349 137.057 70.9719C136.832 70.7017 136.664 70.3881 136.566 70.0508C136.348 69.2984 136.348 68.5002 136.566 67.7478C136.666 67.4132 136.833 67.1021 137.057 66.8334C137.272 66.5743 137.543 66.366 137.849 66.2238C138.191 66.0765 138.56 66.0005 138.933 66.0005C139.306 66.0005 139.675 66.0765 140.018 66.2238C140.326 66.3659 140.599 66.5741 140.816 66.8334C141.035 67.1053 141.202 67.4154 141.307 67.7478C141.419 68.1214 141.474 68.5095 141.471 68.8993ZM140.059 68.8993C140.081 68.4468 139.984 67.9965 139.779 67.592C139.697 67.4426 139.574 67.319 139.424 67.2352C139.275 67.1514 139.105 67.1108 138.933 67.1179C138.763 67.1096 138.593 67.1499 138.444 67.2338C138.296 67.3178 138.174 67.442 138.094 67.592C137.889 67.9965 137.792 68.4468 137.815 68.8993C137.791 69.3518 137.887 69.8026 138.094 70.2066C138.176 70.3547 138.298 70.4771 138.446 70.5598C138.595 70.6424 138.763 70.682 138.933 70.6739C139.104 70.6809 139.273 70.6409 139.422 70.5585C139.572 70.476 139.695 70.3542 139.779 70.2066C139.986 69.8026 140.082 69.3518 140.059 68.8993ZM148.196 71.6967L147.814 68.2152C147.814 68.03 147.801 67.8675 147.773 67.7275C147.773 67.592 147.773 67.4836 147.773 67.4159C147.773 67.4904 147.733 67.6056 147.712 67.7478C147.692 67.89 147.637 68.0458 147.583 68.2152L146.464 71.6967H145.407L144.288 68.2152C144.233 68.0323 144.192 67.8697 144.158 67.7207C144.124 67.5717 144.104 67.4701 144.09 67.4159C144.09 67.4769 144.09 67.592 144.09 67.7546C144.09 67.9171 144.09 68.0662 144.056 68.2152L143.667 71.6967H142.337L143.094 66.1425H144.724L145.754 69.3328C145.801 69.4654 145.837 69.6012 145.864 69.7392C145.864 69.8679 145.911 69.9763 145.925 70.0711L145.986 69.7392C146.012 69.6019 146.047 69.4661 146.089 69.3328L147.105 66.1425H148.817L149.574 71.6967H148.196Z" fill="#1C4530"/></svg>