<svg width="100" height="100" viewBox="0 0 100 100" fill="none" xmlns="http://www.w3.org/2000/svg"><circle cx="50" cy="50" r="50" fill="#7294C7"/><path d="M74.5138 62.7881C74.5138 62.5806 74.3063 62.5806 74.3063 62.373C73.476 60.7126 71.608 58.637 69.1173 56.3539C67.872 55.3161 67.2493 54.4858 66.8342 54.0707C66.2115 53.2405 66.2115 52.6179 66.4191 51.7876C66.6267 51.1649 67.4568 50.1271 68.9098 48.2591C69.74 47.2213 70.1551 46.5987 70.7778 45.976C73.8911 41.8249 75.344 39.1266 74.9289 37.8813L74.7214 37.6737C74.5138 37.4662 74.3062 37.2586 73.8911 37.2586C73.476 37.0511 72.8534 37.0511 72.2307 37.2586H64.3435C64.136 37.2586 64.1359 37.2586 63.7208 37.2586C63.5133 37.2586 63.3057 37.2586 63.3057 37.2586H63.0982H62.8906L62.683 37.4661C62.4755 37.6737 62.4755 37.6737 62.4755 37.8813C61.6452 40.1644 60.6075 42.0324 59.5697 44.108C58.947 45.1458 58.3243 46.1836 57.7017 47.0138C57.079 47.844 56.6639 48.4667 56.2487 48.8818C55.8336 49.2969 55.4185 49.5045 55.211 49.9196C55.0034 50.1271 54.5883 50.3347 54.5883 50.1272C54.3808 50.1272 54.1732 50.1271 54.1732 49.9196C53.9656 49.712 53.7581 49.5045 53.5505 49.2969C53.343 49.0894 53.3429 48.6742 53.1354 48.2591C53.1354 47.844 53.1354 47.4289 53.1354 47.2213C53.1354 47.0138 53.1354 46.3911 53.1354 45.976C53.1354 45.3533 53.1354 44.9382 53.1354 44.7307C53.1354 44.108 53.1354 43.2778 53.1354 42.4475C53.1354 41.6173 53.1354 40.9946 53.1354 40.5795C53.1354 40.1644 53.1354 39.5417 53.1354 39.1266C53.1354 38.5039 53.1354 38.0888 53.1354 37.8813C53.1354 37.6737 52.9279 37.2586 52.9279 37.051C52.7203 36.8435 52.5127 36.6359 52.3052 36.4284C52.0976 36.2208 51.6825 36.2208 51.4749 36.0133C50.4372 35.8057 49.1918 35.5981 47.7389 35.5981C44.418 35.5981 42.1349 35.8057 41.3047 36.2208C40.8895 36.4284 40.4744 36.6359 40.2669 37.051C39.8518 37.4662 39.8517 37.6737 40.0593 37.6737C41.0971 37.8813 41.9273 38.2964 42.3424 38.919L42.55 39.3342C42.7576 39.5417 42.7575 39.9568 42.9651 40.5795C43.1726 41.2022 43.1727 41.8249 43.1727 42.6551C43.1727 43.9004 43.1727 45.1458 43.1727 45.976C43.1727 47.0138 42.9651 47.6365 42.9651 48.2591C42.9651 48.8818 42.7576 49.2969 42.55 49.5045C42.3425 49.9196 42.3424 50.1272 42.1349 50.1272C42.1349 50.1272 42.1349 50.3347 41.9273 50.3347C41.7197 50.3347 41.5122 50.5423 41.0971 50.5423C40.8895 50.5423 40.4744 50.3347 40.2669 50.1272C39.8518 49.9196 39.4366 49.5045 39.2291 49.0894C38.814 48.6743 38.3988 48.0516 37.9837 47.2213C37.5686 46.3911 36.9459 45.5609 36.5308 44.3155L36.1157 43.4853C35.9082 43.0702 35.493 42.24 35.0779 41.2022C34.6628 40.1644 34.2477 39.3342 33.8326 38.2964C33.625 37.8813 33.4175 37.6737 33.2099 37.4661H33.0024C33.0024 37.4661 32.7948 37.2586 32.5872 37.2586C32.3797 37.2586 32.1721 37.051 31.9646 37.051H24.4925C23.6623 37.051 23.2472 37.2586 23.0396 37.4661L22.832 37.6737C22.832 37.6737 22.832 37.8813 22.832 38.0888C22.832 38.2964 22.832 38.5039 23.0396 38.919C24.0774 41.4097 25.3227 43.9004 26.5681 46.3911C27.8134 48.6742 29.0588 50.7498 29.889 52.2027C30.9268 53.6556 31.757 55.1085 32.7948 56.3539C33.8326 57.5992 34.4552 58.4294 34.6628 58.8446C35.0779 59.2597 35.2855 59.4672 35.493 59.6748L36.1157 60.2975C36.5308 60.7126 37.1535 61.3352 37.9837 61.9579C38.814 62.5806 39.8517 63.2032 40.8895 63.8259C41.9273 64.4486 43.1727 64.8637 44.418 65.2788C45.8709 65.694 47.1162 65.9015 48.3616 65.694H51.4749C52.0976 65.694 52.5128 65.4864 52.9279 65.0713L53.1354 64.8637C53.1354 64.6562 53.343 64.6562 53.343 64.4486C53.343 64.241 53.343 64.0335 53.343 63.6184C53.343 62.7882 53.343 62.1655 53.5505 61.5428C53.7581 60.9201 53.7581 60.505 53.9657 60.0899C54.1732 59.6748 54.3808 59.4672 54.5883 59.2597C54.7959 59.0521 55.0034 58.8446 55.0034 58.8446H55.211C55.6261 58.637 56.2488 58.8446 56.6639 59.2597C57.2866 59.6748 57.9092 60.2975 58.3243 60.9201C58.7394 61.5428 59.3622 62.1655 60.1924 62.9957C61.0226 63.8259 61.6453 64.4486 62.0604 64.6562L62.683 65.0713C63.0981 65.2788 63.5133 65.4864 64.136 65.694C64.7586 65.9015 65.1737 65.9015 65.5888 65.9015L72.6458 65.694C73.2685 65.694 73.8911 65.4864 74.3063 65.2788C74.7214 65.0713 74.9289 64.8637 74.9289 64.4486C74.9289 64.241 74.9289 63.8259 74.9289 63.6184C74.5138 63.2033 74.5138 62.9957 74.5138 62.7881Z" fill="#fff"/></svg>