<svg width="95" height="95" viewBox="0 0 95 95" fill="none" xmlns="http://www.w3.org/2000/svg"><circle cx="47.5" cy="47.5" r="47.5" fill="#48C95F"/><path d="M66.3262 28.6475C61.6341 23.9717 55.378 21.374 48.7744 21.374C35.0457 21.374 23.9238 32.4574 23.9238 46.1383C23.9238 50.4678 25.1402 54.7972 27.2256 58.4339L23.75 71.249L36.9573 67.7855C40.6067 69.6904 44.6037 70.7295 48.7744 70.7295C62.503 70.7295 73.625 59.6462 73.625 45.9652C73.4512 39.5576 71.0183 33.3232 66.3262 28.6475ZM60.7652 54.9704C60.2439 56.3558 57.811 57.7412 56.5945 57.9144C55.5518 58.0876 54.1616 58.0876 52.7713 57.7412C51.9024 57.3949 50.686 57.0485 49.2957 56.3558C43.0396 53.7581 39.0427 47.5238 38.6951 47.0042C38.3476 46.6579 36.0884 43.7139 36.0884 40.5967C36.0884 37.4795 37.6524 36.0941 38.1738 35.4014C38.6951 34.7087 39.3902 34.7087 39.9116 34.7087C40.2591 34.7087 40.7805 34.7087 41.128 34.7087C41.4756 34.7087 41.997 34.5355 42.5183 35.7477C43.0396 36.96 44.2561 40.0772 44.4299 40.2503C44.6037 40.5967 44.6037 40.943 44.4299 41.2894C44.2561 41.6357 44.0823 41.9821 43.7348 42.3284C43.3872 42.6748 43.0396 43.1943 42.8658 43.3675C42.5183 43.7139 42.1707 44.0602 42.5183 44.5798C42.8659 45.2725 44.0823 47.1774 45.9939 48.9092C48.4268 50.9873 50.3384 51.68 51.0335 52.0264C51.7287 52.3727 52.0762 52.1995 52.4238 51.8532C52.7713 51.5068 53.9878 50.1214 54.3354 49.4287C54.6829 48.736 55.2043 48.9092 55.7256 49.0824C56.2469 49.2555 59.375 50.8141 59.8963 51.1605C60.5915 51.5068 60.939 51.68 61.1128 51.8532C61.2866 52.3727 61.2866 53.585 60.7652 54.9704Z" fill="#fff"/></svg>